<svg width="1345" height="100" viewBox="0 0 1345 100" fill="none" xmlns="http://www.w3.org/2000/svg">
<rect y="50" width="1288" height="5" fill="#FF6F00"/>
<circle cx="50" cy="50" r="50" fill="#D96508"/>
<circle cx="465" cy="50" r="50" fill="#D96508"/>
<circle cx="880" cy="50" r="50" fill="#D96508"/>
<circle cx="1295" cy="50" r="50" fill="#D96508"/>
<path d="M55.4093 36.2727V69H49.4806V42.0415H49.2889L41.6344 46.9315V41.4982L49.7683 36.2727H55.4093Z" fill="white"/>
<path d="M453.934 66V61.7173L465.296 50.5792C466.382 49.4819 467.288 48.5071 468.012 47.6548C468.737 46.8026 469.28 45.9769 469.642 45.1779C470.004 44.3789 470.186 43.5266 470.186 42.6211C470.186 41.5877 469.951 40.7035 469.482 39.9684C469.014 39.2227 468.369 38.6474 467.549 38.2425C466.729 37.8377 465.796 37.6353 464.752 37.6353C463.676 37.6353 462.733 37.859 461.924 38.3065C461.114 38.7433 460.486 39.3665 460.038 40.1761C459.601 40.9858 459.383 41.9499 459.383 43.0685H453.742C453.742 40.9911 454.216 39.1854 455.164 37.6513C456.112 36.1172 457.417 34.9293 459.079 34.0877C460.752 33.2461 462.67 32.8253 464.832 32.8253C467.027 32.8253 468.955 33.2354 470.617 34.0558C472.279 34.8761 473.568 36 474.484 37.4276C475.411 38.8551 475.874 40.4851 475.874 42.3175C475.874 43.5426 475.64 44.7464 475.171 45.929C474.703 47.1115 473.877 48.4219 472.694 49.8601C471.523 51.2983 469.877 53.0401 467.757 55.0856L462.116 60.8224V61.0462H476.37V66H453.934Z" fill="white"/>
<path d="M879.998 69.4474C877.697 69.4474 875.651 69.0533 873.862 68.2649C872.083 67.4766 870.676 66.3793 869.643 64.973C868.61 63.5668 868.061 61.9421 867.997 60.0991H874.005C874.059 60.9833 874.352 61.7557 874.884 62.4162C875.417 63.0661 876.125 63.5721 877.01 63.9343C877.894 64.2965 878.885 64.4776 879.982 64.4776C881.154 64.4776 882.193 64.2752 883.098 63.8704C884.004 63.4549 884.712 62.8796 885.224 62.1445C885.735 61.4094 885.985 60.5625 885.975 59.6037C885.985 58.6129 885.73 57.7393 885.208 56.983C884.686 56.2266 883.929 55.6353 882.938 55.2092C881.958 54.783 880.776 54.57 879.391 54.57H876.498V49.9996H879.391C880.531 49.9996 881.527 49.8026 882.379 49.4084C883.242 49.0142 883.918 48.4602 884.409 47.7464C884.899 47.022 885.138 46.1857 885.128 45.2376C885.138 44.3107 884.931 43.5064 884.504 42.8246C884.089 42.1321 883.498 41.5941 882.731 41.2106C881.974 40.8271 881.085 40.6353 880.062 40.6353C879.061 40.6353 878.134 40.8164 877.281 41.1786C876.429 41.5408 875.742 42.0575 875.22 42.7287C874.698 43.3892 874.421 44.1776 874.389 45.0938H868.684C868.727 43.2614 869.254 41.6527 870.266 40.2678C871.289 38.8722 872.652 37.7855 874.357 37.0078C876.062 36.2195 877.974 35.8253 880.094 35.8253C882.278 35.8253 884.174 36.2354 885.783 37.0558C887.402 37.8654 888.654 38.9574 889.538 40.3317C890.422 41.706 890.864 43.2241 890.864 44.886C890.875 46.729 890.332 48.2738 889.235 49.5202C888.148 50.7667 886.72 51.5817 884.952 51.9652V52.2209C887.253 52.5405 889.016 53.3928 890.241 54.7777C891.477 56.152 892.09 57.8619 892.079 59.9073C892.079 61.7397 891.557 63.3803 890.513 64.8292C889.48 66.2674 888.052 67.3967 886.23 68.217C884.419 69.0373 882.342 69.4474 879.998 69.4474Z" fill="white"/>
<path d="M1282.33 62.9276V58.2134L1296.22 36.2727H1300.15V42.9844H1297.75L1288.4 57.7979V58.0536H1307.79V62.9276H1282.33ZM1297.94 69V61.4893L1298.01 59.38V36.2727H1303.6V69H1297.94Z" fill="white"/>
</svg>
