<svg width="80" height="20" viewBox="0 0 80 20" fill="none" xmlns="http://www.w3.org/2000/svg">
<path d="M78.4245 8.02961C73.4243 5.45518 61.8701 5.05149 59.2702 11.4421C57.7956 15.0674 61.5841 14.9046 62.2063 12.1402C62.8283 9.37551 60.9196 6.66395 56.8756 6.4441C49.228 6.02861 45.3329 17.6379 50.3382 18.199C55.3435 18.76 54.1261 3.57098 44.4971 1.80735C34.8681 0.0437108 29.7936 5.47124 23.208 7.424C16.622 9.37696 8.2842 9.97834 2.61 9.10943M2.61 9.10943C2.61 9.10943 4.40273 10.8365 6.28883 12.8715M2.61 9.10943C2.61 9.10943 4.64278 8.15363 7.79016 6.25212" stroke="#333333" stroke-width="3" stroke-miterlimit="16" stroke-linecap="round"/>
</svg>
