<svg width="575" height="9" viewBox="0 0 575 9" fill="none" xmlns="http://www.w3.org/2000/svg">
<path d="M5.47335 0.0509824C8.69527 -0.0720716 12.9192 0.0461423 16.1294 0.212906C17.1355 0.264609 16.6265 0.504448 17.321 0.550897C18.6794 0.641438 19.9445 0.522042 21.2869 0.63038C21.7318 0.667453 21.1788 1.04692 21.6452 1.07712C24.2014 1.23995 26.6192 1.13933 29.2085 1.21527C41.9625 1.59001 54.4989 1.71026 67.4085 1.86022C71.6652 1.90934 76.8401 2.24383 81.2364 2.08595C81.7496 2.06718 81.4431 1.73549 81.5407 1.70794C83.0715 1.28608 82.5634 1.95766 83.5636 2.04503C87.5332 2.38995 91.9467 2.41287 95.7662 2.27799C97.3911 2.21964 95.7606 1.5626 97.3975 1.93013C97.5112 1.95496 97.0994 2.30848 97.5452 2.34533C98.5559 2.4282 100.473 2.3618 101.257 2.38839C102.766 2.44142 103.016 2.43743 104.444 2.43896C106.396 2.44413 108.717 2.61546 110.811 2.53187C111.258 2.51298 110.666 2.15235 111.379 2.08957C112.092 2.02688 113.98 2.05426 114.616 2.1384C115.253 2.22259 114.983 2.50732 115.095 2.57228C116.023 3.1206 118.205 2.35514 118.486 2.33581C123.608 2.00594 128.001 2.43217 132.809 2.42256C136.46 2.41434 140.362 2.2643 143.836 2.27789C147.974 2.29548 151.481 2.48535 155.501 2.44466C155.925 2.44078 155.427 2.01642 155.945 2.01082C161.45 1.95175 166.917 1.98858 172.399 2.2661C172.948 2.2943 172.241 2.66889 172.79 2.71939C176.153 3.02035 181.474 3.74815 183.469 2.11915C185.746 2.17866 188.512 2.23942 190.55 2.56354C191.864 2.77214 190.589 3.18109 192.202 3.00473C192.566 2.96542 192.092 2.61006 192.638 2.57806C194.936 2.44366 197.447 2.55507 199.72 2.36707C200.183 2.328 200.056 2.00906 200.187 1.95136C201.287 1.48399 203.122 2.25021 203.522 2.30542C206.565 2.71704 208.787 2.5491 211.622 2.55434C212.28 2.55573 211.502 2.12839 212.135 2.11433C215.418 2.04717 218.819 2.07809 222.034 2.26272C222.749 2.30481 222.092 2.67114 222.434 2.70994C223.941 2.87658 224.274 2.18628 225.719 2.33278C226.024 2.36278 225.853 2.6757 225.909 2.70994C226.779 3.24738 227.534 2.4824 227.757 2.46515C230.587 2.22985 232.397 3.02393 235.13 2.90628C235.457 2.8914 234.719 2.49712 235.638 2.47948C241.763 2.35962 248.24 2.45699 254.303 2.76282C255.246 2.80984 254.573 3.10816 254.633 3.14468C255.6 3.71535 256.224 2.94738 256.532 2.91797C258.956 2.70585 261.222 3.34502 262.868 2.42874C273.137 2.72784 283.357 2.1971 293.542 2.99766C293.671 3.00691 293.44 3.385 293.698 3.40183C296.809 3.60848 296.211 3.02253 298.268 2.30104C298.786 2.11987 300.364 2.98387 300.504 3.04716C301.013 3.2804 300.487 3.84321 300.657 3.88825C302.066 4.24184 301.833 2.38402 303.734 2.38011C303.793 2.3831 303.544 2.72557 303.704 2.7593C304.199 2.8652 304.691 2.72843 305.176 2.84533C306.286 3.11583 306.683 4.01807 308.377 3.48962C308.592 3.42104 308.262 2.36755 309.959 2.41439C310.635 2.43395 313.629 2.41067 314.469 2.47751C315.307 2.54428 314.732 2.88495 314.792 2.89956C317.051 3.34478 316.195 3.53242 317.328 4.19543C318.46 4.85592 318.144 3.27643 318.604 3.09927C319.066 2.92261 320.722 3.29031 321.13 3.41843C321.537 3.5466 321.03 3.76332 321.391 3.83562C323.79 4.30796 322.443 3.04951 323.232 2.79736C325.094 2.20032 326.547 3.36956 328.252 3.4814C328.713 3.51161 328.336 3.24539 328.747 3.21971C330.374 3.12157 331.353 3.48548 333.204 3.14702C333.507 3.09186 335.002 2.38476 335.972 2.90008C336.109 2.97439 335.72 3.26707 336.413 3.33127C337.45 3.42763 339.316 3.4882 340.43 3.38865C341.252 3.31501 340.309 2.8355 341.344 2.98316C341.804 3.0491 340.952 3.33206 341.816 3.43246C342.676 3.53284 344.873 3.51664 345.71 3.50547C346.544 3.49408 346.087 3.1299 346.154 3.1052C346.562 2.96364 348.164 2.78486 348.305 2.78504C355.446 2.72805 362.032 3.33178 368.984 3.11605C369.529 3.09965 369.165 2.71541 369.248 2.70894C371.116 2.54443 369.645 3.57028 370.95 3.91051C370.76 3.12983 371.531 3.2699 372.846 3.18195C373.48 3.13894 373.134 2.83713 373.192 2.80607C374.132 2.3451 374.787 2.93725 374.956 3.05832C375.58 3.50369 376.256 2.97499 376.681 3.27267C377.105 3.56812 376.131 4.00891 377.393 4.00109C377.746 3.7209 376.808 2.99192 377.766 2.87184C381.38 2.41765 388.128 2.97913 391.034 3.03361C393.935 3.08805 394.871 3.03484 396.562 3.13293C399.615 3.31031 398.495 2.77019 400.391 2.51877C402.291 2.26737 401.369 3.60272 401.643 3.88896C401.912 4.17508 402.204 3.87955 402.538 4.03652C402.871 4.19345 402.152 4.38965 402.934 4.44743C403.717 4.50515 405.856 3.99157 406.133 3.69129C406.718 3.05513 405.753 2.39021 407.824 2.62082C407.943 2.63452 407.558 2.98589 408.014 3.02054C411.637 3.28421 415.4 3.29439 419.019 3.52687C419.517 3.55939 419.073 3.95031 419.362 3.97364C422.378 4.21793 421.299 3.56198 422.951 2.82833C422.581 3.80148 423.496 4.39486 425.785 4.39662C427.161 4.39801 426.924 3.97369 427.813 3.67278C428.08 3.58208 429.054 3.87202 429.23 3.67196C429.811 3.018 428.892 2.28867 431.253 2.57561C431.356 2.58926 431.027 2.94724 431.385 2.96827C433.697 3.10592 433.973 2.42246 436.473 2.3354C438.432 2.26709 441.917 2.67748 444.148 2.74133C444.103 3.83478 446.21 3.58074 447.063 2.8254C448.511 2.85374 450.075 2.8084 451.475 2.91016C451.956 2.94484 451.64 3.26195 451.701 3.29605C452.633 3.83099 453.262 3.09647 453.574 3.06718C456.961 2.78177 459.721 3.33284 462.953 2.78396C463.067 2.76419 463.252 2.00438 464.117 2.55742C464.173 2.59555 463.106 2.94296 464.627 2.96703C466.147 2.99116 469.015 3.39331 471.126 3.0377C471.637 2.95208 472.928 2.33328 473.966 2.81319C474.104 2.87837 473.953 3.09645 474.153 3.21732C474.799 3.60242 475.149 2.83415 475.908 3.48499C476.667 4.1358 478.245 4.62145 480.373 4.1678C480.441 4.1546 480.944 3.54529 481.614 3.55374C482.683 3.56776 484.2 3.69186 485.316 3.68596C485.851 3.68291 485.508 3.30569 485.601 3.29862C489.194 3.08065 491.752 3.41301 495.601 3.55248C496.307 3.5788 498.334 3.06006 499.701 3.465C501.202 3.90827 499.663 5.76578 503.11 5.31787C504.501 5.1387 506.257 2.78246 508.758 3.99729C513.605 3.68674 518.088 4.3029 522.947 3.86307C523.166 3.84357 523.856 3.18562 524.37 3.19366C525.133 3.20687 525.552 3.5131 526.097 3.53237C528.379 3.62085 530.467 3.35459 532.668 3.39161C533.504 3.405 533.212 3.72289 534.208 3.7389C535.204 3.7546 535.868 3.33551 537.218 3.53501C538.237 3.68709 539.257 4.53957 540.611 4.63679C540.661 3.79407 541.59 3.8098 543.241 3.58449C543.558 3.54078 543.217 3.24809 543.367 3.21229C543.978 3.06007 544.544 3.30215 545.124 3.13659C545.265 3.09683 545.271 2.80905 545.387 2.7603C546.367 2.33481 547.985 2.97929 548.263 3.09151C549.328 3.51768 549.824 3.14254 550.641 3.30967C551.456 3.47678 550.238 3.68959 551.19 3.7902C553.164 3.9983 555.699 3.94741 557.703 3.95714C558.502 3.95925 557.956 3.57608 558.071 3.56746C559.724 3.46716 561.397 3.87284 562.312 3.1061C563.462 5.08247 563.309 2.91247 565.673 3.30439C565.859 3.3361 566.097 4.27125 565.383 4.40984C564.668 4.5483 563.584 4.25775 562.593 4.47358C562.358 4.52423 561.015 5.40325 560.831 5.45668C559.394 5.87422 559.188 4.47651 559.112 4.39986C558.248 3.57268 556.606 4.52 556.173 4.58601C554.193 4.88849 552.51 4.69481 550.854 4.91113C549.771 5.05097 549.667 5.96694 548.816 5.94039C545.988 5.85266 544.999 4.57686 542.336 5.6892C541.765 5.92644 542.335 6.92638 540.286 6.14289C540.158 6.0935 538.636 5.37613 537.759 5.83309C537.649 5.8907 537.653 6.1824 537.507 6.20716C536.533 6.36737 535.882 6.13611 534.82 6.24926C533.759 6.36241 532.482 6.53056 531.27 6.43373C530.539 6.37584 529.6 5.83399 529.25 5.70154C528.262 5.31995 527.204 5.95026 526.591 5.48717C525.974 5.02174 527.179 4.31119 525.56 4.01259C525.502 4.77056 525.365 5.54868 525.27 6.31102C521.724 6.29051 518.235 6.05153 514.678 6.09121C514.237 6.09688 514.688 6.50353 514.216 6.52012C512.221 6.58832 510.478 6.30091 508.409 6.42018C506.808 6.51406 505.053 6.94851 503.379 7.06011C502.354 6.19467 499.87 6.4934 498.065 6.41729C497.433 6.39101 497.475 6.15932 497.025 6.08454C495.328 5.80804 496.124 6.573 495.659 6.69442C493.665 7.21261 493.491 5.47831 491.139 5.52527C491.014 5.52717 489.492 6.45444 489.283 6.51238C487.95 6.89017 489.061 6.19094 488.227 6.12408C486.703 6.00189 485.644 5.78292 483.858 6.05686C483.336 6.13798 482.087 6.71646 481.074 6.27246C480.941 6.21432 481.014 5.90857 480.907 5.89086C478.967 5.5959 478.917 6.55628 477.809 6.88344C476.701 7.21053 474.988 6.55061 474.639 6.36016C473.726 5.86749 475.337 6.14771 475.386 6.09913C475.965 5.52091 474.717 5.62246 473.762 5.57535C473.623 4.63401 472.288 4.69285 472.773 5.5303C472.828 5.62177 473.571 5.53267 473.762 5.57535C472.926 6.50063 471.46 6.6215 469.839 5.76102C469.08 5.35773 469.796 4.88472 467.493 5.06132C466.447 5.14104 466.853 5.78867 465.93 5.96703C463.823 6.37399 461.084 5.77398 458.911 5.87306C458.122 5.90903 458.891 6.26258 458.352 6.29939C456.922 6.39819 455.661 6.13411 454.224 6.27301C454.094 6.28605 454.413 6.65699 453.966 6.6625C450.58 6.71155 447.631 6.47874 444.095 6.4783C442.387 6.47826 439.333 6.68847 437.564 6.65036C434.496 6.5865 430.722 6.05286 428.102 6.18866C426.394 6.27564 426.769 6.64656 426.037 6.901C424.625 7.39421 422.123 6.51953 421.786 6.384C421.775 6.37952 423.246 6.28936 422.461 6.09999C422.004 5.70335 421.802 6.38225 421.786 6.384C421.564 6.29646 418.627 6.21723 418.043 6.28927C417.727 6.32864 417.905 6.68038 417.739 6.69425C413.812 7.01614 409.877 7.11247 405.893 6.95481C405.823 6.94782 405.928 6.55385 405.763 6.54233C403.456 6.37126 401.98 6.85556 400.078 7.14487C398.177 7.43406 396.668 7.34094 395.542 6.66689C394.107 6.75451 392.047 6.45923 390.862 6.27995C389.677 6.10067 389.513 6.86749 389.409 6.88282C386.158 7.37351 384.278 6.93804 380.905 6.87563C379.301 6.84465 376.12 6.96137 374.384 7.04822C373.012 7.11814 372.185 6.93994 370.921 7.057C370.75 7.07264 370.923 7.41364 370.871 7.42687C369.46 7.83767 370.137 7.00213 369.846 6.85363C368.788 6.31357 368.135 6.0261 366.329 6.28417C365.912 6.34328 364.7 7.54675 363.94 7.61833C362.952 7.7092 363.324 7.27793 362.29 7.38404C362.202 7.39273 362.221 7.65836 361.582 7.64775C358.619 7.60204 355.387 7.45309 352.308 7.48507C351.887 7.48843 352.427 7.90886 351.819 7.92064C348.968 7.97555 345.842 7.96541 343.063 7.77301C342.379 7.72433 342.807 7.42855 342.659 7.34121C341.746 6.81274 340.455 7.58515 340.242 7.60019C335.156 7.97915 331.261 7.28896 326.077 7.62982C325.795 7.64979 323.623 8.47919 322.653 7.7728C322.587 7.72581 321.626 7.00304 320.779 7.49983C320.727 7.53091 321.325 7.90282 320.282 7.86663C319.239 7.83052 317.561 8.08249 316.127 7.67522C315.673 7.54692 314.599 6.82614 313.247 7.40455C313.159 7.44492 311.071 8.7511 310.324 7.85371C310.203 7.70599 310.327 6.75476 308.713 7.24517C308.404 7.34024 308.965 7.55139 308.152 7.68526C306.906 7.89158 305.255 7.63974 303.724 8.06606C303.457 8.14152 302.321 8.78899 301.408 8.30066C301.265 8.22417 301.536 7.9062 301.054 7.87151C298.763 7.70506 296.365 7.92162 294.039 7.706C293.215 7.63024 293.636 7.11624 292.777 6.98019C291.918 6.84419 290.187 6.71493 289.289 6.95105C288.391 7.18727 289.374 8.00359 288.028 8.07139C282.175 8.36589 276.375 7.89611 270.53 7.8361C269.663 7.82712 270.382 8.11859 269.105 8.12637C264.395 8.15635 256.263 8.44497 252.175 7.8301C248.9 7.33763 253.02 6.95118 250.517 6.75281C249.31 6.65821 248.005 7.61153 247.714 7.64198C244.866 7.95108 242.887 7.53324 240.324 7.66696C239.795 7.69471 240.314 8.07927 239.864 8.09862C238.325 8.16815 236.708 7.99891 235.238 8.03295C234.578 8.0491 234.7 8.3433 234.093 8.32163C232.641 8.27318 231.357 8.15167 229.94 7.8782C229.811 7.85328 230.681 7.48553 229.606 7.47378C227.867 7.4558 225.708 7.18736 223.708 7.47195C223.115 7.55755 223.093 8.23045 221.816 7.76799C221.548 7.6714 221.888 6.86285 220.403 7.56355C220.153 7.68 217.658 8.62597 216.431 8.02114C216.108 7.86196 215.281 7.20224 214.568 7.30739C214.471 7.32413 214.859 7.68488 214.268 7.72116C212.183 7.84275 209.998 7.80799 207.857 7.92492C207.285 7.95686 208.137 8.32937 207.285 8.36503C204.941 8.46365 202.014 8.37352 199.722 8.26045C198.877 8.21806 199.46 7.90723 199.399 7.87363C198.409 7.32697 197.826 8.06817 197.498 8.1119C195.457 8.37389 193.902 8.02891 192.021 8.1242C191.501 8.14955 191.87 8.50184 191.767 8.53349C190.695 8.84284 191.493 8.20764 190.814 8.13895C188.913 7.94444 186.794 7.9765 184.872 8.02495C184.166 8.04326 184.96 8.4511 184.326 8.46281C180.576 8.53986 176.677 8.50749 173.017 8.28827C172.327 8.24625 172.761 7.93038 172.617 7.85865C171.626 7.35684 170.176 8.0462 169.843 8.11221C168.325 8.41359 167.735 8.13595 166.395 8.1903C159.846 8.46068 151.76 8.2902 145.579 8.18695C137.523 8.05423 131.272 7.76535 123.591 7.85657C123.103 7.86198 123.596 8.28032 123.175 8.29036C117.742 8.40088 112.392 8.24639 106.948 8.37696C106.501 8.38693 107.146 8.78321 106.429 8.81257C104.958 8.87559 103.095 8.85723 101.608 8.73293C100.882 8.67305 101.854 8.33035 101.124 8.27705C99.4239 8.15216 97.6016 8.12703 95.8554 8.19378C95.1124 8.22306 96.2343 8.62755 95.2684 8.63392C88.6888 8.68571 82.227 8.76696 75.5771 8.25222C75.1212 8.21687 74.7198 7.39151 73.7509 7.55161C73.6783 7.78099 73.6828 8.05066 73.6513 8.29575C64.0733 8.44443 54.5923 8.17458 44.9871 8.14704C44.5821 8.14597 45.2828 8.58244 44.4987 8.5826C39.9608 8.58404 35.5545 8.71297 30.912 8.28602C30.4513 8.24427 30.6863 7.47386 29.3293 7.59268C29.0899 7.61435 27.046 7.7206 26.5178 7.88867C26.4461 7.91401 26.8196 8.27277 26.1609 8.28439C22.3332 8.34563 18.3218 8.27057 14.5002 8.05763C13.8834 8.02258 14.5395 7.6387 14.1002 7.61041C10.984 7.41267 7.59541 7.70952 4.61749 7.3672C2.62417 7.13669 3.36085 6.47382 2.30071 5.82443C2.15077 5.73281 0.916673 5.7204 0.852196 5.34162C0.686697 4.38913 1.28262 3.34481 1.03559 2.32968C0.983385 2.11102 -0.668941 2.3495 0.308664 1.81919C0.376963 1.78369 1.5749 1.60617 1.86972 1.42633C2.07498 1.30199 1.70403 0.917299 2.12299 0.757862C2.54192 0.598574 3.00313 0.920784 3.69784 0.733108C4.39224 0.543125 4.086 0.105292 5.47335 0.0509824ZM385.526 5.4787C384.429 5.11249 384.269 6.46104 385.455 6.13639C385.513 6.1191 385.583 5.49666 385.526 5.4787ZM518.253 5.03451C516.818 4.44233 515.838 5.31846 516.851 5.77597C517.863 6.23299 518.691 5.21402 518.253 5.03451ZM533.124 4.57444C531.447 4.10849 531.187 6.02083 532.981 5.63121C533.086 5.60919 533.222 4.6015 533.124 4.57444ZM7.21151 5.63044C7.19633 5.61256 6.30921 5.59665 6.28804 5.61444C5.81642 6.04346 7.59031 6.07497 7.21151 5.63044ZM547.881 4.07605C547.357 3.81834 545.851 4.11952 546.502 4.43998C547.026 4.69779 548.533 4.39663 547.881 4.07605ZM328.299 4.13944C328.282 4.11938 327.646 4.1024 327.659 4.21595C327.703 4.58165 328.587 4.47688 328.299 4.13944ZM572.963 4.01035C569.257 3.94484 567.007 2.36944 571.043 2.54062C571.774 2.57159 569.469 3.04699 570.399 3.18776C572.102 3.44419 573.23 2.45061 574.968 2.97895C575.283 3.07566 573.174 4.01759 572.956 4.01256C572.958 4.01182 572.961 4.01108 572.963 4.01035ZM384.892 3.86036C384.87 3.84257 383.989 3.8272 383.968 3.84491C383.492 4.27378 385.266 4.30499 384.892 3.86036ZM291.187 3.37044C291.138 3.33254 289.095 3.30056 289.028 3.33568C287.964 4.03749 292.095 4.1042 291.187 3.37044ZM444.183 2.77043C445.143 2.33815 446.292 2.28545 447.059 2.82485C446.104 2.79781 445.143 2.79526 444.183 2.77043Z" fill="#FBBC04"/>
</svg>
