<svg width="110" height="128" viewBox="0 0 110 128" fill="none" xmlns="http://www.w3.org/2000/svg">
<path d="M1.49087 126.483C3.76076 114.917 18.7696 95.2591 33.5588 99.0964C41.948 101.274 36.5073 107.343 30.7934 104.851C25.0793 102.358 22.9019 95.7393 28.0166 88.7589C37.6896 75.5582 63.4296 83.9007 57.6077 92.9089C51.7858 101.917 26.6986 80.5414 36.6936 62.3397C46.6886 44.138 63.1487 42.6478 75.5468 34.225C87.9456 25.802 100.348 12.7538 106.538 2.24503M106.538 2.24503C106.538 2.24503 107.14 7.41648 108.157 13.1351M106.538 2.24503C106.538 2.24503 102.089 4.39488 94.4594 7.18618" stroke="#333333" stroke-width="3" stroke-miterlimit="16" stroke-linecap="round"/>
</svg>
