<svg width="429" height="116" viewBox="0 0 429 116" fill="none" xmlns="http://www.w3.org/2000/svg">
<path d="M0 50C0 22.3858 22.3858 0 50 0H379C406.614 0 429 22.3858 429 50V66C429 93.6142 406.614 116 379 116H0V50Z" fill="#F5D4CB" fill-opacity="0.76"/>
<path d="M42.0253 36.277H38.7014C38.5736 35.5668 38.3357 34.9418 37.9877 34.402C37.6396 33.8622 37.2135 33.4041 36.7093 33.0277C36.205 32.6513 35.6404 32.3672 35.0154 32.1754C34.3975 31.9837 33.7405 31.8878 33.0445 31.8878C31.7874 31.8878 30.6617 32.2038 29.6673 32.8359C28.6801 33.468 27.8989 34.3949 27.3236 35.6165C26.7554 36.8381 26.4713 38.3295 26.4713 40.0909C26.4713 41.8665 26.7554 43.3651 27.3236 44.5866C27.8989 45.8082 28.6837 46.7315 29.678 47.3565C30.6723 47.9815 31.7909 48.294 33.0338 48.294C33.7227 48.294 34.3762 48.2017 34.9941 48.017C35.6191 47.8253 36.1837 47.5447 36.6879 47.1754C37.1922 46.8061 37.6183 46.3551 37.9664 45.8224C38.3215 45.2827 38.5665 44.6648 38.7014 43.9688L42.0253 43.9794C41.8477 45.0518 41.5033 46.0391 40.9919 46.9411C40.4877 47.8359 39.8378 48.6101 39.0423 49.2635C38.254 49.9098 37.352 50.4105 36.3364 50.7656C35.3208 51.1207 34.2128 51.2983 33.0125 51.2983C31.1233 51.2983 29.4401 50.8509 27.9628 49.956C26.4855 49.054 25.3208 47.7649 24.4685 46.0888C23.6233 44.4126 23.2007 42.4134 23.2007 40.0909C23.2007 37.7614 23.6269 35.7621 24.4791 34.093C25.3314 32.4169 26.4962 31.1314 27.9735 30.2365C29.4507 29.3345 31.1304 28.8835 33.0125 28.8835C34.1702 28.8835 35.2497 29.0504 36.2512 29.3842C37.2597 29.7109 38.1652 30.1939 38.9678 30.8331C39.7703 31.4652 40.4344 32.2393 40.96 33.1555C41.4855 34.0646 41.8406 35.1051 42.0253 36.277ZM52.6015 51.3303C51.0674 51.3303 49.7286 50.9787 48.5851 50.2756C47.4417 49.5724 46.5539 48.5888 45.9218 47.3246C45.2897 46.0604 44.9736 44.5831 44.9736 42.8928C44.9736 41.1953 45.2897 39.7109 45.9218 38.4396C46.5539 37.1683 47.4417 36.1811 48.5851 35.478C49.7286 34.7749 51.0674 34.4233 52.6015 34.4233C54.1356 34.4233 55.4743 34.7749 56.6178 35.478C57.7613 36.1811 58.6491 37.1683 59.2812 38.4396C59.9133 39.7109 60.2293 41.1953 60.2293 42.8928C60.2293 44.5831 59.9133 46.0604 59.2812 47.3246C58.6491 48.5888 57.7613 49.5724 56.6178 50.2756C55.4743 50.9787 54.1356 51.3303 52.6015 51.3303ZM52.6121 48.6562C53.6064 48.6562 54.4303 48.3935 55.0837 47.8679C55.7371 47.3423 56.2201 46.6428 56.5326 45.7692C56.8522 44.8956 57.012 43.9332 57.012 42.8821C57.012 41.8381 56.8522 40.8793 56.5326 40.0057C56.2201 39.125 55.7371 38.4183 55.0837 37.8857C54.4303 37.353 53.6064 37.0866 52.6121 37.0866C51.6107 37.0866 50.7797 37.353 50.1192 37.8857C49.4658 38.4183 48.9793 39.125 48.6597 40.0057C48.3472 40.8793 48.191 41.8381 48.191 42.8821C48.191 43.9332 48.3472 44.8956 48.6597 45.7692C48.9793 46.6428 49.4658 47.3423 50.1192 47.8679C50.7797 48.3935 51.6107 48.6562 52.6121 48.6562ZM63.7849 51V34.6364H66.8637V37.2358H67.0342C67.3325 36.3551 67.858 35.6626 68.6109 35.1584C69.3708 34.647 70.2302 34.3913 71.189 34.3913C71.3879 34.3913 71.6222 34.3984 71.8921 34.4126C72.1691 34.4268 72.3857 34.4446 72.542 34.4659V37.5128C72.4142 37.4773 72.1869 37.4382 71.8602 37.3956C71.5335 37.3459 71.2068 37.321 70.8801 37.321C70.1272 37.321 69.4561 37.4808 68.8666 37.8004C68.2842 38.1129 67.8225 38.5497 67.4816 39.1108C67.1407 39.6648 66.9703 40.2969 66.9703 41.0071V51H63.7849ZM75.2986 57.1364V34.6364H78.4094V37.2891H78.6757C78.8604 36.9482 79.1267 36.554 79.4747 36.1065C79.8227 35.6591 80.3057 35.2685 80.9236 34.9347C81.5415 34.5938 82.3582 34.4233 83.3738 34.4233C84.6949 34.4233 85.8738 34.7571 86.9108 35.4247C87.9477 36.0923 88.7609 37.0547 89.3504 38.3118C89.947 39.5689 90.2453 41.0817 90.2453 42.8501C90.2453 44.6186 89.9506 46.1349 89.3611 47.3991C88.7716 48.6562 87.9619 49.6257 86.9321 50.3075C85.9023 50.9822 84.7268 51.3196 83.4058 51.3196C82.4115 51.3196 81.5983 51.1527 80.9662 50.8189C80.3412 50.4851 79.8511 50.0945 79.496 49.647C79.1409 49.1996 78.8675 48.8018 78.6757 48.4538H78.4839V57.1364H75.2986ZM78.42 42.8182C78.42 43.9687 78.5869 44.9773 78.9207 45.8438C79.2545 46.7102 79.7375 47.3885 80.3696 47.8786C81.0017 48.3615 81.7758 48.603 82.692 48.603C83.6437 48.603 84.4392 48.3509 85.0784 47.8466C85.7176 47.3352 86.2006 46.6428 86.5273 45.7692C86.8611 44.8956 87.028 43.9119 87.028 42.8182C87.028 41.7386 86.8646 40.7692 86.5379 39.9098C86.2183 39.0504 85.7354 38.3722 85.089 37.875C84.4498 37.3778 83.6508 37.1293 82.692 37.1293C81.7687 37.1293 80.9875 37.3672 80.3483 37.843C79.7162 38.3189 79.2368 38.983 78.9101 39.8352C78.5834 40.6875 78.42 41.6818 78.42 42.8182ZM100.707 51.3303C99.1729 51.3303 97.8341 50.9787 96.6906 50.2756C95.5471 49.5724 94.6594 48.5888 94.0273 47.3246C93.3952 46.0604 93.0791 44.5831 93.0791 42.8928C93.0791 41.1953 93.3952 39.7109 94.0273 38.4396C94.6594 37.1683 95.5471 36.1811 96.6906 35.478C97.8341 34.7749 99.1729 34.4233 100.707 34.4233C102.241 34.4233 103.58 34.7749 104.723 35.478C105.867 36.1811 106.755 37.1683 107.387 38.4396C108.019 39.7109 108.335 41.1953 108.335 42.8928C108.335 44.5831 108.019 46.0604 107.387 47.3246C106.755 48.5888 105.867 49.5724 104.723 50.2756C103.58 50.9787 102.241 51.3303 100.707 51.3303ZM100.718 48.6562C101.712 48.6562 102.536 48.3935 103.189 47.8679C103.843 47.3423 104.326 46.6428 104.638 45.7692C104.958 44.8956 105.117 43.9332 105.117 42.8821C105.117 41.8381 104.958 40.8793 104.638 40.0057C104.326 39.125 103.843 38.4183 103.189 37.8857C102.536 37.353 101.712 37.0866 100.718 37.0866C99.7162 37.0866 98.8852 37.353 98.2247 37.8857C97.5713 38.4183 97.0848 39.125 96.7652 40.0057C96.4527 40.8793 96.2964 41.8381 96.2964 42.8821C96.2964 43.9332 96.4527 44.8956 96.7652 45.7692C97.0848 46.6428 97.5713 47.3423 98.2247 47.8679C98.8852 48.3935 99.7162 48.6562 100.718 48.6562ZM111.89 51V34.6364H114.969V37.2358H115.14C115.438 36.3551 115.964 35.6626 116.716 35.1584C117.476 34.647 118.336 34.3913 119.294 34.3913C119.493 34.3913 119.728 34.3984 119.998 34.4126C120.275 34.4268 120.491 34.4446 120.647 34.4659V37.5128C120.52 37.4773 120.292 37.4382 119.966 37.3956C119.639 37.3459 119.312 37.321 118.986 37.321C118.233 37.321 117.562 37.4808 116.972 37.8004C116.39 38.1129 115.928 38.5497 115.587 39.1108C115.246 39.6648 115.076 40.2969 115.076 41.0071V51H111.89ZM128.02 51.3622C126.983 51.3622 126.045 51.1705 125.207 50.7869C124.369 50.3963 123.705 49.8317 123.215 49.093C122.732 48.3544 122.491 47.4489 122.491 46.3764C122.491 45.4531 122.668 44.6932 123.023 44.0966C123.378 43.5 123.858 43.0277 124.461 42.6797C125.065 42.3317 125.74 42.0689 126.486 41.8913C127.231 41.7138 127.991 41.5788 128.765 41.4865C129.745 41.3729 130.541 41.2805 131.152 41.2095C131.763 41.1314 132.206 41.0071 132.483 40.8366C132.76 40.6662 132.899 40.3892 132.899 40.0057V39.9311C132.899 39.0007 132.636 38.2798 132.111 37.7685C131.592 37.2571 130.818 37.0014 129.788 37.0014C128.716 37.0014 127.87 37.2393 127.253 37.7152C126.642 38.1839 126.219 38.706 125.985 39.2812L122.991 38.5994C123.346 37.6051 123.865 36.8026 124.547 36.1918C125.236 35.5739 126.027 35.1264 126.922 34.8494C127.817 34.5653 128.758 34.4233 129.745 34.4233C130.399 34.4233 131.091 34.5014 131.823 34.6577C132.562 34.8068 133.25 35.0838 133.89 35.4886C134.536 35.8935 135.065 36.4723 135.477 37.2251C135.889 37.9709 136.095 38.9403 136.095 40.1335V51H132.984V48.7628H132.856C132.65 49.1747 132.341 49.5795 131.929 49.9773C131.517 50.375 130.988 50.7053 130.342 50.968C129.696 51.2308 128.922 51.3622 128.02 51.3622ZM128.712 48.8054C129.593 48.8054 130.346 48.6314 130.971 48.2834C131.603 47.9354 132.082 47.4808 132.409 46.9197C132.743 46.3516 132.91 45.7443 132.91 45.098V42.9886C132.796 43.1023 132.576 43.2088 132.249 43.3082C131.929 43.4006 131.564 43.4822 131.152 43.5533C130.74 43.6172 130.339 43.6776 129.948 43.7344C129.557 43.7841 129.231 43.8267 128.968 43.8622C128.35 43.9403 127.785 44.0717 127.274 44.2564C126.77 44.4411 126.365 44.7074 126.059 45.0554C125.761 45.3963 125.612 45.8509 125.612 46.419C125.612 47.2074 125.903 47.804 126.486 48.2088C127.068 48.6065 127.81 48.8054 128.712 48.8054ZM147.976 34.6364V37.1932H139.038V34.6364H147.976ZM141.435 30.7159H144.62V46.1953C144.62 46.8132 144.713 47.2784 144.897 47.5909C145.082 47.8963 145.32 48.1058 145.611 48.2195C145.909 48.326 146.233 48.3793 146.581 48.3793C146.836 48.3793 147.06 48.3615 147.252 48.326C147.443 48.2905 147.593 48.2621 147.699 48.2408L148.274 50.8722C148.09 50.9432 147.827 51.0142 147.486 51.0852C147.145 51.1634 146.719 51.206 146.208 51.2131C145.37 51.2273 144.588 51.0781 143.864 50.7656C143.139 50.4531 142.554 49.9702 142.106 49.3168C141.659 48.6634 141.435 47.843 141.435 46.8558V30.7159ZM158.377 51.3303C156.764 51.3303 155.376 50.9858 154.211 50.2969C153.053 49.6009 152.158 48.6243 151.526 47.3672C150.901 46.103 150.589 44.6222 150.589 42.9247C150.589 41.2486 150.901 39.7713 151.526 38.4929C152.158 37.2145 153.039 36.2166 154.168 35.4993C155.305 34.782 156.633 34.4233 158.153 34.4233C159.076 34.4233 159.971 34.576 160.837 34.8814C161.704 35.1868 162.482 35.6662 163.171 36.3196C163.859 36.973 164.403 37.8217 164.801 38.8658C165.198 39.9027 165.397 41.1634 165.397 42.6477V43.777H152.389V41.3906H162.276C162.276 40.5526 162.105 39.8104 161.764 39.1641C161.423 38.5107 160.944 37.9957 160.326 37.6193C159.715 37.2429 158.998 37.0547 158.174 37.0547C157.279 37.0547 156.498 37.2749 155.83 37.7152C155.17 38.1484 154.658 38.7166 154.296 39.4197C153.941 40.1158 153.764 40.8722 153.764 41.6889V43.5533C153.764 44.647 153.955 45.5774 154.339 46.3445C154.729 47.1115 155.273 47.6974 155.969 48.1023C156.665 48.5 157.478 48.6989 158.408 48.6989C159.012 48.6989 159.563 48.6136 160.06 48.4432C160.557 48.2656 160.987 48.0028 161.349 47.6548C161.711 47.3068 161.988 46.8771 162.18 46.3658L165.195 46.9091C164.953 47.7969 164.52 48.5746 163.895 49.2422C163.277 49.9027 162.499 50.4176 161.562 50.7869C160.631 51.1491 159.57 51.3303 158.377 51.3303ZM176.871 57.1364V34.6364H179.982V37.2891H180.248C180.433 36.9482 180.699 36.554 181.047 36.1065C181.395 35.6591 181.878 35.2685 182.496 34.9347C183.114 34.5938 183.93 34.4233 184.946 34.4233C186.267 34.4233 187.446 34.7571 188.483 35.4247C189.52 36.0923 190.333 37.0547 190.923 38.3118C191.519 39.5689 191.818 41.0817 191.818 42.8501C191.818 44.6186 191.523 46.1349 190.933 47.3991C190.344 48.6562 189.534 49.6257 188.504 50.3075C187.475 50.9822 186.299 51.3196 184.978 51.3196C183.984 51.3196 183.171 51.1527 182.538 50.8189C181.913 50.4851 181.423 50.0945 181.068 49.647C180.713 49.1996 180.44 48.8018 180.248 48.4538H180.056V57.1364H176.871ZM179.992 42.8182C179.992 43.9687 180.159 44.9773 180.493 45.8438C180.827 46.7102 181.31 47.3885 181.942 47.8786C182.574 48.3615 183.348 48.603 184.264 48.603C185.216 48.603 186.011 48.3509 186.651 47.8466C187.29 47.3352 187.773 46.6428 188.1 45.7692C188.433 44.8956 188.6 43.9119 188.6 42.8182C188.6 41.7386 188.437 40.7692 188.11 39.9098C187.791 39.0504 187.308 38.3722 186.661 37.875C186.022 37.3778 185.223 37.1293 184.264 37.1293C183.341 37.1293 182.56 37.3672 181.921 37.843C181.288 38.3189 180.809 38.983 180.482 39.8352C180.156 40.6875 179.992 41.6818 179.992 42.8182ZM200.149 51.3622C199.112 51.3622 198.174 51.1705 197.336 50.7869C196.498 50.3963 195.834 49.8317 195.344 49.093C194.861 48.3544 194.619 47.4489 194.619 46.3764C194.619 45.4531 194.797 44.6932 195.152 44.0966C195.507 43.5 195.987 43.0277 196.59 42.6797C197.194 42.3317 197.869 42.0689 198.614 41.8913C199.36 41.7138 200.12 41.5788 200.894 41.4865C201.874 41.3729 202.67 41.2805 203.281 41.2095C203.891 41.1314 204.335 41.0071 204.612 40.8366C204.889 40.6662 205.028 40.3892 205.028 40.0057V39.9311C205.028 39.0007 204.765 38.2798 204.239 37.7685C203.721 37.2571 202.947 37.0014 201.917 37.0014C200.845 37.0014 199.999 37.2393 199.381 37.7152C198.771 38.1839 198.348 38.706 198.114 39.2812L195.12 38.5994C195.475 37.6051 195.994 36.8026 196.676 36.1918C197.364 35.5739 198.156 35.1264 199.051 34.8494C199.946 34.5653 200.887 34.4233 201.874 34.4233C202.528 34.4233 203.22 34.5014 203.952 34.6577C204.69 34.8068 205.379 35.0838 206.019 35.4886C206.665 35.8935 207.194 36.4723 207.606 37.2251C208.018 37.9709 208.224 38.9403 208.224 40.1335V51H205.113V48.7628H204.985C204.779 49.1747 204.47 49.5795 204.058 49.9773C203.646 50.375 203.117 50.7053 202.471 50.968C201.825 51.2308 201.051 51.3622 200.149 51.3622ZM200.841 48.8054C201.722 48.8054 202.475 48.6314 203.1 48.2834C203.732 47.9354 204.211 47.4808 204.538 46.9197C204.872 46.3516 205.038 45.7443 205.038 45.098V42.9886C204.925 43.1023 204.705 43.2088 204.378 43.3082C204.058 43.4006 203.693 43.4822 203.281 43.5533C202.869 43.6172 202.467 43.6776 202.077 43.7344C201.686 43.7841 201.359 43.8267 201.097 43.8622C200.479 43.9403 199.914 44.0717 199.403 44.2564C198.899 44.4411 198.494 44.7074 198.188 45.0554C197.89 45.3963 197.741 45.8509 197.741 46.419C197.741 47.2074 198.032 47.804 198.614 48.2088C199.197 48.6065 199.939 48.8054 200.841 48.8054ZM212.467 51V34.6364H215.545V37.2358H215.716C216.014 36.3551 216.54 35.6626 217.293 35.1584C218.052 34.647 218.912 34.3913 219.871 34.3913C220.07 34.3913 220.304 34.3984 220.574 34.4126C220.851 34.4268 221.067 34.4446 221.224 34.4659V37.5128C221.096 37.4773 220.869 37.4382 220.542 37.3956C220.215 37.3459 219.888 37.321 219.562 37.321C218.809 37.321 218.138 37.4808 217.548 37.8004C216.966 38.1129 216.504 38.5497 216.163 39.1108C215.822 39.6648 215.652 40.2969 215.652 41.0071V51H212.467ZM232.585 34.6364V37.1932H223.647V34.6364H232.585ZM226.044 30.7159H229.23V46.1953C229.23 46.8132 229.322 47.2784 229.507 47.5909C229.691 47.8963 229.929 48.1058 230.22 48.2195C230.519 48.326 230.842 48.3793 231.19 48.3793C231.446 48.3793 231.669 48.3615 231.861 48.326C232.053 48.2905 232.202 48.2621 232.309 48.2408L232.884 50.8722C232.699 50.9432 232.436 51.0142 232.095 51.0852C231.755 51.1634 231.328 51.206 230.817 51.2131C229.979 51.2273 229.198 51.0781 228.473 50.7656C227.749 50.4531 227.163 49.9702 226.715 49.3168C226.268 48.6634 226.044 47.843 226.044 46.8558V30.7159ZM236.109 51V34.6364H239.294V51H236.109ZM237.718 32.1115C237.164 32.1115 236.688 31.9268 236.29 31.5575C235.9 31.1811 235.704 30.7337 235.704 30.2152C235.704 29.6896 235.9 29.2422 236.29 28.8729C236.688 28.4964 237.164 28.3082 237.718 28.3082C238.272 28.3082 238.744 28.4964 239.135 28.8729C239.532 29.2422 239.731 29.6896 239.731 30.2152C239.731 30.7337 239.532 31.1811 239.135 31.5575C238.744 31.9268 238.272 32.1115 237.718 32.1115ZM250.632 51.3303C249.02 51.3303 247.632 50.9858 246.467 50.2969C245.309 49.6009 244.414 48.6243 243.782 47.3672C243.157 46.103 242.845 44.6222 242.845 42.9247C242.845 41.2486 243.157 39.7713 243.782 38.4929C244.414 37.2145 245.295 36.2166 246.424 35.4993C247.561 34.782 248.889 34.4233 250.409 34.4233C251.332 34.4233 252.227 34.576 253.093 34.8814C253.96 35.1868 254.737 35.6662 255.426 36.3196C256.115 36.973 256.659 37.8217 257.056 38.8658C257.454 39.9027 257.653 41.1634 257.653 42.6477V43.777H244.645V41.3906H254.532C254.532 40.5526 254.361 39.8104 254.02 39.1641C253.679 38.5107 253.2 37.9957 252.582 37.6193C251.971 37.2429 251.254 37.0547 250.43 37.0547C249.535 37.0547 248.754 37.2749 248.086 37.7152C247.426 38.1484 246.914 38.7166 246.552 39.4197C246.197 40.1158 246.019 40.8722 246.019 41.6889V43.5533C246.019 44.647 246.211 45.5774 246.595 46.3445C246.985 47.1115 247.529 47.6974 248.225 48.1023C248.921 48.5 249.734 48.6989 250.664 48.6989C251.268 48.6989 251.818 48.6136 252.316 48.4432C252.813 48.2656 253.242 48.0028 253.605 47.6548C253.967 47.3068 254.244 46.8771 254.436 46.3658L257.451 46.9091C257.209 47.7969 256.776 48.5746 256.151 49.2422C255.533 49.9027 254.755 50.4176 253.818 50.7869C252.887 51.1491 251.826 51.3303 250.632 51.3303ZM273.449 38.6314L270.562 39.1428C270.441 38.7734 270.25 38.4219 269.987 38.0881C269.731 37.7543 269.383 37.4808 268.943 37.2678C268.503 37.0547 267.952 36.9482 267.292 36.9482C266.39 36.9482 265.637 37.1506 265.033 37.5554C264.429 37.9531 264.128 38.468 264.128 39.1001C264.128 39.647 264.33 40.0874 264.735 40.4212C265.14 40.755 265.793 41.0284 266.695 41.2415L269.294 41.8381C270.8 42.1861 271.922 42.7223 272.661 43.4467C273.4 44.1712 273.769 45.1122 273.769 46.2699C273.769 47.25 273.485 48.1236 272.917 48.8906C272.356 49.6506 271.571 50.2472 270.562 50.6804C269.561 51.1136 268.4 51.3303 267.079 51.3303C265.246 51.3303 263.751 50.9396 262.593 50.1584C261.436 49.37 260.726 48.2514 260.463 46.8026L263.542 46.3338C263.733 47.1364 264.128 47.7436 264.724 48.1555C265.321 48.5604 266.098 48.7628 267.057 48.7628C268.101 48.7628 268.936 48.5462 269.561 48.1129C270.186 47.6726 270.498 47.1364 270.498 46.5043C270.498 45.9929 270.307 45.5632 269.923 45.2152C269.547 44.8672 268.968 44.6044 268.187 44.4268L265.417 43.8196C263.89 43.4716 262.76 42.9176 262.029 42.1577C261.304 41.3977 260.942 40.4354 260.942 39.2706C260.942 38.3047 261.212 37.4595 261.752 36.7351C262.292 36.0107 263.037 35.446 263.989 35.0412C264.941 34.6293 266.031 34.4233 267.26 34.4233C269.028 34.4233 270.42 34.8068 271.436 35.5739C272.451 36.3338 273.123 37.353 273.449 38.6314ZM281.415 48.017L281.256 49.1783C281.149 50.0305 280.968 50.9183 280.712 51.8416C280.464 52.772 280.204 53.6349 279.935 54.4304C279.672 55.2259 279.455 55.858 279.285 56.3267H277.026C277.119 55.8864 277.246 55.2898 277.41 54.5369C277.573 53.7912 277.733 52.9567 277.889 52.0334C278.045 51.1101 278.163 50.169 278.241 49.2102L278.347 48.017H281.415ZM300.394 51.3303C298.86 51.3303 297.522 50.9787 296.378 50.2756C295.235 49.5724 294.347 48.5888 293.715 47.3246C293.083 46.0604 292.767 44.5831 292.767 42.8928C292.767 41.1953 293.083 39.7109 293.715 38.4396C294.347 37.1683 295.235 36.1811 296.378 35.478C297.522 34.7749 298.86 34.4233 300.394 34.4233C301.929 34.4233 303.267 34.7749 304.411 35.478C305.554 36.1811 306.442 37.1683 307.074 38.4396C307.706 39.7109 308.022 41.1953 308.022 42.8928C308.022 44.5831 307.706 46.0604 307.074 47.3246C306.442 48.5888 305.554 49.5724 304.411 50.2756C303.267 50.9787 301.929 51.3303 300.394 51.3303ZM300.405 48.6562C301.399 48.6562 302.223 48.3935 302.877 47.8679C303.53 47.3423 304.013 46.6428 304.326 45.7692C304.645 44.8956 304.805 43.9332 304.805 42.8821C304.805 41.8381 304.645 40.8793 304.326 40.0057C304.013 39.125 303.53 38.4183 302.877 37.8857C302.223 37.353 301.399 37.0866 300.405 37.0866C299.404 37.0866 298.573 37.353 297.912 37.8857C297.259 38.4183 296.772 39.125 296.453 40.0057C296.14 40.8793 295.984 41.8381 295.984 42.8821C295.984 43.9332 296.14 44.8956 296.453 45.7692C296.772 46.6428 297.259 47.3423 297.912 47.8679C298.573 48.3935 299.404 48.6562 300.405 48.6562ZM319.366 34.6364V37.1932H310.118V34.6364H319.366ZM312.654 51V32.7401C312.654 31.7173 312.878 30.8686 313.325 30.1939C313.772 29.5121 314.366 29.0043 315.104 28.6705C315.843 28.3295 316.645 28.1591 317.512 28.1591C318.151 28.1591 318.698 28.2124 319.152 28.3189C319.607 28.4183 319.944 28.5107 320.165 28.5959L319.419 31.174C319.27 31.1314 319.078 31.0817 318.843 31.0249C318.609 30.9609 318.325 30.929 317.991 30.929C317.217 30.929 316.663 31.1207 316.329 31.5043C316.003 31.8878 315.839 32.4418 315.839 33.1662V51H312.654ZM330.44 34.6364V37.1932H321.193V34.6364H330.44ZM323.728 51V32.7401C323.728 31.7173 323.952 30.8686 324.399 30.1939C324.847 29.5121 325.44 29.0043 326.178 28.6705C326.917 28.3295 327.72 28.1591 328.586 28.1591C329.225 28.1591 329.772 28.2124 330.227 28.3189C330.681 28.4183 331.019 28.5107 331.239 28.5959L330.493 31.174C330.344 31.1314 330.152 31.0817 329.918 31.0249C329.683 30.9609 329.399 30.929 329.065 30.929C328.291 30.929 327.737 31.1207 327.403 31.5043C327.077 31.8878 326.913 32.4418 326.913 33.1662V51H323.728ZM345.373 38.6314L342.486 39.1428C342.365 38.7734 342.174 38.4219 341.911 38.0881C341.655 37.7543 341.307 37.4808 340.867 37.2678C340.426 37.0547 339.876 36.9482 339.215 36.9482C338.313 36.9482 337.561 37.1506 336.957 37.5554C336.353 37.9531 336.051 38.468 336.051 39.1001C336.051 39.647 336.254 40.0874 336.659 40.4212C337.063 40.755 337.717 41.0284 338.619 41.2415L341.218 41.8381C342.724 42.1861 343.846 42.7223 344.585 43.4467C345.323 44.1712 345.693 45.1122 345.693 46.2699C345.693 47.25 345.409 48.1236 344.84 48.8906C344.279 49.6506 343.495 50.2472 342.486 50.6804C341.485 51.1136 340.323 51.3303 339.002 51.3303C337.17 51.3303 335.675 50.9396 334.517 50.1584C333.36 49.37 332.649 48.2514 332.387 46.8026L335.465 46.3338C335.657 47.1364 336.051 47.7436 336.648 48.1555C337.245 48.5604 338.022 48.7628 338.981 48.7628C340.025 48.7628 340.86 48.5462 341.485 48.1129C342.11 47.6726 342.422 47.1364 342.422 46.5043C342.422 45.9929 342.23 45.5632 341.847 45.2152C341.47 44.8672 340.892 44.6044 340.11 44.4268L337.34 43.8196C335.813 43.4716 334.684 42.9176 333.953 42.1577C333.228 41.3977 332.866 40.4354 332.866 39.2706C332.866 38.3047 333.136 37.4595 333.676 36.7351C334.215 36.0107 334.961 35.446 335.913 35.0412C336.865 34.6293 337.955 34.4233 339.184 34.4233C340.952 34.4233 342.344 34.8068 343.36 35.5739C344.375 36.3338 345.046 37.353 345.373 38.6314ZM349.195 51V34.6364H352.38V51H349.195ZM350.804 32.1115C350.25 32.1115 349.774 31.9268 349.376 31.5575C348.986 31.1811 348.79 30.7337 348.79 30.2152C348.79 29.6896 348.986 29.2422 349.376 28.8729C349.774 28.4964 350.25 28.3082 350.804 28.3082C351.358 28.3082 351.83 28.4964 352.221 28.8729C352.618 29.2422 352.817 29.6896 352.817 30.2152C352.817 30.7337 352.618 31.1811 352.221 31.5575C351.83 31.9268 351.358 32.1115 350.804 32.1115ZM364.304 34.6364V37.1932H355.366V34.6364H364.304ZM357.763 30.7159H360.948V46.1953C360.948 46.8132 361.041 47.2784 361.225 47.5909C361.41 47.8963 361.648 48.1058 361.939 48.2195C362.237 48.326 362.561 48.3793 362.909 48.3793C363.164 48.3793 363.388 48.3615 363.58 48.326C363.772 48.2905 363.921 48.2621 364.027 48.2408L364.603 50.8722C364.418 50.9432 364.155 51.0142 363.814 51.0852C363.473 51.1634 363.047 51.206 362.536 51.2131C361.698 51.2273 360.916 51.0781 360.192 50.7656C359.468 50.4531 358.882 49.9702 358.434 49.3168C357.987 48.6634 357.763 47.843 357.763 46.8558V30.7159ZM374.705 51.3303C373.092 51.3303 371.704 50.9858 370.539 50.2969C369.381 49.6009 368.487 48.6243 367.854 47.3672C367.229 46.103 366.917 44.6222 366.917 42.9247C366.917 41.2486 367.229 39.7713 367.854 38.4929C368.487 37.2145 369.367 36.2166 370.497 35.4993C371.633 34.782 372.961 34.4233 374.481 34.4233C375.404 34.4233 376.299 34.576 377.166 34.8814C378.032 35.1868 378.81 35.6662 379.499 36.3196C380.188 36.973 380.731 37.8217 381.129 38.8658C381.526 39.9027 381.725 41.1634 381.725 42.6477V43.777H368.717V41.3906H378.604C378.604 40.5526 378.433 39.8104 378.092 39.1641C377.752 38.5107 377.272 37.9957 376.654 37.6193C376.043 37.2429 375.326 37.0547 374.502 37.0547C373.607 37.0547 372.826 37.2749 372.158 37.7152C371.498 38.1484 370.987 38.7166 370.624 39.4197C370.269 40.1158 370.092 40.8722 370.092 41.6889V43.5533C370.092 44.647 370.283 45.5774 370.667 46.3445C371.058 47.1115 371.601 47.6974 372.297 48.1023C372.993 48.5 373.806 48.6989 374.737 48.6989C375.34 48.6989 375.891 48.6136 376.388 48.4432C376.885 48.2656 377.315 48.0028 377.677 47.6548C378.039 47.3068 378.316 46.8771 378.508 46.3658L381.523 46.9091C381.281 47.7969 380.848 48.5746 380.223 49.2422C379.605 49.9027 378.828 50.4176 377.89 50.7869C376.96 51.1491 375.898 51.3303 374.705 51.3303ZM397.522 38.6314L394.634 39.1428C394.514 38.7734 394.322 38.4219 394.059 38.0881C393.804 37.7543 393.456 37.4808 393.015 37.2678C392.575 37.0547 392.024 36.9482 391.364 36.9482C390.462 36.9482 389.709 37.1506 389.105 37.5554C388.502 37.9531 388.2 38.468 388.2 39.1001C388.2 39.647 388.402 40.0874 388.807 40.4212C389.212 40.755 389.865 41.0284 390.767 41.2415L393.367 41.8381C394.872 42.1861 395.995 42.7223 396.733 43.4467C397.472 44.1712 397.841 45.1122 397.841 46.2699C397.841 47.25 397.557 48.1236 396.989 48.8906C396.428 49.6506 395.643 50.2472 394.634 50.6804C393.633 51.1136 392.472 51.3303 391.151 51.3303C389.318 51.3303 387.823 50.9396 386.666 50.1584C385.508 49.37 384.798 48.2514 384.535 46.8026L387.614 46.3338C387.806 47.1364 388.2 47.7436 388.796 48.1555C389.393 48.5604 390.171 48.7628 391.13 48.7628C392.174 48.7628 393.008 48.5462 393.633 48.1129C394.258 47.6726 394.571 47.1364 394.571 46.5043C394.571 45.9929 394.379 45.5632 393.995 45.2152C393.619 44.8672 393.04 44.6044 392.259 44.4268L389.489 43.8196C387.962 43.4716 386.833 42.9176 386.101 42.1577C385.377 41.3977 385.014 40.4354 385.014 39.2706C385.014 38.3047 385.284 37.4595 385.824 36.7351C386.364 36.0107 387.11 35.446 388.061 35.0412C389.013 34.6293 390.103 34.4233 391.332 34.4233C393.1 34.4233 394.492 34.8068 395.508 35.5739C396.524 36.3338 397.195 37.353 397.522 38.6314ZM405.488 48.017L405.328 49.1783C405.221 50.0305 405.04 50.9183 404.785 51.8416C404.536 52.772 404.277 53.6349 404.007 54.4304C403.744 55.2259 403.527 55.858 403.357 56.3267H401.098C401.191 55.8864 401.319 55.2898 401.482 54.5369C401.645 53.7912 401.805 52.9567 401.961 52.0334C402.118 51.1101 402.235 50.169 402.313 49.2102L402.419 48.017H405.488ZM101.711 87.3622C100.674 87.3622 99.7366 87.1705 98.8985 86.7869C98.0605 86.3963 97.3964 85.8317 96.9063 85.093C96.4234 84.3544 96.1819 83.4489 96.1819 82.3764C96.1819 81.4531 96.3595 80.6932 96.7146 80.0966C97.0697 79.5 97.5491 79.0277 98.1528 78.6797C98.7565 78.3317 99.4312 78.0689 100.177 77.8913C100.923 77.7138 101.683 77.5788 102.457 77.4865C103.437 77.3729 104.232 77.2805 104.843 77.2095C105.454 77.1314 105.898 77.0071 106.175 76.8366C106.452 76.6662 106.59 76.3892 106.59 76.0057V75.9311C106.59 75.0007 106.328 74.2798 105.802 73.7685C105.283 73.2571 104.509 73.0014 103.479 73.0014C102.407 73.0014 101.562 73.2393 100.944 73.7152C100.333 74.1839 99.9106 74.706 99.6762 75.2812L96.6826 74.5994C97.0377 73.6051 97.5562 72.8026 98.238 72.1918C98.9269 71.5739 99.7188 71.1264 100.614 70.8494C101.509 70.5653 102.45 70.4233 103.437 70.4233C104.09 70.4233 104.783 70.5014 105.514 70.6577C106.253 70.8068 106.942 71.0838 107.581 71.4886C108.227 71.8935 108.756 72.4723 109.168 73.2251C109.58 73.9709 109.786 74.9403 109.786 76.1335V87H106.676V84.7628H106.548C106.342 85.1747 106.033 85.5795 105.621 85.9773C105.209 86.375 104.68 86.7053 104.033 86.968C103.387 87.2308 102.613 87.3622 101.711 87.3622ZM102.403 84.8054C103.284 84.8054 104.037 84.6314 104.662 84.2834C105.294 83.9354 105.774 83.4808 106.1 82.9197C106.434 82.3516 106.601 81.7443 106.601 81.098V78.9886C106.487 79.1023 106.267 79.2088 105.94 79.3082C105.621 79.4006 105.255 79.4822 104.843 79.5533C104.431 79.6172 104.03 79.6776 103.639 79.7344C103.249 79.7841 102.922 79.8267 102.659 79.8622C102.041 79.9403 101.477 80.0717 100.965 80.2564C100.461 80.4411 100.056 80.7074 99.7508 81.0554C99.4525 81.3963 99.3034 81.8509 99.3034 82.419C99.3034 83.2074 99.5945 83.804 100.177 84.2088C100.759 84.6065 101.502 84.8054 102.403 84.8054ZM117.214 77.2841V87H114.029V70.6364H117.087V73.2997H117.289C117.665 72.4332 118.255 71.7372 119.057 71.2116C119.867 70.6861 120.886 70.4233 122.115 70.4233C123.23 70.4233 124.207 70.6577 125.045 71.1264C125.883 71.5881 126.533 72.277 126.994 73.1932C127.456 74.1094 127.687 75.2422 127.687 76.5916V87H124.501V76.9751C124.501 75.7891 124.192 74.8622 123.574 74.1946C122.957 73.5199 122.108 73.1825 121.028 73.1825C120.29 73.1825 119.633 73.3423 119.057 73.6619C118.489 73.9815 118.038 74.4503 117.704 75.0682C117.378 75.679 117.214 76.4176 117.214 77.2841ZM138.084 87.3196C136.763 87.3196 135.584 86.9822 134.547 86.3075C133.518 85.6257 132.708 84.6562 132.119 83.3991C131.536 82.1349 131.245 80.6186 131.245 78.8501C131.245 77.0817 131.54 75.5689 132.129 74.3118C132.726 73.0547 133.543 72.0923 134.579 71.4247C135.616 70.7571 136.792 70.4233 138.106 70.4233C139.121 70.4233 139.938 70.5938 140.556 70.9347C141.181 71.2685 141.664 71.6591 142.005 72.1065C142.353 72.554 142.623 72.9482 142.815 73.2891H143.006V65.1818H146.192V87H143.081V84.4538H142.815C142.623 84.8018 142.346 85.1996 141.984 85.647C141.628 86.0945 141.138 86.4851 140.513 86.8189C139.888 87.1527 139.079 87.3196 138.084 87.3196ZM138.788 84.603C139.704 84.603 140.478 84.3615 141.11 83.8786C141.749 83.3885 142.232 82.7102 142.559 81.8438C142.893 80.9773 143.06 79.9687 143.06 78.8182C143.06 77.6818 142.896 76.6875 142.57 75.8352C142.243 74.983 141.763 74.3189 141.131 73.843C140.499 73.3672 139.718 73.1293 138.788 73.1293C137.829 73.1293 137.03 73.3778 136.391 73.875C135.751 74.3722 135.268 75.0504 134.942 75.9098C134.622 76.7692 134.462 77.7386 134.462 78.8182C134.462 79.9119 134.626 80.8956 134.952 81.7692C135.279 82.6428 135.762 83.3352 136.401 83.8466C137.047 84.3509 137.843 84.603 138.788 84.603ZM165.57 87.3303C163.986 87.3303 162.623 86.9716 161.479 86.2543C160.343 85.5298 159.469 84.532 158.859 83.2607C158.248 81.9893 157.942 80.5334 157.942 78.8928C157.942 77.2308 158.255 75.7642 158.88 74.4929C159.505 73.2145 160.386 72.2166 161.522 71.4993C162.658 70.782 163.997 70.4233 165.538 70.4233C166.781 70.4233 167.889 70.6541 168.862 71.1158C169.835 71.5703 170.62 72.2095 171.217 73.0334C171.82 73.8572 172.179 74.8196 172.293 75.9205H169.192C169.022 75.1534 168.631 74.4929 168.021 73.9389C167.417 73.3849 166.607 73.108 165.592 73.108C164.704 73.108 163.926 73.3423 163.258 73.8111C162.598 74.2727 162.083 74.9332 161.714 75.7926C161.344 76.6449 161.16 77.6534 161.16 78.8182C161.16 80.0114 161.341 81.0412 161.703 81.9077C162.065 82.7741 162.577 83.4453 163.237 83.9212C163.905 84.397 164.69 84.6349 165.592 84.6349C166.195 84.6349 166.742 84.5249 167.232 84.3047C167.729 84.0774 168.145 83.7543 168.479 83.3352C168.82 82.9162 169.057 82.4119 169.192 81.8224H172.293C172.179 82.8807 171.834 83.8253 171.259 84.6562C170.684 85.4872 169.913 86.1406 168.947 86.6165C167.989 87.0923 166.863 87.3303 165.57 87.3303ZM182.752 87.3303C181.139 87.3303 179.751 86.9858 178.586 86.2969C177.428 85.6009 176.533 84.6243 175.901 83.3672C175.276 82.103 174.964 80.6222 174.964 78.9247C174.964 77.2486 175.276 75.7713 175.901 74.4929C176.533 73.2145 177.414 72.2166 178.543 71.4993C179.68 70.782 181.008 70.4233 182.528 70.4233C183.451 70.4233 184.346 70.576 185.212 70.8814C186.079 71.1868 186.857 71.6662 187.546 72.3196C188.234 72.973 188.778 73.8217 189.176 74.8658C189.573 75.9027 189.772 77.1634 189.772 78.6477V79.777H176.764V77.3906H186.651C186.651 76.5526 186.48 75.8104 186.139 75.1641C185.798 74.5107 185.319 73.9957 184.701 73.6193C184.09 73.2429 183.373 73.0547 182.549 73.0547C181.654 73.0547 180.873 73.2749 180.205 73.7152C179.545 74.1484 179.033 74.7166 178.671 75.4197C178.316 76.1158 178.139 76.8722 178.139 77.6889V79.5533C178.139 80.647 178.33 81.5774 178.714 82.3445C179.104 83.1115 179.648 83.6974 180.344 84.1023C181.04 84.5 181.853 84.6989 182.783 84.6989C183.387 84.6989 183.938 84.6136 184.435 84.4432C184.932 84.2656 185.362 84.0028 185.724 83.6548C186.086 83.3068 186.363 82.8771 186.555 82.3658L189.57 82.9091C189.328 83.7969 188.895 84.5746 188.27 85.2422C187.652 85.9027 186.874 86.4176 185.937 86.7869C185.006 87.1491 183.945 87.3303 182.752 87.3303ZM196.492 65.1818V87H193.306V65.1818H196.492ZM207.83 87.3303C206.217 87.3303 204.829 86.9858 203.664 86.2969C202.506 85.6009 201.612 84.6243 200.979 83.3672C200.354 82.103 200.042 80.6222 200.042 78.9247C200.042 77.2486 200.354 75.7713 200.979 74.4929C201.612 73.2145 202.492 72.2166 203.622 71.4993C204.758 70.782 206.086 70.4233 207.606 70.4233C208.529 70.4233 209.424 70.576 210.291 70.8814C211.157 71.1868 211.935 71.6662 212.624 72.3196C213.313 72.973 213.856 73.8217 214.254 74.8658C214.651 75.9027 214.85 77.1634 214.85 78.6477V79.777H201.842V77.3906H211.729C211.729 76.5526 211.558 75.8104 211.217 75.1641C210.877 74.5107 210.397 73.9957 209.779 73.6193C209.168 73.2429 208.451 73.0547 207.627 73.0547C206.732 73.0547 205.951 73.2749 205.283 73.7152C204.623 74.1484 204.112 74.7166 203.749 75.4197C203.394 76.1158 203.217 76.8722 203.217 77.6889V79.5533C203.217 80.647 203.408 81.5774 203.792 82.3445C204.183 83.1115 204.726 83.6974 205.422 84.1023C206.118 84.5 206.931 84.6989 207.862 84.6989C208.465 84.6989 209.016 84.6136 209.513 84.4432C210.01 84.2656 210.44 84.0028 210.802 83.6548C211.164 83.3068 211.441 82.8771 211.633 82.3658L214.648 82.9091C214.406 83.7969 213.973 84.5746 213.348 85.2422C212.73 85.9027 211.953 86.4176 211.015 86.7869C210.085 87.1491 209.023 87.3303 207.83 87.3303ZM218.64 87V65.1818H221.826V73.2891H222.017C222.202 72.9482 222.468 72.554 222.816 72.1065C223.164 71.6591 223.647 71.2685 224.265 70.9347C224.883 70.5938 225.7 70.4233 226.715 70.4233C228.036 70.4233 229.215 70.7571 230.252 71.4247C231.289 72.0923 232.103 73.0547 232.692 74.3118C233.289 75.5689 233.587 77.0817 233.587 78.8501C233.587 80.6186 233.292 82.1349 232.703 83.3991C232.113 84.6562 231.304 85.6257 230.274 86.3075C229.244 86.9822 228.068 87.3196 226.747 87.3196C225.753 87.3196 224.94 87.1527 224.308 86.8189C223.683 86.4851 223.193 86.0945 222.838 85.647C222.483 85.1996 222.209 84.8018 222.017 84.4538H221.751V87H218.64ZM221.762 78.8182C221.762 79.9687 221.929 80.9773 222.262 81.8438C222.596 82.7102 223.079 83.3885 223.711 83.8786C224.343 84.3615 225.117 84.603 226.034 84.603C226.985 84.603 227.781 84.3509 228.42 83.8466C229.059 83.3352 229.542 82.6428 229.869 81.7692C230.203 80.8956 230.37 79.9119 230.37 78.8182C230.37 77.7386 230.206 76.7692 229.88 75.9098C229.56 75.0504 229.077 74.3722 228.431 73.875C227.791 73.3778 226.992 73.1293 226.034 73.1293C225.11 73.1293 224.329 73.3672 223.69 73.843C223.058 74.3189 222.578 74.983 222.252 75.8352C221.925 76.6875 221.762 77.6818 221.762 78.8182ZM237.164 87V70.6364H240.243V73.2358H240.413C240.711 72.3551 241.237 71.6626 241.99 71.1584C242.75 70.647 243.609 70.3913 244.568 70.3913C244.767 70.3913 245.001 70.3984 245.271 70.4126C245.548 70.4268 245.765 70.4446 245.921 70.4659V73.5128C245.793 73.4773 245.566 73.4382 245.239 73.3956C244.912 73.3459 244.586 73.321 244.259 73.321C243.506 73.321 242.835 73.4808 242.245 73.8004C241.663 74.1129 241.201 74.5497 240.861 75.1108C240.52 75.6648 240.349 76.2969 240.349 77.0071V87H237.164ZM253.293 87.3622C252.256 87.3622 251.319 87.1705 250.481 86.7869C249.642 86.3963 248.978 85.8317 248.488 85.093C248.005 84.3544 247.764 83.4489 247.764 82.3764C247.764 81.4531 247.941 80.6932 248.297 80.0966C248.652 79.5 249.131 79.0277 249.735 78.6797C250.339 78.3317 251.013 78.0689 251.759 77.8913C252.505 77.7138 253.265 77.5788 254.039 77.4865C255.019 77.3729 255.814 77.2805 256.425 77.2095C257.036 77.1314 257.48 77.0071 257.757 76.8366C258.034 76.6662 258.172 76.3892 258.172 76.0057V75.9311C258.172 75.0007 257.91 74.2798 257.384 73.7685C256.866 73.2571 256.091 73.0014 255.062 73.0014C253.989 73.0014 253.144 73.2393 252.526 73.7152C251.915 74.1839 251.493 74.706 251.258 75.2812L248.265 74.5994C248.62 73.6051 249.138 72.8026 249.82 72.1918C250.509 71.5739 251.301 71.1264 252.196 70.8494C253.091 70.5653 254.032 70.4233 255.019 70.4233C255.672 70.4233 256.365 70.5014 257.096 70.6577C257.835 70.8068 258.524 71.0838 259.163 71.4886C259.809 71.8935 260.339 72.4723 260.75 73.2251C261.162 73.9709 261.368 74.9403 261.368 76.1335V87H258.258V84.7628H258.13C257.924 85.1747 257.615 85.5795 257.203 85.9773C256.791 86.375 256.262 86.7053 255.616 86.968C254.969 87.2308 254.195 87.3622 253.293 87.3622ZM253.986 84.8054C254.866 84.8054 255.619 84.6314 256.244 84.2834C256.876 83.9354 257.356 83.4808 257.682 82.9197C258.016 82.3516 258.183 81.7443 258.183 81.098V78.9886C258.069 79.1023 257.849 79.2088 257.522 79.3082C257.203 79.4006 256.837 79.4822 256.425 79.5533C256.013 79.6172 255.612 79.6776 255.221 79.7344C254.831 79.7841 254.504 79.8267 254.241 79.8622C253.623 79.9403 253.059 80.0717 252.547 80.2564C252.043 80.4411 251.638 80.7074 251.333 81.0554C251.035 81.3963 250.885 81.8509 250.885 82.419C250.885 83.2074 251.177 83.804 251.759 84.2088C252.341 84.6065 253.084 84.8054 253.986 84.8054ZM273.25 70.6364V73.1932H264.311V70.6364H273.25ZM266.708 66.7159H269.894V82.1953C269.894 82.8132 269.986 83.2784 270.171 83.5909C270.355 83.8963 270.593 84.1058 270.884 84.2195C271.183 84.326 271.506 84.3793 271.854 84.3793C272.11 84.3793 272.333 84.3615 272.525 84.326C272.717 84.2905 272.866 84.2621 272.973 84.2408L273.548 86.8722C273.363 86.9432 273.1 87.0142 272.759 87.0852C272.419 87.1634 271.992 87.206 271.481 87.2131C270.643 87.2273 269.862 87.0781 269.137 86.7656C268.413 86.4531 267.827 85.9702 267.38 85.3168C266.932 84.6634 266.708 83.843 266.708 82.8558V66.7159ZM276.773 87V70.6364H279.959V87H276.773ZM278.382 68.1115C277.828 68.1115 277.352 67.9268 276.954 67.5575C276.564 67.1811 276.368 66.7337 276.368 66.2152C276.368 65.6896 276.564 65.2422 276.954 64.8729C277.352 64.4964 277.828 64.3082 278.382 64.3082C278.936 64.3082 279.408 64.4964 279.799 64.8729C280.196 65.2422 280.395 65.6896 280.395 66.2152C280.395 66.7337 280.196 67.1811 279.799 67.5575C279.408 67.9268 278.936 68.1115 278.382 68.1115ZM291.137 87.3303C289.603 87.3303 288.264 86.9787 287.12 86.2756C285.977 85.5724 285.089 84.5888 284.457 83.3246C283.825 82.0604 283.509 80.5831 283.509 78.8928C283.509 77.1953 283.825 75.7109 284.457 74.4396C285.089 73.1683 285.977 72.1811 287.12 71.478C288.264 70.7749 289.603 70.4233 291.137 70.4233C292.671 70.4233 294.009 70.7749 295.153 71.478C296.296 72.1811 297.184 73.1683 297.816 74.4396C298.448 75.7109 298.764 77.1953 298.764 78.8928C298.764 80.5831 298.448 82.0604 297.816 83.3246C297.184 84.5888 296.296 85.5724 295.153 86.2756C294.009 86.9787 292.671 87.3303 291.137 87.3303ZM291.147 84.6562C292.142 84.6562 292.965 84.3935 293.619 83.8679C294.272 83.3423 294.755 82.6428 295.068 81.7692C295.387 80.8956 295.547 79.9332 295.547 78.8821C295.547 77.8381 295.387 76.8793 295.068 76.0057C294.755 75.125 294.272 74.4183 293.619 73.8857C292.965 73.353 292.142 73.0866 291.147 73.0866C290.146 73.0866 289.315 73.353 288.654 73.8857C288.001 74.4183 287.514 75.125 287.195 76.0057C286.882 76.8793 286.726 77.8381 286.726 78.8821C286.726 79.9332 286.882 80.8956 287.195 81.7692C287.514 82.6428 288.001 83.3423 288.654 83.8679C289.315 84.3935 290.146 84.6562 291.147 84.6562ZM305.505 77.2841V87H302.32V70.6364H305.378V73.2997H305.58C305.956 72.4332 306.546 71.7372 307.348 71.2116C308.158 70.6861 309.177 70.4233 310.406 70.4233C311.521 70.4233 312.498 70.6577 313.336 71.1264C314.174 71.5881 314.824 72.277 315.285 73.1932C315.747 74.1094 315.978 75.2422 315.978 76.5916V87H312.792V76.9751C312.792 75.7891 312.483 74.8622 311.866 74.1946C311.248 73.5199 310.399 73.1825 309.319 73.1825C308.581 73.1825 307.924 73.3423 307.348 73.6619C306.78 73.9815 306.329 74.4503 305.995 75.0682C305.669 75.679 305.505 76.4176 305.505 77.2841ZM332.512 74.6314L329.625 75.1428C329.504 74.7734 329.312 74.4219 329.049 74.0881C328.794 73.7543 328.446 73.4808 328.005 73.2678C327.565 73.0547 327.015 72.9482 326.354 72.9482C325.452 72.9482 324.699 73.1506 324.096 73.5554C323.492 73.9531 323.19 74.468 323.19 75.1001C323.19 75.647 323.392 76.0874 323.797 76.4212C324.202 76.755 324.856 77.0284 325.758 77.2415L328.357 77.8381C329.863 78.1861 330.985 78.7223 331.723 79.4467C332.462 80.1712 332.831 81.1122 332.831 82.2699C332.831 83.25 332.547 84.1236 331.979 84.8906C331.418 85.6506 330.633 86.2472 329.625 86.6804C328.623 87.1136 327.462 87.3303 326.141 87.3303C324.309 87.3303 322.814 86.9396 321.656 86.1584C320.498 85.37 319.788 84.2514 319.525 82.8026L322.604 82.3338C322.796 83.1364 323.19 83.7436 323.787 84.1555C324.383 84.5604 325.161 84.7628 326.12 84.7628C327.164 84.7628 327.998 84.5462 328.623 84.1129C329.248 83.6726 329.561 83.1364 329.561 82.5043C329.561 81.9929 329.369 81.5632 328.986 81.2152C328.609 80.8672 328.03 80.6044 327.249 80.4268L324.479 79.8196C322.952 79.4716 321.823 78.9176 321.091 78.1577C320.367 77.3977 320.005 76.4354 320.005 75.2706C320.005 74.3047 320.275 73.4595 320.814 72.7351C321.354 72.0107 322.1 71.446 323.052 71.0412C324.003 70.6293 325.093 70.4233 326.322 70.4233C328.091 70.4233 329.483 70.8068 330.498 71.5739C331.514 72.3338 332.185 73.353 332.512 74.6314Z" fill="#5A0400"/>
</svg>
