<svg width="399" height="116" viewBox="0 0 399 116" fill="none" xmlns="http://www.w3.org/2000/svg">
<path d="M399 50C399 22.3858 376.614 0 349 0H50C22.3858 0 0 22.3858 0 50V66C0 93.6142 22.3858 116 50 116H399V50Z" fill="#F5D4CB" fill-opacity="0.76"/>
<path d="M46.2014 29.1818V51H43.1759L32.0857 34.9986H31.8833V51H28.5914V29.1818H31.6382L42.7391 45.2045H42.9415V29.1818H46.2014ZM50.7478 51V34.6364H53.9332V51H50.7478ZM52.3564 32.1115C51.8025 32.1115 51.3266 31.9268 50.9289 31.5575C50.5383 31.1811 50.343 30.7337 50.343 30.2152C50.343 29.6896 50.5383 29.2422 50.9289 28.8729C51.3266 28.4964 51.8025 28.3082 52.3564 28.3082C52.9104 28.3082 53.3827 28.4964 53.7733 28.8729C54.1711 29.2422 54.3699 29.6896 54.3699 30.2152C54.3699 30.7337 54.1711 31.1811 53.7733 31.5575C53.3827 31.9268 52.9104 32.1115 52.3564 32.1115ZM65.0793 57.4773C63.7796 57.4773 62.661 57.3068 61.7235 56.9659C60.7931 56.625 60.0331 56.174 59.4436 55.6129C58.8541 55.0518 58.4138 54.4375 58.1226 53.7699L60.8605 52.6406C61.0523 52.9531 61.308 53.2834 61.6276 53.6314C61.9543 53.9865 62.3946 54.2884 62.9486 54.5369C63.5097 54.7855 64.2306 54.9098 65.1112 54.9098C66.3186 54.9098 67.3165 54.6151 68.1048 54.0256C68.8932 53.4432 69.2874 52.5128 69.2874 51.2344V48.017H69.085C68.8932 48.3651 68.6162 48.7521 68.254 49.1783C67.8989 49.6044 67.4088 49.9737 66.7838 50.2862C66.1588 50.5987 65.3456 50.755 64.3442 50.755C63.0516 50.755 61.8868 50.4531 60.8499 49.8494C59.82 49.2386 59.0033 48.3402 58.3996 47.1541C57.803 45.9609 57.5047 44.4943 57.5047 42.7543C57.5047 41.0142 57.7994 39.5227 58.3889 38.2798C58.9855 37.0369 59.8023 36.0852 60.8392 35.4247C61.8762 34.7571 63.0516 34.4233 64.3655 34.4233C65.3811 34.4233 66.2014 34.5938 66.8264 34.9347C67.4514 35.2685 67.9379 35.6591 68.286 36.1065C68.6411 36.554 68.9145 36.9482 69.1063 37.2891H69.3406V34.6364H72.4621V51.3622C72.4621 52.7685 72.1354 53.9226 71.482 54.8246C70.8286 55.7266 69.9443 56.3942 68.8293 56.8274C67.7213 57.2607 66.4713 57.4773 65.0793 57.4773ZM65.0473 48.1129C65.9635 48.1129 66.7377 47.8999 67.3698 47.4737C68.009 47.0405 68.4919 46.4226 68.8186 45.62C69.1524 44.8104 69.3193 43.8409 69.3193 42.7116C69.3193 41.6108 69.156 40.6413 68.8293 39.8033C68.5026 38.9652 68.0232 38.3118 67.3911 37.843C66.759 37.3672 65.9777 37.1293 65.0473 37.1293C64.0885 37.1293 63.2895 37.3778 62.6503 37.875C62.0111 38.3651 61.5281 39.0327 61.2014 39.8778C60.8818 40.723 60.722 41.6676 60.722 42.7116C60.722 43.7841 60.8854 44.7251 61.2121 45.5348C61.5388 46.3445 62.0218 46.9766 62.661 47.4311C63.3073 47.8857 64.1027 48.1129 65.0473 48.1129ZM79.9195 41.2841V51H76.7341V29.1818H79.8769V37.2997H80.0793C80.4628 36.419 81.0487 35.7195 81.8371 35.201C82.6254 34.6825 83.6553 34.4233 84.9266 34.4233C86.0487 34.4233 87.0289 34.6541 87.8669 35.1158C88.7121 35.5774 89.3655 36.2663 89.8271 37.1825C90.2959 38.0916 90.5303 39.228 90.5303 40.5916V51H87.3449V40.9751C87.3449 39.7749 87.036 38.8445 86.4181 38.1839C85.8002 37.5163 84.9408 37.1825 83.8399 37.1825C83.0871 37.1825 82.4124 37.3423 81.8158 37.6619C81.2263 37.9815 80.7611 38.4503 80.4202 39.0682C80.0864 39.679 79.9195 40.4176 79.9195 41.2841ZM102.419 34.6364V37.1932H93.4813V34.6364H102.419ZM95.8783 30.7159H99.0637V46.1953C99.0637 46.8132 99.156 47.2784 99.3406 47.5909C99.5253 47.8963 99.7632 48.1058 100.054 48.2195C100.353 48.326 100.676 48.3793 101.024 48.3793C101.28 48.3793 101.503 48.3615 101.695 48.326C101.887 48.2905 102.036 48.2621 102.142 48.2408L102.718 50.8722C102.533 50.9432 102.27 51.0142 101.929 51.0852C101.589 51.1634 101.162 51.206 100.651 51.2131C99.8129 51.2273 99.0317 51.0781 98.3073 50.7656C97.5828 50.4531 96.9969 49.9702 96.5494 49.3168C96.102 48.6634 95.8783 47.843 95.8783 46.8558V30.7159ZM109.48 29.1818V51H106.295V29.1818H109.48ZM113.765 51V34.6364H116.951V51H113.765ZM115.374 32.1115C114.82 32.1115 114.344 31.9268 113.946 31.5575C113.556 31.1811 113.361 30.7337 113.361 30.2152C113.361 29.6896 113.556 29.2422 113.946 28.8729C114.344 28.4964 114.82 28.3082 115.374 28.3082C115.928 28.3082 116.4 28.4964 116.791 28.8729C117.189 29.2422 117.388 29.6896 117.388 30.2152C117.388 30.7337 117.189 31.1811 116.791 31.5575C116.4 31.9268 115.928 32.1115 115.374 32.1115ZM129.024 34.6364V37.1932H119.777V34.6364H129.024ZM122.312 51V32.7401C122.312 31.7173 122.536 30.8686 122.983 30.1939C123.431 29.5121 124.024 29.0043 124.762 28.6705C125.501 28.3295 126.304 28.1591 127.17 28.1591C127.809 28.1591 128.356 28.2124 128.811 28.3189C129.265 28.4183 129.603 28.5107 129.823 28.5959L129.077 31.174C128.928 31.1314 128.736 31.0817 128.502 31.0249C128.267 30.9609 127.983 30.929 127.649 30.929C126.875 30.929 126.321 31.1207 125.987 31.5043C125.661 31.8878 125.497 32.4418 125.497 33.1662V51H122.312ZM138.718 51.3303C137.106 51.3303 135.718 50.9858 134.553 50.2969C133.395 49.6009 132.5 48.6243 131.868 47.3672C131.243 46.103 130.931 44.6222 130.931 42.9247C130.931 41.2486 131.243 39.7713 131.868 38.4929C132.5 37.2145 133.381 36.2166 134.51 35.4993C135.647 34.782 136.975 34.4233 138.495 34.4233C139.418 34.4233 140.313 34.576 141.179 34.8814C142.046 35.1868 142.823 35.6662 143.512 36.3196C144.201 36.973 144.745 37.8217 145.142 38.8658C145.54 39.9027 145.739 41.1634 145.739 42.6477V43.777H132.731V41.3906H142.617C142.617 40.5526 142.447 39.8104 142.106 39.1641C141.765 38.5107 141.286 37.9957 140.668 37.6193C140.057 37.2429 139.34 37.0547 138.516 37.0547C137.621 37.0547 136.84 37.2749 136.172 37.7152C135.512 38.1484 135 38.7166 134.638 39.4197C134.283 40.1158 134.105 40.8722 134.105 41.6889V43.5533C134.105 44.647 134.297 45.5774 134.681 46.3445C135.071 47.1115 135.615 47.6974 136.311 48.1023C137.007 48.5 137.82 48.6989 138.75 48.6989C139.354 48.6989 139.904 48.6136 140.402 48.4432C140.899 48.2656 141.328 48.0028 141.691 47.6548C142.053 47.3068 142.33 46.8771 142.522 46.3658L145.536 46.9091C145.295 47.7969 144.862 48.5746 144.237 49.2422C143.619 49.9027 142.841 50.4176 141.904 50.7869C140.973 51.1491 139.911 51.3303 138.718 51.3303ZM153.417 48.017L153.258 49.1783C153.151 50.0305 152.97 50.9183 152.714 51.8416C152.466 52.772 152.206 53.6349 151.937 54.4304C151.674 55.2259 151.457 55.858 151.287 56.3267H149.028C149.12 55.8864 149.248 55.2898 149.412 54.5369C149.575 53.7912 149.735 52.9567 149.891 52.0334C150.047 51.1101 150.165 50.169 150.243 49.2102L150.349 48.017H153.417ZM169.051 51L164.236 34.6364H167.528L170.734 46.6534H170.894L174.112 34.6364H177.403L180.6 46.6001H180.759L183.945 34.6364H187.237L182.432 51H179.183L175.859 39.1854H175.614L172.29 51H169.051ZM196.814 51.3303C195.202 51.3303 193.813 50.9858 192.649 50.2969C191.491 49.6009 190.596 48.6243 189.964 47.3672C189.339 46.103 189.026 44.6222 189.026 42.9247C189.026 41.2486 189.339 39.7713 189.964 38.4929C190.596 37.2145 191.477 36.2166 192.606 35.4993C193.742 34.782 195.07 34.4233 196.59 34.4233C197.514 34.4233 198.408 34.576 199.275 34.8814C200.141 35.1868 200.919 35.6662 201.608 36.3196C202.297 36.973 202.84 37.8217 203.238 38.8658C203.636 39.9027 203.835 41.1634 203.835 42.6477V43.777H190.827V41.3906H200.713C200.713 40.5526 200.543 39.8104 200.202 39.1641C199.861 38.5107 199.381 37.9957 198.764 37.6193C198.153 37.2429 197.435 37.0547 196.612 37.0547C195.717 37.0547 194.935 37.2749 194.268 37.7152C193.607 38.1484 193.096 38.7166 192.734 39.4197C192.379 40.1158 192.201 40.8722 192.201 41.6889V43.5533C192.201 44.647 192.393 45.5774 192.776 46.3445C193.167 47.1115 193.71 47.6974 194.406 48.1023C195.102 48.5 195.916 48.6989 196.846 48.6989C197.45 48.6989 198 48.6136 198.497 48.4432C198.994 48.2656 199.424 48.0028 199.786 47.6548C200.149 47.3068 200.426 46.8771 200.617 46.3658L203.632 46.9091C203.391 47.7969 202.957 48.5746 202.332 49.2422C201.715 49.9027 200.937 50.4176 199.999 50.7869C199.069 51.1491 198.007 51.3303 196.814 51.3303ZM213.495 51.3196C212.174 51.3196 210.995 50.9822 209.958 50.3075C208.928 49.6257 208.118 48.6562 207.529 47.3991C206.946 46.1349 206.655 44.6186 206.655 42.8501C206.655 41.0817 206.95 39.5689 207.539 38.3118C208.136 37.0547 208.953 36.0923 209.99 35.4247C211.027 34.7571 212.202 34.4233 213.516 34.4233C214.532 34.4233 215.348 34.5938 215.966 34.9347C216.591 35.2685 217.074 35.6591 217.415 36.1065C217.763 36.554 218.033 36.9482 218.225 37.2891H218.416V29.1818H221.602V51H218.491V48.4538H218.225C218.033 48.8018 217.756 49.1996 217.394 49.647C217.039 50.0945 216.549 50.4851 215.924 50.8189C215.299 51.1527 214.489 51.3196 213.495 51.3196ZM214.198 48.603C215.114 48.603 215.888 48.3615 216.52 47.8786C217.159 47.3885 217.642 46.7102 217.969 45.8438C218.303 44.9773 218.47 43.9687 218.47 42.8182C218.47 41.6818 218.306 40.6875 217.98 39.8352C217.653 38.983 217.174 38.3189 216.541 37.843C215.909 37.3672 215.128 37.1293 214.198 37.1293C213.239 37.1293 212.44 37.3778 211.801 37.875C211.161 38.3722 210.679 39.0504 210.352 39.9098C210.032 40.7692 209.872 41.7386 209.872 42.8182C209.872 43.9119 210.036 44.8956 210.362 45.7692C210.689 46.6428 211.172 47.3352 211.811 47.8466C212.458 48.3509 213.253 48.603 214.198 48.603ZM232.274 51.3196C230.953 51.3196 229.774 50.9822 228.737 50.3075C227.707 49.6257 226.897 48.6562 226.308 47.3991C225.726 46.1349 225.434 44.6186 225.434 42.8501C225.434 41.0817 225.729 39.5689 226.319 38.3118C226.915 37.0547 227.732 36.0923 228.769 35.4247C229.806 34.7571 230.981 34.4233 232.295 34.4233C233.311 34.4233 234.128 34.5938 234.745 34.9347C235.37 35.2685 235.853 35.6591 236.194 36.1065C236.542 36.554 236.812 36.9482 237.004 37.2891H237.196V29.1818H240.381V51H237.27V48.4538H237.004C236.812 48.8018 236.535 49.1996 236.173 49.647C235.818 50.0945 235.328 50.4851 234.703 50.8189C234.078 51.1527 233.268 51.3196 232.274 51.3196ZM232.977 48.603C233.893 48.603 234.667 48.3615 235.299 47.8786C235.939 47.3885 236.422 46.7102 236.748 45.8438C237.082 44.9773 237.249 43.9687 237.249 42.8182C237.249 41.6818 237.086 40.6875 236.759 39.8352C236.432 38.983 235.953 38.3189 235.321 37.843C234.689 37.3672 233.907 37.1293 232.977 37.1293C232.018 37.1293 231.219 37.3778 230.58 37.875C229.941 38.3722 229.458 39.0504 229.131 39.9098C228.812 40.7692 228.652 41.7386 228.652 42.8182C228.652 43.9119 228.815 44.8956 229.142 45.7692C229.468 46.6428 229.951 47.3352 230.591 47.8466C231.237 48.3509 232.032 48.603 232.977 48.603ZM244.927 51V34.6364H248.113V51H244.927ZM246.536 32.1115C245.982 32.1115 245.506 31.9268 245.109 31.5575C244.718 31.1811 244.523 30.7337 244.523 30.2152C244.523 29.6896 244.718 29.2422 245.109 28.8729C245.506 28.4964 245.982 28.3082 246.536 28.3082C247.09 28.3082 247.562 28.4964 247.953 28.8729C248.351 29.2422 248.55 29.6896 248.55 30.2152C248.55 30.7337 248.351 31.1811 247.953 31.5575C247.562 31.9268 247.09 32.1115 246.536 32.1115ZM255.584 41.2841V51H252.398V34.6364H255.456V37.2997H255.658C256.035 36.4332 256.624 35.7372 257.427 35.2116C258.236 34.6861 259.255 34.4233 260.484 34.4233C261.599 34.4233 262.576 34.6577 263.414 35.1264C264.252 35.5881 264.902 36.277 265.363 37.1932C265.825 38.1094 266.056 39.2422 266.056 40.5916V51H262.87V40.9751C262.87 39.7891 262.562 38.8622 261.944 38.1946C261.326 37.5199 260.477 37.1825 259.397 37.1825C258.659 37.1825 258.002 37.3423 257.427 37.6619C256.858 37.9815 256.407 38.4503 256.074 39.0682C255.747 39.679 255.584 40.4176 255.584 41.2841ZM277.189 57.4773C275.889 57.4773 274.77 57.3068 273.833 56.9659C272.902 56.625 272.142 56.174 271.553 55.6129C270.964 55.0518 270.523 54.4375 270.232 53.7699L272.97 52.6406C273.162 52.9531 273.417 53.2834 273.737 53.6314C274.064 53.9865 274.504 54.2884 275.058 54.5369C275.619 54.7855 276.34 54.9098 277.221 54.9098C278.428 54.9098 279.426 54.6151 280.214 54.0256C281.003 53.4432 281.397 52.5128 281.397 51.2344V48.017H281.194C281.003 48.3651 280.726 48.7521 280.363 49.1783C280.008 49.6044 279.518 49.9737 278.893 50.2862C278.268 50.5987 277.455 50.755 276.454 50.755C275.161 50.755 273.996 50.4531 272.959 49.8494C271.929 49.2386 271.113 48.3402 270.509 47.1541C269.912 45.9609 269.614 44.4943 269.614 42.7543C269.614 41.0142 269.909 39.5227 270.498 38.2798C271.095 37.0369 271.912 36.0852 272.949 35.4247C273.986 34.7571 275.161 34.4233 276.475 34.4233C277.491 34.4233 278.311 34.5938 278.936 34.9347C279.561 35.2685 280.047 35.6591 280.395 36.1065C280.75 36.554 281.024 36.9482 281.216 37.2891H281.45V34.6364H284.571V51.3622C284.571 52.7685 284.245 53.9226 283.591 54.8246C282.938 55.7266 282.054 56.3942 280.939 56.8274C279.831 57.2607 278.581 57.4773 277.189 57.4773ZM277.157 48.1129C278.073 48.1129 278.847 47.8999 279.479 47.4737C280.118 47.0405 280.601 46.4226 280.928 45.62C281.262 44.8104 281.429 43.8409 281.429 42.7116C281.429 41.6108 281.265 40.6413 280.939 39.8033C280.612 38.9652 280.133 38.3118 279.5 37.843C278.868 37.3672 278.087 37.1293 277.157 37.1293C276.198 37.1293 275.399 37.3778 274.76 37.875C274.12 38.3651 273.638 39.0327 273.311 39.8778C272.991 40.723 272.831 41.6676 272.831 42.7116C272.831 43.7841 272.995 44.7251 273.321 45.5348C273.648 46.3445 274.131 46.9766 274.77 47.4311C275.417 47.8857 276.212 48.1129 277.157 48.1129ZM301.106 38.6314L298.218 39.1428C298.098 38.7734 297.906 38.4219 297.643 38.0881C297.388 37.7543 297.04 37.4808 296.599 37.2678C296.159 37.0547 295.608 36.9482 294.948 36.9482C294.046 36.9482 293.293 37.1506 292.689 37.5554C292.086 37.9531 291.784 38.468 291.784 39.1001C291.784 39.647 291.986 40.0874 292.391 40.4212C292.796 40.755 293.449 41.0284 294.351 41.2415L296.951 41.8381C298.456 42.1861 299.579 42.7223 300.317 43.4467C301.056 44.1712 301.425 45.1122 301.425 46.2699C301.425 47.25 301.141 48.1236 300.573 48.8906C300.012 49.6506 299.227 50.2472 298.218 50.6804C297.217 51.1136 296.056 51.3303 294.735 51.3303C292.902 51.3303 291.407 50.9396 290.25 50.1584C289.092 49.37 288.382 48.2514 288.119 46.8026L291.198 46.3338C291.39 47.1364 291.784 47.7436 292.38 48.1555C292.977 48.5604 293.755 48.7628 294.714 48.7628C295.758 48.7628 296.592 48.5462 297.217 48.1129C297.842 47.6726 298.155 47.1364 298.155 46.5043C298.155 45.9929 297.963 45.5632 297.579 45.2152C297.203 44.8672 296.624 44.6044 295.843 44.4268L293.073 43.8196C291.546 43.4716 290.417 42.9176 289.685 42.1577C288.961 41.3977 288.598 40.4354 288.598 39.2706C288.598 38.3047 288.868 37.4595 289.408 36.7351C289.948 36.0107 290.694 35.446 291.645 35.0412C292.597 34.6293 293.687 34.4233 294.916 34.4233C296.684 34.4233 298.076 34.8068 299.092 35.5739C300.108 36.3338 300.779 37.353 301.106 38.6314ZM309.072 48.017L308.912 49.1783C308.805 50.0305 308.624 50.9183 308.369 51.8416C308.12 52.772 307.861 53.6349 307.591 54.4304C307.328 55.2259 307.111 55.858 306.941 56.3267H304.682C304.775 55.8864 304.903 55.2898 305.066 54.5369C305.229 53.7912 305.389 52.9567 305.545 52.0334C305.702 51.1101 305.819 50.169 305.897 49.2102L306.003 48.017H309.072ZM325.92 51.3622C324.883 51.3622 323.946 51.1705 323.108 50.7869C322.269 50.3963 321.605 49.8317 321.115 49.093C320.632 48.3544 320.391 47.4489 320.391 46.3764C320.391 45.4531 320.568 44.6932 320.924 44.0966C321.279 43.5 321.758 43.0277 322.362 42.6797C322.965 42.3317 323.64 42.0689 324.386 41.8913C325.132 41.7138 325.892 41.5788 326.666 41.4865C327.646 41.3729 328.441 41.2805 329.052 41.2095C329.663 41.1314 330.107 41.0071 330.384 40.8366C330.661 40.6662 330.799 40.3892 330.799 40.0057V39.9311C330.799 39.0007 330.536 38.2798 330.011 37.7685C329.492 37.2571 328.718 37.0014 327.688 37.0014C326.616 37.0014 325.771 37.2393 325.153 37.7152C324.542 38.1839 324.12 38.706 323.885 39.2812L320.892 38.5994C321.247 37.6051 321.765 36.8026 322.447 36.1918C323.136 35.5739 323.928 35.1264 324.823 34.8494C325.718 34.5653 326.659 34.4233 327.646 34.4233C328.299 34.4233 328.992 34.5014 329.723 34.6577C330.462 34.8068 331.151 35.0838 331.79 35.4886C332.436 35.8935 332.965 36.4723 333.377 37.2251C333.789 37.9709 333.995 38.9403 333.995 40.1335V51H330.884V48.7628H330.757C330.551 49.1747 330.242 49.5795 329.83 49.9773C329.418 50.375 328.889 50.7053 328.242 50.968C327.596 51.2308 326.822 51.3622 325.92 51.3622ZM326.612 48.8054C327.493 48.8054 328.246 48.6314 328.871 48.2834C329.503 47.9354 329.983 47.4808 330.309 46.9197C330.643 46.3516 330.81 45.7443 330.81 45.098V42.9886C330.696 43.1023 330.476 43.2088 330.149 43.3082C329.83 43.4006 329.464 43.4822 329.052 43.5533C328.64 43.6172 328.239 43.6776 327.848 43.7344C327.458 43.7841 327.131 43.8267 326.868 43.8622C326.25 43.9403 325.686 44.0717 325.174 44.2564C324.67 44.4411 324.265 44.7074 323.96 45.0554C323.661 45.3963 323.512 45.8509 323.512 46.419C323.512 47.2074 323.804 47.804 324.386 48.2088C324.968 48.6065 325.71 48.8054 326.612 48.8054ZM341.423 41.2841V51H338.238V34.6364H341.296V37.2997H341.498C341.874 36.4332 342.464 35.7372 343.266 35.2116C344.076 34.6861 345.095 34.4233 346.324 34.4233C347.439 34.4233 348.416 34.6577 349.254 35.1264C350.092 35.5881 350.742 36.277 351.203 37.1932C351.665 38.1094 351.896 39.2422 351.896 40.5916V51H348.71V40.9751C348.71 39.7891 348.401 38.8622 347.783 38.1946C347.166 37.5199 346.317 37.1825 345.237 37.1825C344.499 37.1825 343.842 37.3423 343.266 37.6619C342.698 37.9815 342.247 38.4503 341.913 39.0682C341.587 39.679 341.423 40.4176 341.423 41.2841ZM362.293 51.3196C360.972 51.3196 359.793 50.9822 358.756 50.3075C357.727 49.6257 356.917 48.6562 356.328 47.3991C355.745 46.1349 355.454 44.6186 355.454 42.8501C355.454 41.0817 355.749 39.5689 356.338 38.3118C356.935 37.0547 357.752 36.0923 358.788 35.4247C359.825 34.7571 361.001 34.4233 362.315 34.4233C363.33 34.4233 364.147 34.5938 364.765 34.9347C365.39 35.2685 365.873 35.6591 366.214 36.1065C366.562 36.554 366.832 36.9482 367.024 37.2891H367.215V29.1818H370.401V51H367.29V48.4538H367.024C366.832 48.8018 366.555 49.1996 366.193 49.647C365.837 50.0945 365.347 50.4851 364.722 50.8189C364.097 51.1527 363.288 51.3196 362.293 51.3196ZM362.997 48.603C363.913 48.603 364.687 48.3615 365.319 47.8786C365.958 47.3885 366.441 46.7102 366.768 45.8438C367.102 44.9773 367.269 43.9687 367.269 42.8182C367.269 41.6818 367.105 40.6875 366.778 39.8352C366.452 38.983 365.972 38.3189 365.34 37.843C364.708 37.3672 363.927 37.1293 362.997 37.1293C362.038 37.1293 361.239 37.3778 360.6 37.875C359.96 38.3722 359.477 39.0504 359.151 39.9098C358.831 40.7692 358.671 41.7386 358.671 42.8182C358.671 43.9119 358.835 44.8956 359.161 45.7692C359.488 46.6428 359.971 47.3352 360.61 47.8466C361.256 48.3509 362.052 48.603 362.997 48.603ZM68.6988 65.1818V87H65.5134V65.1818H68.6988ZM72.9841 87V70.6364H76.1695V87H72.9841ZM74.5928 68.1115C74.0388 68.1115 73.5629 67.9268 73.1652 67.5575C72.7746 67.1811 72.5793 66.7337 72.5793 66.2152C72.5793 65.6896 72.7746 65.2422 73.1652 64.8729C73.5629 64.4964 74.0388 64.3082 74.5928 64.3082C75.1468 64.3082 75.6191 64.4964 76.0097 64.8729C76.4074 65.2422 76.6063 65.6896 76.6063 66.2152C76.6063 66.7337 76.4074 67.1811 76.0097 67.5575C75.6191 67.9268 75.1468 68.1115 74.5928 68.1115ZM94.4534 70.6364L88.5194 87H85.1104L79.1657 70.6364H82.5855L86.7297 83.2287H86.9001L91.0336 70.6364H94.4534ZM103.943 87.3303C102.331 87.3303 100.942 86.9858 99.7774 86.2969C98.6198 85.6009 97.7249 84.6243 97.0928 83.3672C96.4678 82.103 96.1553 80.6222 96.1553 78.9247C96.1553 77.2486 96.4678 75.7713 97.0928 74.4929C97.7249 73.2145 98.6056 72.2166 99.7348 71.4993C100.871 70.782 102.199 70.4233 103.719 70.4233C104.642 70.4233 105.537 70.576 106.404 70.8814C107.27 71.1868 108.048 71.6662 108.737 72.3196C109.426 72.973 109.969 73.8217 110.367 74.8658C110.765 75.9027 110.964 77.1634 110.964 78.6477V79.777H97.9557V77.3906H107.842C107.842 76.5526 107.672 75.8104 107.331 75.1641C106.99 74.5107 106.51 73.9957 105.892 73.6193C105.282 73.2429 104.564 73.0547 103.741 73.0547C102.846 73.0547 102.064 73.2749 101.397 73.7152C100.736 74.1484 100.225 74.7166 99.8627 75.4197C99.5075 76.1158 99.33 76.8722 99.33 77.6889V79.5533C99.33 80.647 99.5218 81.5774 99.9053 82.3445C100.296 83.1115 100.839 83.6974 101.535 84.1023C102.231 84.5 103.044 84.6989 103.975 84.6989C104.579 84.6989 105.129 84.6136 105.626 84.4432C106.123 84.2656 106.553 84.0028 106.915 83.6548C107.277 83.3068 107.554 82.8771 107.746 82.3658L110.761 82.9091C110.52 83.7969 110.086 84.5746 109.461 85.2422C108.843 85.9027 108.066 86.4176 107.128 86.7869C106.198 87.1491 105.136 87.3303 103.943 87.3303ZM129.33 87.3303C127.746 87.3303 126.383 86.9716 125.239 86.2543C124.103 85.5298 123.229 84.532 122.618 83.2607C122.008 81.9893 121.702 80.5334 121.702 78.8928C121.702 77.2308 122.015 75.7642 122.64 74.4929C123.265 73.2145 124.145 72.2166 125.282 71.4993C126.418 70.782 127.757 70.4233 129.298 70.4233C130.541 70.4233 131.649 70.6541 132.622 71.1158C133.595 71.5703 134.38 72.2095 134.976 73.0334C135.58 73.8572 135.939 74.8196 136.052 75.9205H132.952C132.782 75.1534 132.391 74.4929 131.78 73.9389C131.177 73.3849 130.367 73.108 129.351 73.108C128.464 73.108 127.686 73.3423 127.018 73.8111C126.358 74.2727 125.843 74.9332 125.473 75.7926C125.104 76.6449 124.919 77.6534 124.919 78.8182C124.919 80.0114 125.101 81.0412 125.463 81.9077C125.825 82.7741 126.336 83.4453 126.997 83.9212C127.665 84.397 128.449 84.6349 129.351 84.6349C129.955 84.6349 130.502 84.5249 130.992 84.3047C131.489 84.0774 131.905 83.7543 132.238 83.3352C132.579 82.9162 132.817 82.4119 132.952 81.8224H136.052C135.939 82.8807 135.594 83.8253 135.019 84.6562C134.444 85.4872 133.673 86.1406 132.707 86.6165C131.748 87.0923 130.623 87.3303 129.33 87.3303ZM146.351 87.3303C144.817 87.3303 143.479 86.9787 142.335 86.2756C141.192 85.5724 140.304 84.5888 139.672 83.3246C139.04 82.0604 138.724 80.5831 138.724 78.8928C138.724 77.1953 139.04 75.7109 139.672 74.4396C140.304 73.1683 141.192 72.1811 142.335 71.478C143.479 70.7749 144.817 70.4233 146.351 70.4233C147.886 70.4233 149.224 70.7749 150.368 71.478C151.511 72.1811 152.399 73.1683 153.031 74.4396C153.663 75.7109 153.979 77.1953 153.979 78.8928C153.979 80.5831 153.663 82.0604 153.031 83.3246C152.399 84.5888 151.511 85.5724 150.368 86.2756C149.224 86.9787 147.886 87.3303 146.351 87.3303ZM146.362 84.6562C147.356 84.6562 148.18 84.3935 148.834 83.8679C149.487 83.3423 149.97 82.6428 150.283 81.7692C150.602 80.8956 150.762 79.9332 150.762 78.8821C150.762 77.8381 150.602 76.8793 150.283 76.0057C149.97 75.125 149.487 74.4183 148.834 73.8857C148.18 73.353 147.356 73.0866 146.362 73.0866C145.361 73.0866 144.53 73.353 143.869 73.8857C143.216 74.4183 142.729 75.125 142.41 76.0057C142.097 76.8793 141.941 77.8381 141.941 78.8821C141.941 79.9332 142.097 80.8956 142.41 81.7692C142.729 82.6428 143.216 83.3423 143.869 83.8679C144.53 84.3935 145.361 84.6562 146.362 84.6562ZM160.72 77.2841V87H157.535V70.6364H160.592V73.2997H160.795C161.171 72.4332 161.761 71.7372 162.563 71.2116C163.373 70.6861 164.392 70.4233 165.621 70.4233C166.736 70.4233 167.712 70.6577 168.551 71.1264C169.389 71.5881 170.038 72.277 170.5 73.1932C170.962 74.1094 171.193 75.2422 171.193 76.5916V87H168.007V76.9751C168.007 75.7891 167.698 74.8622 167.08 74.1946C166.462 73.5199 165.614 73.1825 164.534 73.1825C163.796 73.1825 163.139 73.3423 162.563 73.6619C161.995 73.9815 161.544 74.4503 161.21 75.0682C160.884 75.679 160.72 76.4176 160.72 77.2841ZM182.357 87.3303C180.774 87.3303 179.41 86.9716 178.266 86.2543C177.13 85.5298 176.256 84.532 175.646 83.2607C175.035 81.9893 174.729 80.5334 174.729 78.8928C174.729 77.2308 175.042 75.7642 175.667 74.4929C176.292 73.2145 177.173 72.2166 178.309 71.4993C179.445 70.782 180.784 70.4233 182.325 70.4233C183.568 70.4233 184.676 70.6541 185.649 71.1158C186.622 71.5703 187.407 72.2095 188.004 73.0334C188.607 73.8572 188.966 74.8196 189.08 75.9205H185.979C185.809 75.1534 185.418 74.4929 184.808 73.9389C184.204 73.3849 183.394 73.108 182.379 73.108C181.491 73.108 180.713 73.3423 180.046 73.8111C179.385 74.2727 178.87 74.9332 178.501 75.7926C178.131 76.6449 177.947 77.6534 177.947 78.8182C177.947 80.0114 178.128 81.0412 178.49 81.9077C178.852 82.7741 179.364 83.4453 180.024 83.9212C180.692 84.397 181.477 84.6349 182.379 84.6349C182.982 84.6349 183.529 84.5249 184.019 84.3047C184.516 84.0774 184.932 83.7543 185.266 83.3352C185.607 82.9162 185.845 82.4119 185.979 81.8224H189.08C188.966 82.8807 188.622 83.8253 188.046 84.6562C187.471 85.4872 186.7 86.1406 185.734 86.6165C184.776 87.0923 183.65 87.3303 182.357 87.3303ZM199.539 87.3303C197.926 87.3303 196.538 86.9858 195.373 86.2969C194.215 85.6009 193.321 84.6243 192.688 83.3672C192.063 82.103 191.751 80.6222 191.751 78.9247C191.751 77.2486 192.063 75.7713 192.688 74.4929C193.321 73.2145 194.201 72.2166 195.331 71.4993C196.467 70.782 197.795 70.4233 199.315 70.4233C200.238 70.4233 201.133 70.576 202 70.8814C202.866 71.1868 203.644 71.6662 204.333 72.3196C205.022 72.973 205.565 73.8217 205.963 74.8658C206.36 75.9027 206.559 77.1634 206.559 78.6477V79.777H193.551V77.3906H203.438C203.438 76.5526 203.267 75.8104 202.926 75.1641C202.585 74.5107 202.106 73.9957 201.488 73.6193C200.877 73.2429 200.16 73.0547 199.336 73.0547C198.441 73.0547 197.66 73.2749 196.992 73.7152C196.332 74.1484 195.821 74.7166 195.458 75.4197C195.103 76.1158 194.926 76.8722 194.926 77.6889V79.5533C194.926 80.647 195.117 81.5774 195.501 82.3445C195.892 83.1115 196.435 83.6974 197.131 84.1023C197.827 84.5 198.64 84.6989 199.571 84.6989C200.174 84.6989 200.725 84.6136 201.222 84.4432C201.719 84.2656 202.149 84.0028 202.511 83.6548C202.873 83.3068 203.15 82.8771 203.342 82.3658L206.357 82.9091C206.115 83.7969 205.682 84.5746 205.057 85.2422C204.439 85.9027 203.661 86.4176 202.724 86.7869C201.794 87.1491 200.732 87.3303 199.539 87.3303ZM210.093 87V70.6364H213.172V73.2358H213.343C213.641 72.3551 214.167 71.6626 214.919 71.1584C215.679 70.647 216.539 70.3913 217.498 70.3913C217.696 70.3913 217.931 70.3984 218.201 70.4126C218.478 70.4268 218.694 70.4446 218.851 70.4659V73.5128C218.723 73.4773 218.495 73.4382 218.169 73.3956C217.842 73.3459 217.515 73.321 217.189 73.321C216.436 73.321 215.765 73.4808 215.175 73.8004C214.593 74.1129 214.131 74.5497 213.79 75.1108C213.449 75.6648 213.279 76.2969 213.279 77.0071V87H210.093ZM230.212 70.6364V73.1932H221.274V70.6364H230.212ZM223.671 66.7159H226.857V82.1953C226.857 82.8132 226.949 83.2784 227.134 83.5909C227.318 83.8963 227.556 84.1058 227.847 84.2195C228.146 84.326 228.469 84.3793 228.817 84.3793C229.073 84.3793 229.296 84.3615 229.488 84.326C229.68 84.2905 229.829 84.2621 229.935 84.2408L230.511 86.8722C230.326 86.9432 230.063 87.0142 229.722 87.0852C229.381 87.1634 228.955 87.206 228.444 87.2131C227.606 87.2273 226.825 87.0781 226.1 86.7656C225.376 86.4531 224.79 85.9702 224.342 85.3168C223.895 84.6634 223.671 83.843 223.671 82.8558V66.7159ZM248.728 87.3303C247.116 87.3303 245.727 86.9858 244.563 86.2969C243.405 85.6009 242.51 84.6243 241.878 83.3672C241.253 82.103 240.94 80.6222 240.94 78.9247C240.94 77.2486 241.253 75.7713 241.878 74.4929C242.51 73.2145 243.391 72.2166 244.52 71.4993C245.656 70.782 246.984 70.4233 248.504 70.4233C249.428 70.4233 250.323 70.576 251.189 70.8814C252.055 71.1868 252.833 71.6662 253.522 72.3196C254.211 72.973 254.754 73.8217 255.152 74.8658C255.55 75.9027 255.749 77.1634 255.749 78.6477V79.777H242.741V77.3906H252.627C252.627 76.5526 252.457 75.8104 252.116 75.1641C251.775 74.5107 251.296 73.9957 250.678 73.6193C250.067 73.2429 249.35 73.0547 248.526 73.0547C247.631 73.0547 246.85 73.2749 246.182 73.7152C245.521 74.1484 245.01 74.7166 244.648 75.4197C244.293 76.1158 244.115 76.8722 244.115 77.6889V79.5533C244.115 80.647 244.307 81.5774 244.69 82.3445C245.081 83.1115 245.624 83.6974 246.32 84.1023C247.016 84.5 247.83 84.6989 248.76 84.6989C249.364 84.6989 249.914 84.6136 250.411 84.4432C250.908 84.2656 251.338 84.0028 251.7 83.6548C252.063 83.3068 252.34 82.8771 252.531 82.3658L255.546 82.9091C255.305 83.7969 254.872 84.5746 254.247 85.2422C253.629 85.9027 252.851 86.4176 251.913 86.7869C250.983 87.1491 249.921 87.3303 248.728 87.3303ZM272.813 70.6364L266.879 87H263.47L257.525 70.6364H260.945L265.089 83.2287H265.259L269.393 70.6364H272.813ZM282.302 87.3303C280.69 87.3303 279.302 86.9858 278.137 86.2969C276.979 85.6009 276.084 84.6243 275.452 83.3672C274.827 82.103 274.515 80.6222 274.515 78.9247C274.515 77.2486 274.827 75.7713 275.452 74.4929C276.084 73.2145 276.965 72.2166 278.094 71.4993C279.231 70.782 280.559 70.4233 282.079 70.4233C283.002 70.4233 283.897 70.576 284.763 70.8814C285.63 71.1868 286.407 71.6662 287.096 72.3196C287.785 72.973 288.329 73.8217 288.726 74.8658C289.124 75.9027 289.323 77.1634 289.323 78.6477V79.777H276.315V77.3906H286.201C286.201 76.5526 286.031 75.8104 285.69 75.1641C285.349 74.5107 284.87 73.9957 284.252 73.6193C283.641 73.2429 282.924 73.0547 282.1 73.0547C281.205 73.0547 280.424 73.2749 279.756 73.7152C279.096 74.1484 278.584 74.7166 278.222 75.4197C277.867 76.1158 277.689 76.8722 277.689 77.6889V79.5533C277.689 80.647 277.881 81.5774 278.265 82.3445C278.655 83.1115 279.199 83.6974 279.895 84.1023C280.591 84.5 281.404 84.6989 282.334 84.6989C282.938 84.6989 283.488 84.6136 283.986 84.4432C284.483 84.2656 284.912 84.0028 285.275 83.6548C285.637 83.3068 285.914 82.8771 286.106 82.3658L289.12 82.9091C288.879 83.7969 288.446 84.5746 287.821 85.2422C287.203 85.9027 286.425 86.4176 285.488 86.7869C284.557 87.1491 283.495 87.3303 282.302 87.3303ZM296.043 77.2841V87H292.857V70.6364H295.915V73.2997H296.117C296.494 72.4332 297.083 71.7372 297.886 71.2116C298.695 70.6861 299.714 70.4233 300.943 70.4233C302.058 70.4233 303.035 70.6577 303.873 71.1264C304.711 71.5881 305.361 72.277 305.822 73.1932C306.284 74.1094 306.515 75.2422 306.515 76.5916V87H303.329V76.9751C303.329 75.7891 303.021 74.8622 302.403 74.1946C301.785 73.5199 300.936 73.1825 299.856 73.1825C299.118 73.1825 298.461 73.3423 297.886 73.6619C297.317 73.9815 296.866 74.4503 296.533 75.0682C296.206 75.679 296.043 76.4176 296.043 77.2841ZM318.425 70.6364V73.1932H309.487V70.6364H318.425ZM311.884 66.7159H315.07V82.1953C315.07 82.8132 315.162 83.2784 315.347 83.5909C315.531 83.8963 315.769 84.1058 316.06 84.2195C316.359 84.326 316.682 84.3793 317.03 84.3793C317.285 84.3793 317.509 84.3615 317.701 84.326C317.893 84.2905 318.042 84.2621 318.148 84.2408L318.724 86.8722C318.539 86.9432 318.276 87.0142 317.935 87.0852C317.594 87.1634 317.168 87.206 316.657 87.2131C315.819 87.2273 315.038 87.0781 314.313 86.7656C313.589 86.4531 313.003 85.9702 312.555 85.3168C312.108 84.6634 311.884 83.843 311.884 82.8558V66.7159ZM333.947 74.6314L331.06 75.1428C330.94 74.7734 330.748 74.4219 330.485 74.0881C330.229 73.7543 329.881 73.4808 329.441 73.2678C329.001 73.0547 328.45 72.9482 327.79 72.9482C326.888 72.9482 326.135 73.1506 325.531 73.5554C324.927 73.9531 324.626 74.468 324.626 75.1001C324.626 75.647 324.828 76.0874 325.233 76.4212C325.638 76.755 326.291 77.0284 327.193 77.2415L329.793 77.8381C331.298 78.1861 332.42 78.7223 333.159 79.4467C333.898 80.1712 334.267 81.1122 334.267 82.2699C334.267 83.25 333.983 84.1236 333.415 84.8906C332.854 85.6506 332.069 86.2472 331.06 86.6804C330.059 87.1136 328.898 87.3303 327.577 87.3303C325.744 87.3303 324.249 86.9396 323.092 86.1584C321.934 85.37 321.224 84.2514 320.961 82.8026L324.04 82.3338C324.231 83.1364 324.626 83.7436 325.222 84.1555C325.819 84.5604 326.597 84.7628 327.555 84.7628C328.599 84.7628 329.434 84.5462 330.059 84.1129C330.684 83.6726 330.996 83.1364 330.996 82.5043C330.996 81.9929 330.805 81.5632 330.421 81.2152C330.045 80.8672 329.466 80.6044 328.685 80.4268L325.915 79.8196C324.388 79.4716 323.258 78.9176 322.527 78.1577C321.802 77.3977 321.44 76.4354 321.44 75.2706C321.44 74.3047 321.71 73.4595 322.25 72.7351C322.79 72.0107 323.535 71.446 324.487 71.0412C325.439 70.6293 326.529 70.4233 327.758 70.4233C329.526 70.4233 330.918 70.8068 331.934 71.5739C332.949 72.3338 333.621 73.353 333.947 74.6314Z" fill="#5A0400"/>
</svg>
