<svg width="429" height="116" viewBox="0 0 429 116" fill="none" xmlns="http://www.w3.org/2000/svg">
<path d="M0 50C0 22.3858 22.3858 0 50 0H379C406.614 0 429 22.3858 429 50V66C429 93.6142 406.614 116 379 116H0V50Z" fill="#F5D4CB" fill-opacity="0.76"/>
<path d="M41.0669 51V29.1818H49.057C50.6053 29.1818 51.8873 29.4375 52.9029 29.9489C53.9185 30.4531 54.6784 31.1385 55.1827 32.005C55.687 32.8643 55.9391 33.8338 55.9391 34.9134C55.9391 35.8224 55.7722 36.5895 55.4384 37.2145C55.1046 37.8324 54.6571 38.3295 54.0961 38.706C53.5421 39.0753 52.9313 39.3452 52.2637 39.5156V39.7287C52.9881 39.7642 53.6948 39.9986 54.3837 40.4318C55.0797 40.858 55.655 41.4652 56.1096 42.2536C56.5641 43.0419 56.7914 44.0007 56.7914 45.13C56.7914 46.245 56.5286 47.2464 56.003 48.1342C55.4846 49.0149 54.682 49.7145 53.5953 50.233C52.5087 50.7443 51.1202 51 49.4299 51H41.0669ZM44.3588 48.1768H49.1103C50.687 48.1768 51.8162 47.8714 52.498 47.2607C53.1799 46.6499 53.5208 45.8864 53.5208 44.9702C53.5208 44.2812 53.3468 43.6491 52.9988 43.0739C52.6507 42.4986 52.1536 42.0405 51.5073 41.6996C50.8681 41.3587 50.1081 41.1882 49.2275 41.1882H44.3588V48.1768ZM44.3588 38.6207H48.7694C49.508 38.6207 50.1721 38.4787 50.7615 38.1946C51.3581 37.9105 51.8304 37.5128 52.1784 37.0014C52.5336 36.483 52.7111 35.8722 52.7111 35.169C52.7111 34.267 52.3951 33.5107 51.763 32.8999C51.1309 32.2891 50.1614 31.9837 48.8546 31.9837H44.3588V38.6207ZM60.4402 51V34.6364H63.519V37.2358H63.6895C63.9877 36.3551 64.5133 35.6626 65.2662 35.1584C66.0261 34.647 66.8855 34.3913 67.8443 34.3913C68.0431 34.3913 68.2775 34.3984 68.5474 34.4126C68.8244 34.4268 69.041 34.4446 69.1973 34.4659V37.5128C69.0694 37.4773 68.8422 37.4382 68.5154 37.3956C68.1887 37.3459 67.862 37.321 67.5353 37.321C66.7825 37.321 66.1113 37.4808 65.5218 37.8004C64.9395 38.1129 64.4778 38.5497 64.1369 39.1108C63.796 39.6648 63.6255 40.2969 63.6255 41.0071V51H60.4402ZM76.5694 51.3622C75.5325 51.3622 74.595 51.1705 73.7569 50.7869C72.9189 50.3963 72.2548 49.8317 71.7647 49.093C71.2818 48.3544 71.0403 47.4489 71.0403 46.3764C71.0403 45.4531 71.2179 44.6932 71.573 44.0966C71.9281 43.5 72.4075 43.0277 73.0112 42.6797C73.6149 42.3317 74.2896 42.0689 75.0353 41.8913C75.7811 41.7138 76.541 41.5788 77.3152 41.4865C78.2953 41.3729 79.0907 41.2805 79.7015 41.2095C80.3123 41.1314 80.7562 41.0071 81.0332 40.8366C81.3102 40.6662 81.4487 40.3892 81.4487 40.0057V39.9311C81.4487 39.0007 81.1859 38.2798 80.6603 37.7685C80.1419 37.2571 79.3677 37.0014 78.3379 37.0014C77.2654 37.0014 76.4203 37.2393 75.8024 37.7152C75.1916 38.1839 74.769 38.706 74.5346 39.2812L71.541 38.5994C71.8961 37.6051 72.4146 36.8026 73.0964 36.1918C73.7853 35.5739 74.5772 35.1264 75.4721 34.8494C76.367 34.5653 77.3081 34.4233 78.2953 34.4233C78.9487 34.4233 79.6412 34.5014 80.3727 34.6577C81.1113 34.8068 81.8002 35.0838 82.4395 35.4886C83.0858 35.8935 83.6149 36.4723 84.0268 37.2251C84.4387 37.9709 84.6447 38.9403 84.6447 40.1335V51H81.5339V48.7628H81.4061C81.2001 49.1747 80.8912 49.5795 80.4792 49.9773C80.0673 50.375 79.5382 50.7053 78.8919 50.968C78.2456 51.2308 77.4714 51.3622 76.5694 51.3622ZM77.2619 48.8054C78.1426 48.8054 78.8954 48.6314 79.5204 48.2834C80.1525 47.9354 80.6319 47.4808 80.9586 46.9197C81.2924 46.3516 81.4593 45.7443 81.4593 45.098V42.9886C81.3457 43.1023 81.1255 43.2088 80.7988 43.3082C80.4792 43.4006 80.1135 43.4822 79.7015 43.5533C79.2896 43.6172 78.8883 43.6776 78.4977 43.7344C78.1071 43.7841 77.7804 43.8267 77.5176 43.8622C76.8997 43.9403 76.335 44.0717 75.8237 44.2564C75.3194 44.4411 74.9146 44.7074 74.6092 45.0554C74.3109 45.3963 74.1618 45.8509 74.1618 46.419C74.1618 47.2074 74.4529 47.804 75.0353 48.2088C75.6177 48.6065 76.3599 48.8054 77.2619 48.8054ZM92.0728 41.2841V51H88.8874V34.6364H91.945V37.2997H92.1474C92.5238 36.4332 93.1133 35.7372 93.9158 35.2116C94.7255 34.6861 95.7447 34.4233 96.9734 34.4233C98.0884 34.4233 99.065 34.6577 99.9031 35.1264C100.741 35.5881 101.391 36.277 101.853 37.1932C102.314 38.1094 102.545 39.2422 102.545 40.5916V51H99.3597V40.9751C99.3597 39.7891 99.0508 38.8622 98.4329 38.1946C97.815 37.5199 96.9663 37.1825 95.8867 37.1825C95.1481 37.1825 94.4911 37.3423 93.9158 37.6619C93.3477 37.9815 92.8967 38.4503 92.5629 39.0682C92.2362 39.679 92.0728 40.4176 92.0728 41.2841ZM112.943 51.3196C111.622 51.3196 110.443 50.9822 109.406 50.3075C108.376 49.6257 107.566 48.6562 106.977 47.3991C106.395 46.1349 106.103 44.6186 106.103 42.8501C106.103 41.0817 106.398 39.5689 106.988 38.3118C107.584 37.0547 108.401 36.0923 109.438 35.4247C110.475 34.7571 111.65 34.4233 112.964 34.4233C113.98 34.4233 114.797 34.5938 115.414 34.9347C116.039 35.2685 116.522 35.6591 116.863 36.1065C117.211 36.554 117.481 36.9482 117.673 37.2891H117.865V29.1818H121.05V51H117.939V48.4538H117.673C117.481 48.8018 117.204 49.1996 116.842 49.647C116.487 50.0945 115.997 50.4851 115.372 50.8189C114.747 51.1527 113.937 51.3196 112.943 51.3196ZM113.646 48.603C114.562 48.603 115.336 48.3615 115.968 47.8786C116.608 47.3885 117.091 46.7102 117.417 45.8438C117.751 44.9773 117.918 43.9687 117.918 42.8182C117.918 41.6818 117.755 40.6875 117.428 39.8352C117.101 38.983 116.622 38.3189 115.99 37.843C115.358 37.3672 114.576 37.1293 113.646 37.1293C112.687 37.1293 111.888 37.3778 111.249 37.875C110.61 38.3722 110.127 39.0504 109.8 39.9098C109.48 40.7692 109.321 41.7386 109.321 42.8182C109.321 43.9119 109.484 44.8956 109.811 45.7692C110.137 46.6428 110.62 47.3352 111.26 47.8466C111.906 48.3509 112.701 48.603 113.646 48.603ZM136.721 29.1818V51H133.536V29.1818H136.721ZM145.769 51.3622C144.732 51.3622 143.794 51.1705 142.956 50.7869C142.118 50.3963 141.454 49.8317 140.964 49.093C140.481 48.3544 140.24 47.4489 140.24 46.3764C140.24 45.4531 140.417 44.6932 140.772 44.0966C141.127 43.5 141.607 43.0277 142.21 42.6797C142.814 42.3317 143.489 42.0689 144.235 41.8913C144.98 41.7138 145.74 41.5788 146.514 41.4865C147.494 41.3729 148.29 41.2805 148.901 41.2095C149.512 41.1314 149.955 41.0071 150.232 40.8366C150.509 40.6662 150.648 40.3892 150.648 40.0057V39.9311C150.648 39.0007 150.385 38.2798 149.86 37.7685C149.341 37.2571 148.567 37.0014 147.537 37.0014C146.465 37.0014 145.619 37.2393 145.002 37.7152C144.391 38.1839 143.968 38.706 143.734 39.2812L140.74 38.5994C141.095 37.6051 141.614 36.8026 142.296 36.1918C142.985 35.5739 143.776 35.1264 144.671 34.8494C145.566 34.5653 146.507 34.4233 147.494 34.4233C148.148 34.4233 148.84 34.5014 149.572 34.6577C150.311 34.8068 150.999 35.0838 151.639 35.4886C152.285 35.8935 152.814 36.4723 153.226 37.2251C153.638 37.9709 153.844 38.9403 153.844 40.1335V51H150.733V48.7628H150.605C150.399 49.1747 150.09 49.5795 149.678 49.9773C149.267 50.375 148.737 50.7053 148.091 50.968C147.445 51.2308 146.671 51.3622 145.769 51.3622ZM146.461 48.8054C147.342 48.8054 148.095 48.6314 148.72 48.2834C149.352 47.9354 149.831 47.4808 150.158 46.9197C150.492 46.3516 150.659 45.7443 150.659 45.098V42.9886C150.545 43.1023 150.325 43.2088 149.998 43.3082C149.678 43.4006 149.313 43.4822 148.901 43.5533C148.489 43.6172 148.088 43.6776 147.697 43.7344C147.306 43.7841 146.98 43.8267 146.717 43.8622C146.099 43.9403 145.534 44.0717 145.023 44.2564C144.519 44.4411 144.114 44.7074 143.808 45.0554C143.51 45.3963 143.361 45.8509 143.361 46.419C143.361 47.2074 143.652 47.804 144.235 48.2088C144.817 48.6065 145.559 48.8054 146.461 48.8054ZM168.452 44.2138V34.6364H171.648V51H168.516V48.1662H168.346C167.969 49.0398 167.366 49.7678 166.535 50.3501C165.711 50.9254 164.685 51.2131 163.456 51.2131C162.405 51.2131 161.474 50.9822 160.665 50.5206C159.862 50.0518 159.23 49.3594 158.768 48.4432C158.314 47.527 158.087 46.3942 158.087 45.0447V34.6364H161.272V44.6612C161.272 45.7763 161.581 46.6641 162.199 47.3246C162.817 47.9851 163.619 48.3153 164.607 48.3153C165.203 48.3153 165.796 48.1662 166.386 47.8679C166.982 47.5696 167.476 47.1186 167.866 46.5149C168.264 45.9112 168.46 45.1442 168.452 44.2138ZM179.114 41.2841V51H175.928V34.6364H178.986V37.2997H179.188C179.565 36.4332 180.154 35.7372 180.957 35.2116C181.767 34.6861 182.786 34.4233 184.014 34.4233C185.129 34.4233 186.106 34.6577 186.944 35.1264C187.782 35.5881 188.432 36.277 188.894 37.1932C189.355 38.1094 189.586 39.2422 189.586 40.5916V51H186.401V40.9751C186.401 39.7891 186.092 38.8622 185.474 38.1946C184.856 37.5199 184.007 37.1825 182.928 37.1825C182.189 37.1825 181.532 37.3423 180.957 37.6619C180.389 37.9815 179.938 38.4503 179.604 39.0682C179.277 39.679 179.114 40.4176 179.114 41.2841ZM200.751 51.3303C199.167 51.3303 197.803 50.9716 196.66 50.2543C195.524 49.5298 194.65 48.532 194.039 47.2607C193.428 45.9893 193.123 44.5334 193.123 42.8928C193.123 41.2308 193.436 39.7642 194.061 38.4929C194.686 37.2145 195.566 36.2166 196.703 35.4993C197.839 34.782 199.178 34.4233 200.719 34.4233C201.962 34.4233 203.07 34.6541 204.043 35.1158C205.016 35.5703 205.801 36.2095 206.397 37.0334C207.001 37.8572 207.36 38.8196 207.473 39.9205H204.373C204.203 39.1534 203.812 38.4929 203.201 37.9389C202.597 37.3849 201.788 37.108 200.772 37.108C199.884 37.108 199.107 37.3423 198.439 37.8111C197.779 38.2727 197.264 38.9332 196.894 39.7926C196.525 40.6449 196.34 41.6534 196.34 42.8182C196.34 44.0114 196.521 45.0412 196.884 45.9077C197.246 46.7741 197.757 47.4453 198.418 47.9212C199.085 48.397 199.87 48.6349 200.772 48.6349C201.376 48.6349 201.923 48.5249 202.413 48.3047C202.91 48.0774 203.325 47.7543 203.659 47.3352C204 46.9162 204.238 46.4119 204.373 45.8224H207.473C207.36 46.8807 207.015 47.8253 206.44 48.6562C205.865 49.4872 205.094 50.1406 204.128 50.6165C203.169 51.0923 202.044 51.3303 200.751 51.3303ZM214.065 41.2841V51H210.88V29.1818H214.022V37.2997H214.225C214.608 36.419 215.194 35.7195 215.983 35.201C216.771 34.6825 217.801 34.4233 219.072 34.4233C220.194 34.4233 221.174 34.6541 222.012 35.1158C222.858 35.5774 223.511 36.2663 223.973 37.1825C224.441 38.0916 224.676 39.228 224.676 40.5916V51H221.49V40.9751C221.49 39.7749 221.181 38.8445 220.564 38.1839C219.946 37.5163 219.086 37.1825 217.985 37.1825C217.233 37.1825 216.558 37.3423 215.961 37.6619C215.372 37.9815 214.907 38.4503 214.566 39.0682C214.232 39.679 214.065 40.4176 214.065 41.2841ZM235.979 51.3303C234.367 51.3303 232.978 50.9858 231.814 50.2969C230.656 49.6009 229.761 48.6243 229.129 47.3672C228.504 46.103 228.191 44.6222 228.191 42.9247C228.191 41.2486 228.504 39.7713 229.129 38.4929C229.761 37.2145 230.642 36.2166 231.771 35.4993C232.907 34.782 234.235 34.4233 235.755 34.4233C236.679 34.4233 237.574 34.576 238.44 34.8814C239.306 35.1868 240.084 35.6662 240.773 36.3196C241.462 36.973 242.005 37.8217 242.403 38.8658C242.801 39.9027 243 41.1634 243 42.6477V43.777H229.992V41.3906H239.878C239.878 40.5526 239.708 39.8104 239.367 39.1641C239.026 38.5107 238.547 37.9957 237.929 37.6193C237.318 37.2429 236.6 37.0547 235.777 37.0547C234.882 37.0547 234.1 37.2749 233.433 37.7152C232.772 38.1484 232.261 38.7166 231.899 39.4197C231.544 40.1158 231.366 40.8722 231.366 41.6889V43.5533C231.366 44.647 231.558 45.5774 231.941 46.3445C232.332 47.1115 232.875 47.6974 233.571 48.1023C234.267 48.5 235.081 48.6989 236.011 48.6989C236.615 48.6989 237.165 48.6136 237.662 48.4432C238.159 48.2656 238.589 48.0028 238.951 47.6548C239.314 47.3068 239.591 46.8771 239.782 46.3658L242.797 46.9091C242.556 47.7969 242.123 48.5746 241.498 49.2422C240.88 49.9027 240.102 50.4176 239.164 50.7869C238.234 51.1491 237.172 51.3303 235.979 51.3303ZM258.796 38.6314L255.909 39.1428C255.788 38.7734 255.596 38.4219 255.334 38.0881C255.078 37.7543 254.73 37.4808 254.29 37.2678C253.849 37.0547 253.299 36.9482 252.638 36.9482C251.736 36.9482 250.983 37.1506 250.38 37.5554C249.776 37.9531 249.474 38.468 249.474 39.1001C249.474 39.647 249.677 40.0874 250.081 40.4212C250.486 40.755 251.14 41.0284 252.042 41.2415L254.641 41.8381C256.147 42.1861 257.269 42.7223 258.008 43.4467C258.746 44.1712 259.116 45.1122 259.116 46.2699C259.116 47.25 258.831 48.1236 258.263 48.8906C257.702 49.6506 256.917 50.2472 255.909 50.6804C254.907 51.1136 253.746 51.3303 252.425 51.3303C250.593 51.3303 249.098 50.9396 247.94 50.1584C246.782 49.37 246.072 48.2514 245.809 46.8026L248.888 46.3338C249.08 47.1364 249.474 47.7436 250.071 48.1555C250.667 48.5604 251.445 48.7628 252.404 48.7628C253.448 48.7628 254.282 48.5462 254.907 48.1129C255.532 47.6726 255.845 47.1364 255.845 46.5043C255.845 45.9929 255.653 45.5632 255.27 45.2152C254.893 44.8672 254.314 44.6044 253.533 44.4268L250.763 43.8196C249.236 43.4716 248.107 42.9176 247.376 42.1577C246.651 41.3977 246.289 40.4354 246.289 39.2706C246.289 38.3047 246.559 37.4595 247.099 36.7351C247.638 36.0107 248.384 35.446 249.336 35.0412C250.287 34.6293 251.378 34.4233 252.606 34.4233C254.375 34.4233 255.767 34.8068 256.782 35.5739C257.798 36.3338 258.469 37.353 258.796 38.6314ZM282.819 38.6314L279.932 39.1428C279.812 38.7734 279.62 38.4219 279.357 38.0881C279.101 37.7543 278.753 37.4808 278.313 37.2678C277.873 37.0547 277.322 36.9482 276.662 36.9482C275.76 36.9482 275.007 37.1506 274.403 37.5554C273.8 37.9531 273.498 38.468 273.498 39.1001C273.498 39.647 273.7 40.0874 274.105 40.4212C274.51 40.755 275.163 41.0284 276.065 41.2415L278.665 41.8381C280.17 42.1861 281.292 42.7223 282.031 43.4467C282.77 44.1712 283.139 45.1122 283.139 46.2699C283.139 47.25 282.855 48.1236 282.287 48.8906C281.726 49.6506 280.941 50.2472 279.932 50.6804C278.931 51.1136 277.77 51.3303 276.449 51.3303C274.616 51.3303 273.121 50.9396 271.964 50.1584C270.806 49.37 270.096 48.2514 269.833 46.8026L272.912 46.3338C273.104 47.1364 273.498 47.7436 274.094 48.1555C274.691 48.5604 275.469 48.7628 276.427 48.7628C277.471 48.7628 278.306 48.5462 278.931 48.1129C279.556 47.6726 279.868 47.1364 279.868 46.5043C279.868 45.9929 279.677 45.5632 279.293 45.2152C278.917 44.8672 278.338 44.6044 277.557 44.4268L274.787 43.8196C273.26 43.4716 272.131 42.9176 271.399 42.1577C270.675 41.3977 270.312 40.4354 270.312 39.2706C270.312 38.3047 270.582 37.4595 271.122 36.7351C271.662 36.0107 272.407 35.446 273.359 35.0412C274.311 34.6293 275.401 34.4233 276.63 34.4233C278.398 34.4233 279.79 34.8068 280.806 35.5739C281.822 36.3338 282.493 37.353 282.819 38.6314ZM293.694 51.3303C292.082 51.3303 290.693 50.9858 289.528 50.2969C288.371 49.6009 287.476 48.6243 286.844 47.3672C286.219 46.103 285.906 44.6222 285.906 42.9247C285.906 41.2486 286.219 39.7713 286.844 38.4929C287.476 37.2145 288.357 36.2166 289.486 35.4993C290.622 34.782 291.95 34.4233 293.47 34.4233C294.393 34.4233 295.288 34.576 296.155 34.8814C297.021 35.1868 297.799 35.6662 298.488 36.3196C299.177 36.973 299.72 37.8217 300.118 38.8658C300.516 39.9027 300.714 41.1634 300.714 42.6477V43.777H287.707V41.3906H297.593C297.593 40.5526 297.423 39.8104 297.082 39.1641C296.741 38.5107 296.261 37.9957 295.643 37.6193C295.033 37.2429 294.315 37.0547 293.491 37.0547C292.597 37.0547 291.815 37.2749 291.148 37.7152C290.487 38.1484 289.976 38.7166 289.614 39.4197C289.259 40.1158 289.081 40.8722 289.081 41.6889V43.5533C289.081 44.647 289.273 45.5774 289.656 46.3445C290.047 47.1115 290.59 47.6974 291.286 48.1023C291.982 48.5 292.795 48.6989 293.726 48.6989C294.33 48.6989 294.88 48.6136 295.377 48.4432C295.874 48.2656 296.304 48.0028 296.666 47.6548C297.028 47.3068 297.305 46.8771 297.497 46.3658L300.512 46.9091C300.271 47.7969 299.837 48.5746 299.212 49.2422C298.594 49.9027 297.817 50.4176 296.879 50.7869C295.949 51.1491 294.887 51.3303 293.694 51.3303ZM311.301 51.3303C309.689 51.3303 308.301 50.9858 307.136 50.2969C305.978 49.6009 305.083 48.6243 304.451 47.3672C303.826 46.103 303.514 44.6222 303.514 42.9247C303.514 41.2486 303.826 39.7713 304.451 38.4929C305.083 37.2145 305.964 36.2166 307.093 35.4993C308.23 34.782 309.558 34.4233 311.078 34.4233C312.001 34.4233 312.896 34.576 313.762 34.8814C314.629 35.1868 315.406 35.6662 316.095 36.3196C316.784 36.973 317.328 37.8217 317.725 38.8658C318.123 39.9027 318.322 41.1634 318.322 42.6477V43.777H305.314V41.3906H315.2C315.2 40.5526 315.03 39.8104 314.689 39.1641C314.348 38.5107 313.869 37.9957 313.251 37.6193C312.64 37.2429 311.923 37.0547 311.099 37.0547C310.204 37.0547 309.423 37.2749 308.755 37.7152C308.095 38.1484 307.583 38.7166 307.221 39.4197C306.866 40.1158 306.688 40.8722 306.688 41.6889V43.5533C306.688 44.647 306.88 45.5774 307.264 46.3445C307.654 47.1115 308.198 47.6974 308.894 48.1023C309.59 48.5 310.403 48.6989 311.333 48.6989C311.937 48.6989 312.487 48.6136 312.985 48.4432C313.482 48.2656 313.911 48.0028 314.274 47.6548C314.636 47.3068 314.913 46.8771 315.105 46.3658L318.119 46.9091C317.878 47.7969 317.445 48.5746 316.82 49.2422C316.202 49.9027 315.424 50.4176 314.487 50.7869C313.556 51.1491 312.494 51.3303 311.301 51.3303ZM324.786 45.4496L324.765 41.5611H325.319L331.838 34.6364H335.652L328.216 42.5199H327.716L324.786 45.4496ZM321.856 51V29.1818H325.042V51H321.856ZM332.19 51L326.331 43.223L328.525 40.9964L336.1 51H332.19ZM338.555 51V34.6364H341.741V51H338.555ZM340.164 32.1115C339.61 32.1115 339.134 31.9268 338.737 31.5575C338.346 31.1811 338.151 30.7337 338.151 30.2152C338.151 29.6896 338.346 29.2422 338.737 28.8729C339.134 28.4964 339.61 28.3082 340.164 28.3082C340.718 28.3082 341.19 28.4964 341.581 28.8729C341.979 29.2422 342.178 29.6896 342.178 30.2152C342.178 30.7337 341.979 31.1811 341.581 31.5575C341.19 31.9268 340.718 32.1115 340.164 32.1115ZM349.211 41.2841V51H346.026V34.6364H349.084V37.2997H349.286C349.662 36.4332 350.252 35.7372 351.055 35.2116C351.864 34.6861 352.883 34.4233 354.112 34.4233C355.227 34.4233 356.204 34.6577 357.042 35.1264C357.88 35.5881 358.53 36.277 358.991 37.1932C359.453 38.1094 359.684 39.2422 359.684 40.5916V51H356.498V40.9751C356.498 39.7891 356.189 38.8622 355.572 38.1946C354.954 37.5199 354.105 37.1825 353.025 37.1825C352.287 37.1825 351.63 37.3423 351.055 37.6619C350.486 37.9815 350.035 38.4503 349.702 39.0682C349.375 39.679 349.211 40.4176 349.211 41.2841ZM370.817 57.4773C369.517 57.4773 368.398 57.3068 367.461 56.9659C366.53 56.625 365.77 56.174 365.181 55.6129C364.591 55.0518 364.151 54.4375 363.86 53.7699L366.598 52.6406C366.79 52.9531 367.045 53.2834 367.365 53.6314C367.692 53.9865 368.132 54.2884 368.686 54.5369C369.247 54.7855 369.968 54.9098 370.849 54.9098C372.056 54.9098 373.054 54.6151 373.842 54.0256C374.631 53.4432 375.025 52.5128 375.025 51.2344V48.017H374.822C374.631 48.3651 374.354 48.7521 373.991 49.1783C373.636 49.6044 373.146 49.9737 372.521 50.2862C371.896 50.5987 371.083 50.755 370.081 50.755C368.789 50.755 367.624 50.4531 366.587 49.8494C365.557 49.2386 364.741 48.3402 364.137 47.1541C363.54 45.9609 363.242 44.4943 363.242 42.7543C363.242 41.0142 363.537 39.5227 364.126 38.2798C364.723 37.0369 365.54 36.0852 366.577 35.4247C367.613 34.7571 368.789 34.4233 370.103 34.4233C371.118 34.4233 371.939 34.5938 372.564 34.9347C373.189 35.2685 373.675 35.6591 374.023 36.1065C374.378 36.554 374.652 36.9482 374.844 37.2891H375.078V34.6364H378.199V51.3622C378.199 52.7685 377.873 53.9226 377.219 54.8246C376.566 55.7266 375.682 56.3942 374.567 56.8274C373.459 57.2607 372.209 57.4773 370.817 57.4773ZM370.785 48.1129C371.701 48.1129 372.475 47.8999 373.107 47.4737C373.746 47.0405 374.229 46.4226 374.556 45.62C374.89 44.8104 375.057 43.8409 375.057 42.7116C375.057 41.6108 374.893 40.6413 374.567 39.8033C374.24 38.9652 373.76 38.3118 373.128 37.843C372.496 37.3672 371.715 37.1293 370.785 37.1293C369.826 37.1293 369.027 37.3778 368.388 37.875C367.748 38.3651 367.265 39.0327 366.939 39.8778C366.619 40.723 366.459 41.6676 366.459 42.7116C366.459 43.7841 366.623 44.7251 366.949 45.5348C367.276 46.3445 367.759 46.9766 368.398 47.4311C369.045 47.8857 369.84 48.1129 370.785 48.1129ZM58.0085 87V70.6364H61.0661V73.2997H61.2685C61.6094 72.3977 62.1669 71.6946 62.9411 71.1903C63.7152 70.679 64.642 70.4233 65.7216 70.4233C66.8153 70.4233 67.7315 70.679 68.4702 71.1903C69.2159 71.7017 69.7663 72.4048 70.1214 73.2997H70.2919C70.6825 72.4261 71.304 71.7301 72.1562 71.2116C73.0085 70.6861 74.0241 70.4233 75.2031 70.4233C76.6875 70.4233 77.8984 70.8885 78.8359 71.8189C79.7805 72.7493 80.2528 74.152 80.2528 76.027V87H77.0675V76.3253C77.0675 75.2173 76.7656 74.4148 76.1619 73.9176C75.5582 73.4205 74.8374 73.1719 73.9993 73.1719C72.9624 73.1719 72.1562 73.4915 71.581 74.1307C71.0057 74.7628 70.718 75.576 70.718 76.5703V87H67.5433V76.1229C67.5433 75.2351 67.2663 74.5213 66.7124 73.9815C66.1584 73.4418 65.4375 73.1719 64.5497 73.1719C63.946 73.1719 63.3885 73.3317 62.8771 73.6513C62.3729 73.9638 61.9645 74.4006 61.652 74.9616C61.3466 75.5227 61.1939 76.1726 61.1939 76.9112V87H58.0085ZM89.2843 87.3622C88.2473 87.3622 87.3098 87.1705 86.4718 86.7869C85.6337 86.3963 84.9696 85.8317 84.4796 85.093C83.9966 84.3544 83.7551 83.4489 83.7551 82.3764C83.7551 81.4531 83.9327 80.6932 84.2878 80.0966C84.6429 79.5 85.1223 79.0277 85.726 78.6797C86.3297 78.3317 87.0044 78.0689 87.7502 77.8913C88.4959 77.7138 89.2559 77.5788 90.03 77.4865C91.0101 77.3729 91.8056 77.2805 92.4164 77.2095C93.0272 77.1314 93.4711 77.0071 93.748 76.8366C94.025 76.6662 94.1635 76.3892 94.1635 76.0057V75.9311C94.1635 75.0007 93.9007 74.2798 93.3752 73.7685C92.8567 73.2571 92.0826 73.0014 91.0527 73.0014C89.9803 73.0014 89.1351 73.2393 88.5172 73.7152C87.9064 74.1839 87.4838 74.706 87.2495 75.2812L84.2559 74.5994C84.611 73.6051 85.1294 72.8026 85.8113 72.1918C86.5002 71.5739 87.2921 71.1264 88.187 70.8494C89.0819 70.5653 90.0229 70.4233 91.0101 70.4233C91.6635 70.4233 92.356 70.5014 93.0875 70.6577C93.8262 70.8068 94.5151 71.0838 95.1543 71.4886C95.8006 71.8935 96.3297 72.4723 96.7417 73.2251C97.1536 73.9709 97.3596 74.9403 97.3596 76.1335V87H94.2488V84.7628H94.1209C93.915 85.1747 93.606 85.5795 93.1941 85.9773C92.7821 86.375 92.253 86.7053 91.6067 86.968C90.9604 87.2308 90.1863 87.3622 89.2843 87.3622ZM89.9767 84.8054C90.8574 84.8054 91.6103 84.6314 92.2353 84.2834C92.8674 83.9354 93.3468 83.4808 93.6735 82.9197C94.0073 82.3516 94.1742 81.7443 94.1742 81.098V78.9886C94.0605 79.1023 93.8404 79.2088 93.5137 79.3082C93.1941 79.4006 92.8283 79.4822 92.4164 79.5533C92.0044 79.6172 91.6032 79.6776 91.2125 79.7344C90.8219 79.7841 90.4952 79.8267 90.2324 79.8622C89.6145 79.9403 89.0499 80.0717 88.5385 80.2564C88.0343 80.4411 87.6294 80.7074 87.324 81.0554C87.0257 81.3963 86.8766 81.8509 86.8766 82.419C86.8766 83.2074 87.1678 83.804 87.7502 84.2088C88.3326 84.6065 89.0748 84.8054 89.9767 84.8054ZM104.116 70.6364L107.728 77.0071L111.371 70.6364H114.855L109.752 78.8182L114.898 87H111.414L107.728 80.8849L104.053 87H100.558L105.651 78.8182L100.622 70.6364H104.116ZM118.126 87V70.6364H121.311V87H118.126ZM119.734 68.1115C119.18 68.1115 118.705 67.9268 118.307 67.5575C117.916 67.1811 117.721 66.7337 117.721 66.2152C117.721 65.6896 117.916 65.2422 118.307 64.8729C118.705 64.4964 119.18 64.3082 119.734 64.3082C120.288 64.3082 120.761 64.4964 121.151 64.8729C121.549 65.2422 121.748 65.6896 121.748 66.2152C121.748 66.7337 121.549 67.1811 121.151 67.5575C120.761 67.9268 120.288 68.1115 119.734 68.1115ZM125.596 87V70.6364H128.654V73.2997H128.856C129.197 72.3977 129.755 71.6946 130.529 71.1903C131.303 70.679 132.23 70.4233 133.309 70.4233C134.403 70.4233 135.319 70.679 136.058 71.1903C136.804 71.7017 137.354 72.4048 137.709 73.2997H137.88C138.27 72.4261 138.892 71.7301 139.744 71.2116C140.596 70.6861 141.612 70.4233 142.791 70.4233C144.275 70.4233 145.486 70.8885 146.424 71.8189C147.368 72.7493 147.841 74.152 147.841 76.027V87H144.655V76.3253C144.655 75.2173 144.354 74.4148 143.75 73.9176C143.146 73.4205 142.425 73.1719 141.587 73.1719C140.55 73.1719 139.744 73.4915 139.169 74.1307C138.594 74.7628 138.306 75.576 138.306 76.5703V87H135.131V76.1229C135.131 75.2351 134.854 74.5213 134.3 73.9815C133.746 73.4418 133.025 73.1719 132.138 73.1719C131.534 73.1719 130.976 73.3317 130.465 73.6513C129.961 73.9638 129.552 74.4006 129.24 74.9616C128.934 75.5227 128.782 76.1726 128.782 76.9112V87H125.596ZM162.476 80.2138V70.6364H165.672V87H162.54V84.1662H162.369C161.993 85.0398 161.389 85.7678 160.558 86.3501C159.734 86.9254 158.708 87.2131 157.479 87.2131C156.428 87.2131 155.498 86.9822 154.688 86.5206C153.886 86.0518 153.254 85.3594 152.792 84.4432C152.337 83.527 152.11 82.3942 152.11 81.0447V70.6364H155.295V80.6612C155.295 81.7763 155.604 82.6641 156.222 83.3246C156.84 83.9851 157.643 84.3153 158.63 84.3153C159.227 84.3153 159.82 84.1662 160.409 83.8679C161.006 83.5696 161.499 83.1186 161.89 82.5149C162.288 81.9112 162.483 81.1442 162.476 80.2138ZM169.952 87V70.6364H173.009V73.2997H173.212C173.553 72.3977 174.11 71.6946 174.884 71.1903C175.659 70.679 176.585 70.4233 177.665 70.4233C178.759 70.4233 179.675 70.679 180.414 71.1903C181.159 71.7017 181.71 72.4048 182.065 73.2997H182.235C182.626 72.4261 183.247 71.7301 184.1 71.2116C184.952 70.6861 185.968 70.4233 187.146 70.4233C188.631 70.4233 189.842 70.8885 190.779 71.8189C191.724 72.7493 192.196 74.152 192.196 76.027V87H189.011V76.3253C189.011 75.2173 188.709 74.4148 188.105 73.9176C187.502 73.4205 186.781 73.1719 185.943 73.1719C184.906 73.1719 184.1 73.4915 183.524 74.1307C182.949 74.7628 182.661 75.576 182.661 76.5703V87H179.487V76.1229C179.487 75.2351 179.21 74.5213 178.656 73.9815C178.102 73.4418 177.381 73.1719 176.493 73.1719C175.889 73.1719 175.332 73.3317 174.82 73.6513C174.316 73.9638 173.908 74.4006 173.595 74.9616C173.29 75.5227 173.137 76.1726 173.137 76.9112V87H169.952ZM216.667 74.6314L213.78 75.1428C213.659 74.7734 213.468 74.4219 213.205 74.0881C212.949 73.7543 212.601 73.4808 212.161 73.2678C211.72 73.0547 211.17 72.9482 210.509 72.9482C209.607 72.9482 208.855 73.1506 208.251 73.5554C207.647 73.9531 207.345 74.468 207.345 75.1001C207.345 75.647 207.548 76.0874 207.953 76.4212C208.357 76.755 209.011 77.0284 209.913 77.2415L212.512 77.8381C214.018 78.1861 215.14 78.7223 215.879 79.4467C216.617 80.1712 216.987 81.1122 216.987 82.2699C216.987 83.25 216.703 84.1236 216.134 84.8906C215.573 85.6506 214.789 86.2472 213.78 86.6804C212.779 87.1136 211.617 87.3303 210.296 87.3303C208.464 87.3303 206.969 86.9396 205.811 86.1584C204.654 85.37 203.943 84.2514 203.681 82.8026L206.759 82.3338C206.951 83.1364 207.345 83.7436 207.942 84.1555C208.539 84.5604 209.316 84.7628 210.275 84.7628C211.319 84.7628 212.154 84.5462 212.779 84.1129C213.404 83.6726 213.716 83.1364 213.716 82.5043C213.716 81.9929 213.524 81.5632 213.141 81.2152C212.764 80.8672 212.186 80.6044 211.404 80.4268L208.634 79.8196C207.107 79.4716 205.978 78.9176 205.247 78.1577C204.522 77.3977 204.16 76.4354 204.16 75.2706C204.16 74.3047 204.43 73.4595 204.97 72.7351C205.509 72.0107 206.255 71.446 207.207 71.0412C208.159 70.6293 209.249 70.4233 210.477 70.4233C212.246 70.4233 213.638 70.8068 214.654 71.5739C215.669 72.3338 216.34 73.353 216.667 74.6314ZM227.382 87.3303C225.848 87.3303 224.509 86.9787 223.365 86.2756C222.222 85.5724 221.334 84.5888 220.702 83.3246C220.07 82.0604 219.754 80.5831 219.754 78.8928C219.754 77.1953 220.07 75.7109 220.702 74.4396C221.334 73.1683 222.222 72.1811 223.365 71.478C224.509 70.7749 225.848 70.4233 227.382 70.4233C228.916 70.4233 230.255 70.7749 231.398 71.478C232.542 72.1811 233.429 73.1683 234.061 74.4396C234.694 75.7109 235.01 77.1953 235.01 78.8928C235.01 80.5831 234.694 82.0604 234.061 83.3246C233.429 84.5888 232.542 85.5724 231.398 86.2756C230.255 86.9787 228.916 87.3303 227.382 87.3303ZM227.392 84.6562C228.387 84.6562 229.211 84.3935 229.864 83.8679C230.517 83.3423 231 82.6428 231.313 81.7692C231.632 80.8956 231.792 79.9332 231.792 78.8821C231.792 77.8381 231.632 76.8793 231.313 76.0057C231 75.125 230.517 74.4183 229.864 73.8857C229.211 73.353 228.387 73.0866 227.392 73.0866C226.391 73.0866 225.56 73.353 224.9 73.8857C224.246 74.4183 223.76 75.125 223.44 76.0057C223.127 76.8793 222.971 77.8381 222.971 78.8821C222.971 79.9332 223.127 80.8956 223.44 81.7692C223.76 82.6428 224.246 83.3423 224.9 83.8679C225.56 84.3935 226.391 84.6562 227.392 84.6562ZM245.458 87.3303C243.874 87.3303 242.51 86.9716 241.367 86.2543C240.231 85.5298 239.357 84.532 238.746 83.2607C238.135 81.9893 237.83 80.5334 237.83 78.8928C237.83 77.2308 238.143 75.7642 238.768 74.4929C239.393 73.2145 240.273 72.2166 241.41 71.4993C242.546 70.782 243.885 70.4233 245.426 70.4233C246.669 70.4233 247.777 70.6541 248.75 71.1158C249.723 71.5703 250.508 72.2095 251.104 73.0334C251.708 73.8572 252.067 74.8196 252.18 75.9205H249.08C248.91 75.1534 248.519 74.4929 247.908 73.9389C247.305 73.3849 246.495 73.108 245.479 73.108C244.591 73.108 243.814 73.3423 243.146 73.8111C242.486 74.2727 241.971 74.9332 241.601 75.7926C241.232 76.6449 241.047 77.6534 241.047 78.8182C241.047 80.0114 241.229 81.0412 241.591 81.9077C241.953 82.7741 242.464 83.4453 243.125 83.9212C243.792 84.397 244.577 84.6349 245.479 84.6349C246.083 84.6349 246.63 84.5249 247.12 84.3047C247.617 84.0774 248.032 83.7543 248.366 83.3352C248.707 82.9162 248.945 82.4119 249.08 81.8224H252.18C252.067 82.8807 251.722 83.8253 251.147 84.6562C250.572 85.4872 249.801 86.1406 248.835 86.6165C247.876 87.0923 246.751 87.3303 245.458 87.3303ZM255.587 87V70.6364H258.772V87H255.587ZM257.195 68.1115C256.641 68.1115 256.165 67.9268 255.768 67.5575C255.377 67.1811 255.182 66.7337 255.182 66.2152C255.182 65.6896 255.377 65.2422 255.768 64.8729C256.165 64.4964 256.641 64.3082 257.195 64.3082C257.749 64.3082 258.222 64.4964 258.612 64.8729C259.01 65.2422 259.209 65.6896 259.209 66.2152C259.209 66.7337 259.01 67.1811 258.612 67.5575C258.222 67.9268 257.749 68.1115 257.195 68.1115ZM267.819 87.3622C266.782 87.3622 265.845 87.1705 265.007 86.7869C264.169 86.3963 263.505 85.8317 263.015 85.093C262.532 84.3544 262.29 83.4489 262.29 82.3764C262.29 81.4531 262.468 80.6932 262.823 80.0966C263.178 79.5 263.657 79.0277 264.261 78.6797C264.865 78.3317 265.54 78.0689 266.285 77.8913C267.031 77.7138 267.791 77.5788 268.565 77.4865C269.545 77.3729 270.341 77.2805 270.952 77.2095C271.562 77.1314 272.006 77.0071 272.283 76.8366C272.56 76.6662 272.699 76.3892 272.699 76.0057V75.9311C272.699 75.0007 272.436 74.2798 271.91 73.7685C271.392 73.2571 270.618 73.0014 269.588 73.0014C268.515 73.0014 267.67 73.2393 267.052 73.7152C266.442 74.1839 266.019 74.706 265.785 75.2812L262.791 74.5994C263.146 73.6051 263.665 72.8026 264.346 72.1918C265.035 71.5739 265.827 71.1264 266.722 70.8494C267.617 70.5653 268.558 70.4233 269.545 70.4233C270.199 70.4233 270.891 70.5014 271.623 70.6577C272.361 70.8068 273.05 71.0838 273.689 71.4886C274.336 71.8935 274.865 72.4723 275.277 73.2251C275.689 73.9709 275.895 74.9403 275.895 76.1335V87H272.784V84.7628H272.656C272.45 85.1747 272.141 85.5795 271.729 85.9773C271.317 86.375 270.788 86.7053 270.142 86.968C269.496 87.2308 268.721 87.3622 267.819 87.3622ZM268.512 84.8054C269.393 84.8054 270.145 84.6314 270.77 84.2834C271.403 83.9354 271.882 83.4808 272.209 82.9197C272.542 82.3516 272.709 81.7443 272.709 81.098V78.9886C272.596 79.1023 272.376 79.2088 272.049 79.3082C271.729 79.4006 271.363 79.4822 270.952 79.5533C270.54 79.6172 270.138 79.6776 269.748 79.7344C269.357 79.7841 269.03 79.8267 268.768 79.8622C268.15 79.9403 267.585 80.0717 267.074 80.2564C266.569 80.4411 266.165 80.7074 265.859 81.0554C265.561 81.3963 265.412 81.8509 265.412 82.419C265.412 83.2074 265.703 83.804 266.285 84.2088C266.868 84.6065 267.61 84.8054 268.512 84.8054ZM283.323 65.1818V87H280.137V65.1818H283.323ZM295.803 87V65.1818H298.989V73.2891H299.18C299.365 72.9482 299.631 72.554 299.979 72.1065C300.327 71.6591 300.81 71.2685 301.428 70.9347C302.046 70.5938 302.863 70.4233 303.879 70.4233C305.2 70.4233 306.379 70.7571 307.415 71.4247C308.452 72.0923 309.266 73.0547 309.855 74.3118C310.452 75.5689 310.75 77.0817 310.75 78.8501C310.75 80.6186 310.455 82.1349 309.866 83.3991C309.276 84.6562 308.467 85.6257 307.437 86.3075C306.407 86.9822 305.232 87.3196 303.911 87.3196C302.916 87.3196 302.103 87.1527 301.471 86.8189C300.846 86.4851 300.356 86.0945 300.001 85.647C299.646 85.1996 299.372 84.8018 299.18 84.4538H298.914V87H295.803ZM298.925 78.8182C298.925 79.9687 299.092 80.9773 299.425 81.8438C299.759 82.7102 300.242 83.3885 300.874 83.8786C301.506 84.3615 302.281 84.603 303.197 84.603C304.148 84.603 304.944 84.3509 305.583 83.8466C306.222 83.3352 306.705 82.6428 307.032 81.7692C307.366 80.8956 307.533 79.9119 307.533 78.8182C307.533 77.7386 307.369 76.7692 307.043 75.9098C306.723 75.0504 306.24 74.3722 305.594 73.875C304.955 73.3778 304.156 73.1293 303.197 73.1293C302.273 73.1293 301.492 73.3672 300.853 73.843C300.221 74.3189 299.741 74.983 299.415 75.8352C299.088 76.6875 298.925 77.6818 298.925 78.8182ZM324.693 80.2138V70.6364H327.889V87H324.757V84.1662H324.586C324.21 85.0398 323.606 85.7678 322.775 86.3501C321.951 86.9254 320.925 87.2131 319.696 87.2131C318.645 87.2131 317.715 86.9822 316.905 86.5206C316.102 86.0518 315.47 85.3594 315.009 84.4432C314.554 83.527 314.327 82.3942 314.327 81.0447V70.6364H317.512V80.6612C317.512 81.7763 317.821 82.6641 318.439 83.3246C319.057 83.9851 319.86 84.3153 320.847 84.3153C321.443 84.3153 322.036 84.1662 322.626 83.8679C323.222 83.5696 323.716 83.1186 324.107 82.5149C324.504 81.9112 324.7 81.1442 324.693 80.2138ZM331.828 87V84.8161L340.691 73.5554V73.4062H332.115V70.6364H344.665V72.9588L336.142 84.081V84.2301H344.963V87H331.828ZM348.381 87V84.8161L357.244 73.5554V73.4062H348.668V70.6364H361.218V72.9588L352.695 84.081V84.2301H361.516V87H348.381Z" fill="#5A0400"/>
</svg>
