<svg width="388" height="116" viewBox="0 0 388 116" fill="none" xmlns="http://www.w3.org/2000/svg">
<path d="M0 50C0 22.3858 22.3858 0 50 0H338C365.614 0 388 22.3858 388 50V66C388 93.6142 365.614 116 338 116H0V50Z" fill="#F5D4CB" fill-opacity="0.76"/>
<path d="M41.4996 51V29.1818H55.0294V32.0156H44.7915V38.6634H54.0599V41.4865H44.7915V51H41.4996ZM64.6734 51.3303C63.0612 51.3303 61.6727 50.9858 60.5079 50.2969C59.3502 49.6009 58.4553 48.6243 57.8232 47.3672C57.1982 46.103 56.8857 44.6222 56.8857 42.9247C56.8857 41.2486 57.1982 39.7713 57.8232 38.4929C58.4553 37.2145 59.336 36.2166 60.4653 35.4993C61.6017 34.782 62.9298 34.4233 64.4497 34.4233C65.373 34.4233 66.2678 34.576 67.1343 34.8814C68.0008 35.1868 68.7785 35.6662 69.4674 36.3196C70.1563 36.973 70.6997 37.8217 71.0974 38.8658C71.4951 39.9027 71.694 41.1634 71.694 42.6477V43.777H58.6862V41.3906H68.5725C68.5725 40.5526 68.4021 39.8104 68.0612 39.1641C67.7203 38.5107 67.2409 37.9957 66.623 37.6193C66.0122 37.2429 65.2948 37.0547 64.471 37.0547C63.5761 37.0547 62.7948 37.2749 62.1272 37.7152C61.4667 38.1484 60.9553 38.7166 60.5931 39.4197C60.238 40.1158 60.0605 40.8722 60.0605 41.6889V43.5533C60.0605 44.647 60.2522 45.5774 60.6357 46.3445C61.0264 47.1115 61.5697 47.6974 62.2657 48.1023C62.9617 48.5 63.7749 48.6989 64.7053 48.6989C65.309 48.6989 65.8595 48.6136 66.3566 48.4432C66.8538 48.2656 67.2835 48.0028 67.6457 47.6548C68.0079 47.3068 68.2849 46.8771 68.4767 46.3658L71.4916 46.9091C71.2501 47.7969 70.8169 48.5746 70.1919 49.2422C69.574 49.9027 68.7963 50.4176 67.8588 50.7869C66.9284 51.1491 65.8666 51.3303 64.6734 51.3303ZM87.4903 38.6314L84.6032 39.1428C84.4825 38.7734 84.2907 38.4219 84.028 38.0881C83.7723 37.7543 83.4243 37.4808 82.9839 37.2678C82.5436 37.0547 81.9932 36.9482 81.3327 36.9482C80.4307 36.9482 79.6778 37.1506 79.0741 37.5554C78.4704 37.9531 78.1686 38.468 78.1686 39.1001C78.1686 39.647 78.371 40.0874 78.7758 40.4212C79.1807 40.755 79.8341 41.0284 80.7361 41.2415L83.3355 41.8381C84.8412 42.1861 85.9633 42.7223 86.702 43.4467C87.4406 44.1712 87.8099 45.1122 87.8099 46.2699C87.8099 47.25 87.5258 48.1236 86.9577 48.8906C86.3966 49.6506 85.6118 50.2472 84.6032 50.6804C83.6018 51.1136 82.4406 51.3303 81.1196 51.3303C79.2872 51.3303 77.7922 50.9396 76.6345 50.1584C75.4768 49.37 74.7666 48.2514 74.5038 46.8026L77.5827 46.3338C77.7744 47.1364 78.1686 47.7436 78.7652 48.1555C79.3618 48.5604 80.1395 48.7628 81.0983 48.7628C82.1423 48.7628 82.9768 48.5462 83.6018 48.1129C84.2268 47.6726 84.5393 47.1364 84.5393 46.5043C84.5393 45.9929 84.3476 45.5632 83.964 45.2152C83.5876 44.8672 83.0088 44.6044 82.2275 44.4268L79.4577 43.8196C77.9307 43.4716 76.8014 42.9176 76.0699 42.1577C75.3454 41.3977 74.9832 40.4354 74.9832 39.2706C74.9832 38.3047 75.2531 37.4595 75.7929 36.7351C76.3327 36.0107 77.0784 35.446 78.0301 35.0412C78.9818 34.6293 80.072 34.4233 81.3007 34.4233C83.0692 34.4233 84.4612 34.8068 85.4768 35.5739C86.4925 36.3338 87.1636 37.353 87.4903 38.6314ZM98.9507 34.6364V37.1932H90.0125V34.6364H98.9507ZM92.4095 30.7159H95.5949V46.1953C95.5949 46.8132 95.6872 47.2784 95.8719 47.5909C96.0566 47.8963 96.2945 48.1058 96.5857 48.2195C96.884 48.326 97.2071 48.3793 97.5551 48.3793C97.8108 48.3793 98.0345 48.3615 98.2263 48.326C98.4181 48.2905 98.5672 48.2621 98.6737 48.2408L99.249 50.8722C99.0644 50.9432 98.8016 51.0142 98.4607 51.0852C98.1198 51.1634 97.6936 51.206 97.1823 51.2131C96.3442 51.2273 95.5629 51.0781 94.8385 50.7656C94.1141 50.4531 93.5281 49.9702 93.0807 49.3168C92.6333 48.6634 92.4095 47.843 92.4095 46.8558V30.7159ZM102.474 51V34.6364H105.66V51H102.474ZM104.083 32.1115C103.529 32.1115 103.053 31.9268 102.655 31.5575C102.265 31.1811 102.07 30.7337 102.07 30.2152C102.07 29.6896 102.265 29.2422 102.655 28.8729C103.053 28.4964 103.529 28.3082 104.083 28.3082C104.637 28.3082 105.109 28.4964 105.5 28.8729C105.898 29.2422 106.097 29.6896 106.097 30.2152C106.097 30.7337 105.898 31.1811 105.5 31.5575C105.109 31.9268 104.637 32.1115 104.083 32.1115ZM123.944 34.6364L118.01 51H114.601L108.656 34.6364H112.076L116.22 47.2287H116.39L120.524 34.6364H123.944ZM131.231 51.3622C130.194 51.3622 129.256 51.1705 128.418 50.7869C127.58 50.3963 126.916 49.8317 126.426 49.093C125.943 48.3544 125.701 47.4489 125.701 46.3764C125.701 45.4531 125.879 44.6932 126.234 44.0966C126.589 43.5 127.069 43.0277 127.672 42.6797C128.276 42.3317 128.951 42.0689 129.696 41.8913C130.442 41.7138 131.202 41.5788 131.976 41.4865C132.956 41.3729 133.752 41.2805 134.363 41.2095C134.973 41.1314 135.417 41.0071 135.694 40.8366C135.971 40.6662 136.11 40.3892 136.11 40.0057V39.9311C136.11 39.0007 135.847 38.2798 135.321 37.7685C134.803 37.2571 134.029 37.0014 132.999 37.0014C131.927 37.0014 131.081 37.2393 130.464 37.7152C129.853 38.1839 129.43 38.706 129.196 39.2812L126.202 38.5994C126.557 37.6051 127.076 36.8026 127.758 36.1918C128.446 35.5739 129.238 35.1264 130.133 34.8494C131.028 34.5653 131.969 34.4233 132.956 34.4233C133.61 34.4233 134.302 34.5014 135.034 34.6577C135.772 34.8068 136.461 35.0838 137.101 35.4886C137.747 35.8935 138.276 36.4723 138.688 37.2251C139.1 37.9709 139.306 38.9403 139.306 40.1335V51H136.195V48.7628H136.067C135.861 49.1747 135.552 49.5795 135.14 49.9773C134.728 50.375 134.199 50.7053 133.553 50.968C132.907 51.2308 132.133 51.3622 131.231 51.3622ZM131.923 48.8054C132.804 48.8054 133.557 48.6314 134.182 48.2834C134.814 47.9354 135.293 47.4808 135.62 46.9197C135.954 46.3516 136.12 45.7443 136.12 45.098V42.9886C136.007 43.1023 135.787 43.2088 135.46 43.3082C135.14 43.4006 134.775 43.4822 134.363 43.5533C133.951 43.6172 133.549 43.6776 133.159 43.7344C132.768 43.7841 132.441 43.8267 132.179 43.8622C131.561 43.9403 130.996 44.0717 130.485 44.2564C129.981 44.4411 129.576 44.7074 129.27 45.0554C128.972 45.3963 128.823 45.8509 128.823 46.419C128.823 47.2074 129.114 47.804 129.696 48.2088C130.279 48.6065 131.021 48.8054 131.923 48.8054ZM146.734 29.1818V51H143.549V29.1818H146.734ZM163.721 51.3622C162.684 51.3622 161.746 51.1705 160.908 50.7869C160.07 50.3963 159.406 49.8317 158.916 49.093C158.433 48.3544 158.192 47.4489 158.192 46.3764C158.192 45.4531 158.369 44.6932 158.724 44.0966C159.079 43.5 159.559 43.0277 160.163 42.6797C160.766 42.3317 161.441 42.0689 162.187 41.8913C162.932 41.7138 163.692 41.5788 164.467 41.4865C165.447 41.3729 166.242 41.2805 166.853 41.2095C167.464 41.1314 167.908 41.0071 168.185 40.8366C168.462 40.6662 168.6 40.3892 168.6 40.0057V39.9311C168.6 39.0007 168.337 38.2798 167.812 37.7685C167.293 37.2571 166.519 37.0014 165.489 37.0014C164.417 37.0014 163.572 37.2393 162.954 37.7152C162.343 38.1839 161.92 38.706 161.686 39.2812L158.692 38.5994C159.047 37.6051 159.566 36.8026 160.248 36.1918C160.937 35.5739 161.729 35.1264 162.623 34.8494C163.518 34.5653 164.459 34.4233 165.447 34.4233C166.1 34.4233 166.793 34.5014 167.524 34.6577C168.263 34.8068 168.952 35.0838 169.591 35.4886C170.237 35.8935 170.766 36.4723 171.178 37.2251C171.59 37.9709 171.796 38.9403 171.796 40.1335V51H168.685V48.7628H168.557C168.351 49.1747 168.043 49.5795 167.631 49.9773C167.219 50.375 166.69 50.7053 166.043 50.968C165.397 51.2308 164.623 51.3622 163.721 51.3622ZM164.413 48.8054C165.294 48.8054 166.047 48.6314 166.672 48.2834C167.304 47.9354 167.783 47.4808 168.11 46.9197C168.444 46.3516 168.611 45.7443 168.611 45.098V42.9886C168.497 43.1023 168.277 43.2088 167.95 43.3082C167.631 43.4006 167.265 43.4822 166.853 43.5533C166.441 43.6172 166.04 43.6776 165.649 43.7344C165.258 43.7841 164.932 43.8267 164.669 43.8622C164.051 43.9403 163.486 44.0717 162.975 44.2564C162.471 44.4411 162.066 44.7074 161.761 45.0554C161.462 45.3963 161.313 45.8509 161.313 46.419C161.313 47.2074 161.604 47.804 162.187 48.2088C162.769 48.6065 163.511 48.8054 164.413 48.8054ZM179.224 41.2841V51H176.039V34.6364H179.096V37.2997H179.299C179.675 36.4332 180.265 35.7372 181.067 35.2116C181.877 34.6861 182.896 34.4233 184.125 34.4233C185.24 34.4233 186.216 34.6577 187.054 35.1264C187.892 35.5881 188.542 36.277 189.004 37.1932C189.466 38.1094 189.696 39.2422 189.696 40.5916V51H186.511V40.9751C186.511 39.7891 186.202 38.8622 185.584 38.1946C184.966 37.5199 184.118 37.1825 183.038 37.1825C182.299 37.1825 181.642 37.3423 181.067 37.6619C180.499 37.9815 180.048 38.4503 179.714 39.0682C179.388 39.679 179.224 40.4176 179.224 41.2841ZM200.094 51.3196C198.773 51.3196 197.594 50.9822 196.557 50.3075C195.527 49.6257 194.718 48.6562 194.128 47.3991C193.546 46.1349 193.255 44.6186 193.255 42.8501C193.255 41.0817 193.549 39.5689 194.139 38.3118C194.736 37.0547 195.552 36.0923 196.589 35.4247C197.626 34.7571 198.802 34.4233 200.116 34.4233C201.131 34.4233 201.948 34.5938 202.566 34.9347C203.191 35.2685 203.674 35.6591 204.015 36.1065C204.363 36.554 204.633 36.9482 204.824 37.2891H205.016V29.1818H208.201V51H205.091V48.4538H204.824C204.633 48.8018 204.356 49.1996 203.993 49.647C203.638 50.0945 203.148 50.4851 202.523 50.8189C201.898 51.1527 201.089 51.3196 200.094 51.3196ZM200.797 48.603C201.714 48.603 202.488 48.3615 203.12 47.8786C203.759 47.3885 204.242 46.7102 204.569 45.8438C204.902 44.9773 205.069 43.9687 205.069 42.8182C205.069 41.6818 204.906 40.6875 204.579 39.8352C204.253 38.983 203.773 38.3189 203.141 37.843C202.509 37.3672 201.728 37.1293 200.797 37.1293C199.839 37.1293 199.04 37.3778 198.4 37.875C197.761 38.3722 197.278 39.0504 196.951 39.9098C196.632 40.7692 196.472 41.7386 196.472 42.8182C196.472 43.9119 196.635 44.8956 196.962 45.7692C197.289 46.6428 197.772 47.3352 198.411 47.8466C199.057 48.3509 199.853 48.603 200.797 48.603ZM232.949 38.6314L230.062 39.1428C229.941 38.7734 229.75 38.4219 229.487 38.0881C229.231 37.7543 228.883 37.4808 228.443 37.2678C228.003 37.0547 227.452 36.9482 226.792 36.9482C225.89 36.9482 225.137 37.1506 224.533 37.5554C223.929 37.9531 223.628 38.468 223.628 39.1001C223.628 39.647 223.83 40.0874 224.235 40.4212C224.64 40.755 225.293 41.0284 226.195 41.2415L228.794 41.8381C230.3 42.1861 231.422 42.7223 232.161 43.4467C232.9 44.1712 233.269 45.1122 233.269 46.2699C233.269 47.25 232.985 48.1236 232.417 48.8906C231.856 49.6506 231.071 50.2472 230.062 50.6804C229.061 51.1136 227.9 51.3303 226.579 51.3303C224.746 51.3303 223.251 50.9396 222.093 50.1584C220.936 49.37 220.226 48.2514 219.963 46.8026L223.042 46.3338C223.233 47.1364 223.628 47.7436 224.224 48.1555C224.821 48.5604 225.598 48.7628 226.557 48.7628C227.601 48.7628 228.436 48.5462 229.061 48.1129C229.686 47.6726 229.998 47.1364 229.998 46.5043C229.998 45.9929 229.807 45.5632 229.423 45.2152C229.047 44.8672 228.468 44.6044 227.687 44.4268L224.917 43.8196C223.39 43.4716 222.26 42.9176 221.529 42.1577C220.804 41.3977 220.442 40.4354 220.442 39.2706C220.442 38.3047 220.712 37.4595 221.252 36.7351C221.792 36.0107 222.537 35.446 223.489 35.0412C224.441 34.6293 225.531 34.4233 226.76 34.4233C228.528 34.4233 229.92 34.8068 230.936 35.5739C231.951 36.3338 232.623 37.353 232.949 38.6314ZM243.824 51.3303C242.212 51.3303 240.823 50.9858 239.658 50.2969C238.501 49.6009 237.606 48.6243 236.974 47.3672C236.349 46.103 236.036 44.6222 236.036 42.9247C236.036 41.2486 236.349 39.7713 236.974 38.4929C237.606 37.2145 238.486 36.2166 239.616 35.4993C240.752 34.782 242.08 34.4233 243.6 34.4233C244.523 34.4233 245.418 34.576 246.285 34.8814C247.151 35.1868 247.929 35.6662 248.618 36.3196C249.307 36.973 249.85 37.8217 250.248 38.8658C250.646 39.9027 250.844 41.1634 250.844 42.6477V43.777H237.837V41.3906H247.723C247.723 40.5526 247.552 39.8104 247.212 39.1641C246.871 38.5107 246.391 37.9957 245.773 37.6193C245.163 37.2429 244.445 37.0547 243.621 37.0547C242.726 37.0547 241.945 37.2749 241.278 37.7152C240.617 38.1484 240.106 38.7166 239.744 39.4197C239.388 40.1158 239.211 40.8722 239.211 41.6889V43.5533C239.211 44.647 239.403 45.5774 239.786 46.3445C240.177 47.1115 240.72 47.6974 241.416 48.1023C242.112 48.5 242.925 48.6989 243.856 48.6989C244.459 48.6989 245.01 48.6136 245.507 48.4432C246.004 48.2656 246.434 48.0028 246.796 47.6548C247.158 47.3068 247.435 46.8771 247.627 46.3658L250.642 46.9091C250.4 47.7969 249.967 48.5746 249.342 49.2422C248.724 49.9027 247.947 50.4176 247.009 50.7869C246.079 51.1491 245.017 51.3303 243.824 51.3303ZM259.141 51.3622C258.104 51.3622 257.166 51.1705 256.328 50.7869C255.49 50.3963 254.826 49.8317 254.336 49.093C253.853 48.3544 253.612 47.4489 253.612 46.3764C253.612 45.4531 253.789 44.6932 254.144 44.0966C254.499 43.5 254.979 43.0277 255.582 42.6797C256.186 42.3317 256.861 42.0689 257.607 41.8913C258.352 41.7138 259.112 41.5788 259.886 41.4865C260.867 41.3729 261.662 41.2805 262.273 41.2095C262.884 41.1314 263.328 41.0071 263.604 40.8366C263.881 40.6662 264.02 40.3892 264.02 40.0057V39.9311C264.02 39.0007 263.757 38.2798 263.232 37.7685C262.713 37.2571 261.939 37.0014 260.909 37.0014C259.837 37.0014 258.992 37.2393 258.374 37.7152C257.763 38.1839 257.34 38.706 257.106 39.2812L254.112 38.5994C254.467 37.6051 254.986 36.8026 255.668 36.1918C256.357 35.5739 257.149 35.1264 258.043 34.8494C258.938 34.5653 259.879 34.4233 260.867 34.4233C261.52 34.4233 262.212 34.5014 262.944 34.6577C263.683 34.8068 264.372 35.0838 265.011 35.4886C265.657 35.8935 266.186 36.4723 266.598 37.2251C267.01 37.9709 267.216 38.9403 267.216 40.1335V51H264.105V48.7628H263.977C263.771 49.1747 263.462 49.5795 263.051 49.9773C262.639 50.375 262.109 50.7053 261.463 50.968C260.817 51.2308 260.043 51.3622 259.141 51.3622ZM259.833 48.8054C260.714 48.8054 261.467 48.6314 262.092 48.2834C262.724 47.9354 263.203 47.4808 263.53 46.9197C263.864 46.3516 264.031 45.7443 264.031 45.098V42.9886C263.917 43.1023 263.697 43.2088 263.37 43.3082C263.051 43.4006 262.685 43.4822 262.273 43.5533C261.861 43.6172 261.46 43.6776 261.069 43.7344C260.678 43.7841 260.352 43.8267 260.089 43.8622C259.471 43.9403 258.906 44.0717 258.395 44.2564C257.891 44.4411 257.486 44.7074 257.18 45.0554C256.882 45.3963 256.733 45.8509 256.733 46.419C256.733 47.2074 257.024 47.804 257.607 48.2088C258.189 48.6065 258.931 48.8054 259.833 48.8054ZM283.721 38.6314L280.834 39.1428C280.713 38.7734 280.521 38.4219 280.258 38.0881C280.003 37.7543 279.655 37.4808 279.214 37.2678C278.774 37.0547 278.224 36.9482 277.563 36.9482C276.661 36.9482 275.908 37.1506 275.305 37.5554C274.701 37.9531 274.399 38.468 274.399 39.1001C274.399 39.647 274.601 40.0874 275.006 40.4212C275.411 40.755 276.065 41.0284 276.967 41.2415L279.566 41.8381C281.072 42.1861 282.194 42.7223 282.932 43.4467C283.671 44.1712 284.04 45.1122 284.04 46.2699C284.04 47.25 283.756 48.1236 283.188 48.8906C282.627 49.6506 281.842 50.2472 280.834 50.6804C279.832 51.1136 278.671 51.3303 277.35 51.3303C275.518 51.3303 274.023 50.9396 272.865 50.1584C271.707 49.37 270.997 48.2514 270.734 46.8026L273.813 46.3338C274.005 47.1364 274.399 47.7436 274.996 48.1555C275.592 48.5604 276.37 48.7628 277.329 48.7628C278.373 48.7628 279.207 48.5462 279.832 48.1129C280.457 47.6726 280.77 47.1364 280.77 46.5043C280.77 45.9929 280.578 45.5632 280.195 45.2152C279.818 44.8672 279.239 44.6044 278.458 44.4268L275.688 43.8196C274.161 43.4716 273.032 42.9176 272.3 42.1577C271.576 41.3977 271.214 40.4354 271.214 39.2706C271.214 38.3047 271.484 37.4595 272.023 36.7351C272.563 36.0107 273.309 35.446 274.261 35.0412C275.212 34.6293 276.302 34.4233 277.531 34.4233C279.3 34.4233 280.692 34.8068 281.707 35.5739C282.723 36.3338 283.394 37.353 283.721 38.6314ZM294.435 51.3303C292.901 51.3303 291.563 50.9787 290.419 50.2756C289.276 49.5724 288.388 48.5888 287.756 47.3246C287.124 46.0604 286.808 44.5831 286.808 42.8928C286.808 41.1953 287.124 39.7109 287.756 38.4396C288.388 37.1683 289.276 36.1811 290.419 35.478C291.563 34.7749 292.901 34.4233 294.435 34.4233C295.97 34.4233 297.308 34.7749 298.452 35.478C299.595 36.1811 300.483 37.1683 301.115 38.4396C301.747 39.7109 302.063 41.1953 302.063 42.8928C302.063 44.5831 301.747 46.0604 301.115 47.3246C300.483 48.5888 299.595 49.5724 298.452 50.2756C297.308 50.9787 295.97 51.3303 294.435 51.3303ZM294.446 48.6562C295.44 48.6562 296.264 48.3935 296.918 47.8679C297.571 47.3423 298.054 46.6428 298.367 45.7692C298.686 44.8956 298.846 43.9332 298.846 42.8821C298.846 41.8381 298.686 40.8793 298.367 40.0057C298.054 39.125 297.571 38.4183 296.918 37.8857C296.264 37.353 295.44 37.0866 294.446 37.0866C293.445 37.0866 292.614 37.353 291.953 37.8857C291.3 38.4183 290.813 39.125 290.494 40.0057C290.181 40.8793 290.025 41.8381 290.025 42.8821C290.025 43.9332 290.181 44.8956 290.494 45.7692C290.813 46.6428 291.3 47.3423 291.953 47.8679C292.614 48.3935 293.445 48.6562 294.446 48.6562ZM308.804 41.2841V51H305.619V34.6364H308.676V37.2997H308.879C309.255 36.4332 309.845 35.7372 310.647 35.2116C311.457 34.6861 312.476 34.4233 313.705 34.4233C314.82 34.4233 315.796 34.6577 316.634 35.1264C317.473 35.5881 318.122 36.277 318.584 37.1932C319.046 38.1094 319.277 39.2422 319.277 40.5916V51H316.091V40.9751C316.091 39.7891 315.782 38.8622 315.164 38.1946C314.546 37.5199 313.698 37.1825 312.618 37.1825C311.88 37.1825 311.223 37.3423 310.647 37.6619C310.079 37.9815 309.628 38.4503 309.294 39.0682C308.968 39.679 308.804 40.4176 308.804 41.2841ZM328.311 51.3622C327.274 51.3622 326.336 51.1705 325.498 50.7869C324.66 50.3963 323.996 49.8317 323.506 49.093C323.023 48.3544 322.782 47.4489 322.782 46.3764C322.782 45.4531 322.959 44.6932 323.314 44.0966C323.669 43.5 324.149 43.0277 324.752 42.6797C325.356 42.3317 326.031 42.0689 326.777 41.8913C327.522 41.7138 328.282 41.5788 329.056 41.4865C330.036 41.3729 330.832 41.2805 331.443 41.2095C332.054 41.1314 332.497 41.0071 332.774 40.8366C333.051 40.6662 333.19 40.3892 333.19 40.0057V39.9311C333.19 39.0007 332.927 38.2798 332.402 37.7685C331.883 37.2571 331.109 37.0014 330.079 37.0014C329.007 37.0014 328.161 37.2393 327.544 37.7152C326.933 38.1839 326.51 38.706 326.276 39.2812L323.282 38.5994C323.637 37.6051 324.156 36.8026 324.838 36.1918C325.527 35.5739 326.318 35.1264 327.213 34.8494C328.108 34.5653 329.049 34.4233 330.036 34.4233C330.69 34.4233 331.382 34.5014 332.114 34.6577C332.853 34.8068 333.541 35.0838 334.181 35.4886C334.827 35.8935 335.356 36.4723 335.768 37.2251C336.18 37.9709 336.386 38.9403 336.386 40.1335V51H333.275V48.7628H333.147C332.941 49.1747 332.632 49.5795 332.22 49.9773C331.809 50.375 331.279 50.7053 330.633 50.968C329.987 51.2308 329.213 51.3622 328.311 51.3622ZM329.003 48.8054C329.884 48.8054 330.637 48.6314 331.262 48.2834C331.894 47.9354 332.373 47.4808 332.7 46.9197C333.034 46.3516 333.201 45.7443 333.201 45.098V42.9886C333.087 43.1023 332.867 43.2088 332.54 43.3082C332.22 43.4006 331.855 43.4822 331.443 43.5533C331.031 43.6172 330.63 43.6776 330.239 43.7344C329.848 43.7841 329.522 43.8267 329.259 43.8622C328.641 43.9403 328.076 44.0717 327.565 44.2564C327.061 44.4411 326.656 44.7074 326.35 45.0554C326.052 45.3963 325.903 45.8509 325.903 46.419C325.903 47.2074 326.194 47.804 326.777 48.2088C327.359 48.6065 328.101 48.8054 329.003 48.8054ZM343.814 29.1818V51H340.629V29.1818H343.814ZM103.96 87.3303C102.348 87.3303 100.96 86.9858 99.795 86.2969C98.6373 85.6009 97.7425 84.6243 97.1104 83.3672C96.4854 82.103 96.1729 80.6222 96.1729 78.9247C96.1729 77.2486 96.4854 75.7713 97.1104 74.4929C97.7425 73.2145 98.6231 72.2166 99.7524 71.4993C100.889 70.782 102.217 70.4233 103.737 70.4233C104.66 70.4233 105.555 70.576 106.421 70.8814C107.288 71.1868 108.066 71.6662 108.755 72.3196C109.443 72.973 109.987 73.8217 110.385 74.8658C110.782 75.9027 110.981 77.1634 110.981 78.6477V79.777H97.9733V77.3906H107.86C107.86 76.5526 107.689 75.8104 107.348 75.1641C107.007 74.5107 106.528 73.9957 105.91 73.6193C105.299 73.2429 104.582 73.0547 103.758 73.0547C102.863 73.0547 102.082 73.2749 101.414 73.7152C100.754 74.1484 100.242 74.7166 99.8802 75.4197C99.5251 76.1158 99.3476 76.8722 99.3476 77.6889V79.5533C99.3476 80.647 99.5393 81.5774 99.9229 82.3445C100.313 83.1115 100.857 83.6974 101.553 84.1023C102.249 84.5 103.062 84.6989 103.992 84.6989C104.596 84.6989 105.147 84.6136 105.644 84.4432C106.141 84.2656 106.571 84.0028 106.933 83.6548C107.295 83.3068 107.572 82.8771 107.764 82.3658L110.779 82.9091C110.537 83.7969 110.104 84.5746 109.479 85.2422C108.861 85.9027 108.083 86.4176 107.146 86.7869C106.215 87.1491 105.154 87.3303 103.96 87.3303ZM117.701 77.2841V87H114.515V70.6364H117.573V73.2997H117.775C118.152 72.4332 118.741 71.7372 119.544 71.2116C120.353 70.6861 121.373 70.4233 122.601 70.4233C123.716 70.4233 124.693 70.6577 125.531 71.1264C126.369 71.5881 127.019 72.277 127.481 73.1932C127.942 74.1094 128.173 75.2422 128.173 76.5916V87H124.988V76.9751C124.988 75.7891 124.679 74.8622 124.061 74.1946C123.443 73.5199 122.594 73.1825 121.515 73.1825C120.776 73.1825 120.119 73.3423 119.544 73.6619C118.976 73.9815 118.525 74.4503 118.191 75.0682C117.864 75.679 117.701 76.4176 117.701 77.2841ZM140.084 70.6364V73.1932H131.145V70.6364H140.084ZM133.542 66.7159H136.728V82.1953C136.728 82.8132 136.82 83.2784 137.005 83.5909C137.189 83.8963 137.427 84.1058 137.718 84.2195C138.017 84.326 138.34 84.3793 138.688 84.3793C138.944 84.3793 139.167 84.3615 139.359 84.326C139.551 84.2905 139.7 84.2621 139.807 84.2408L140.382 86.8722C140.197 86.9432 139.934 87.0142 139.593 87.0852C139.253 87.1634 138.826 87.206 138.315 87.2131C137.477 87.2273 136.696 87.0781 135.971 86.7656C135.247 86.4531 134.661 85.9702 134.214 85.3168C133.766 84.6634 133.542 83.843 133.542 82.8558V66.7159ZM150.484 87.3303C148.872 87.3303 147.483 86.9858 146.318 86.2969C145.161 85.6009 144.266 84.6243 143.634 83.3672C143.009 82.103 142.696 80.6222 142.696 78.9247C142.696 77.2486 143.009 75.7713 143.634 74.4929C144.266 73.2145 145.147 72.2166 146.276 71.4993C147.412 70.782 148.74 70.4233 150.26 70.4233C151.184 70.4233 152.078 70.576 152.945 70.8814C153.811 71.1868 154.589 71.6662 155.278 72.3196C155.967 72.973 156.51 73.8217 156.908 74.8658C157.306 75.9027 157.505 77.1634 157.505 78.6477V79.777H144.497V77.3906H154.383C154.383 76.5526 154.213 75.8104 153.872 75.1641C153.531 74.5107 153.051 73.9957 152.434 73.6193C151.823 73.2429 151.105 73.0547 150.282 73.0547C149.387 73.0547 148.605 73.2749 147.938 73.7152C147.277 74.1484 146.766 74.7166 146.404 75.4197C146.049 76.1158 145.871 76.8722 145.871 77.6889V79.5533C145.871 80.647 146.063 81.5774 146.446 82.3445C146.837 83.1115 147.38 83.6974 148.076 84.1023C148.772 84.5 149.585 84.6989 150.516 84.6989C151.12 84.6989 151.67 84.6136 152.167 84.4432C152.664 84.2656 153.094 84.0028 153.456 83.6548C153.818 83.3068 154.095 82.8771 154.287 82.3658L157.302 82.9091C157.061 83.7969 156.627 84.5746 156.002 85.2422C155.384 85.9027 154.607 86.4176 153.669 86.7869C152.739 87.1491 151.677 87.3303 150.484 87.3303ZM161.039 87V70.6364H164.118V73.2358H164.288C164.586 72.3551 165.112 71.6626 165.865 71.1584C166.625 70.647 167.484 70.3913 168.443 70.3913C168.642 70.3913 168.876 70.3984 169.146 70.4126C169.423 70.4268 169.64 70.4446 169.796 70.4659V73.5128C169.668 73.4773 169.441 73.4382 169.114 73.3956C168.787 73.3459 168.461 73.321 168.134 73.321C167.381 73.321 166.71 73.4808 166.12 73.8004C165.538 74.1129 165.076 74.5497 164.736 75.1108C164.395 75.6648 164.224 76.2969 164.224 77.0071V87H161.039ZM181.158 70.6364V73.1932H172.22V70.6364H181.158ZM174.617 66.7159H177.802V82.1953C177.802 82.8132 177.894 83.2784 178.079 83.5909C178.264 83.8963 178.502 84.1058 178.793 84.2195C179.091 84.326 179.414 84.3793 179.762 84.3793C180.018 84.3793 180.242 84.3615 180.433 84.326C180.625 84.2905 180.774 84.2621 180.881 84.2408L181.456 86.8722C181.271 86.9432 181.009 87.0142 180.668 87.0852C180.327 87.1634 179.901 87.206 179.389 87.2131C178.551 87.2273 177.77 87.0781 177.046 86.7656C176.321 86.4531 175.735 85.9702 175.288 85.3168C174.84 84.6634 174.617 83.843 174.617 82.8558V66.7159ZM189.443 87.3622C188.407 87.3622 187.469 87.1705 186.631 86.7869C185.793 86.3963 185.129 85.8317 184.639 85.093C184.156 84.3544 183.914 83.4489 183.914 82.3764C183.914 81.4531 184.092 80.6932 184.447 80.0966C184.802 79.5 185.282 79.0277 185.885 78.6797C186.489 78.3317 187.164 78.0689 187.909 77.8913C188.655 77.7138 189.415 77.5788 190.189 77.4865C191.169 77.3729 191.965 77.2805 192.576 77.2095C193.186 77.1314 193.63 77.0071 193.907 76.8366C194.184 76.6662 194.323 76.3892 194.323 76.0057V75.9311C194.323 75.0007 194.06 74.2798 193.534 73.7685C193.016 73.2571 192.242 73.0014 191.212 73.0014C190.139 73.0014 189.294 73.2393 188.676 73.7152C188.066 74.1839 187.643 74.706 187.409 75.2812L184.415 74.5994C184.77 73.6051 185.289 72.8026 185.97 72.1918C186.659 71.5739 187.451 71.1264 188.346 70.8494C189.241 70.5653 190.182 70.4233 191.169 70.4233C191.823 70.4233 192.515 70.5014 193.247 70.6577C193.985 70.8068 194.674 71.0838 195.313 71.4886C195.96 71.8935 196.489 72.4723 196.901 73.2251C197.313 73.9709 197.519 74.9403 197.519 76.1335V87H194.408V84.7628H194.28C194.074 85.1747 193.765 85.5795 193.353 85.9773C192.941 86.375 192.412 86.7053 191.766 86.968C191.12 87.2308 190.345 87.3622 189.443 87.3622ZM190.136 84.8054C191.017 84.8054 191.769 84.6314 192.394 84.2834C193.027 83.9354 193.506 83.4808 193.833 82.9197C194.166 82.3516 194.333 81.7443 194.333 81.098V78.9886C194.22 79.1023 194 79.2088 193.673 79.3082C193.353 79.4006 192.987 79.4822 192.576 79.5533C192.164 79.6172 191.762 79.6776 191.372 79.7344C190.981 79.7841 190.654 79.8267 190.392 79.8622C189.774 79.9403 189.209 80.0717 188.698 80.2564C188.193 80.4411 187.789 80.7074 187.483 81.0554C187.185 81.3963 187.036 81.8509 187.036 82.419C187.036 83.2074 187.327 83.804 187.909 84.2088C188.492 84.6065 189.234 84.8054 190.136 84.8054ZM201.761 87V70.6364H204.947V87H201.761ZM203.37 68.1115C202.816 68.1115 202.34 67.9268 201.943 67.5575C201.552 67.1811 201.357 66.7337 201.357 66.2152C201.357 65.6896 201.552 65.2422 201.943 64.8729C202.34 64.4964 202.816 64.3082 203.37 64.3082C203.924 64.3082 204.396 64.4964 204.787 64.8729C205.185 65.2422 205.384 65.6896 205.384 66.2152C205.384 66.7337 205.185 67.1811 204.787 67.5575C204.396 67.9268 203.924 68.1115 203.37 68.1115ZM212.418 77.2841V87H209.232V70.6364H212.29V73.2997H212.492C212.869 72.4332 213.458 71.7372 214.261 71.2116C215.07 70.6861 216.089 70.4233 217.318 70.4233C218.433 70.4233 219.41 70.6577 220.248 71.1264C221.086 71.5881 221.736 72.277 222.197 73.1932C222.659 74.1094 222.89 75.2422 222.89 76.5916V87H219.704V76.9751C219.704 75.7891 219.396 74.8622 218.778 74.1946C218.16 73.5199 217.311 73.1825 216.231 73.1825C215.493 73.1825 214.836 73.3423 214.261 73.6619C213.692 73.9815 213.241 74.4503 212.908 75.0682C212.581 75.679 212.418 76.4176 212.418 77.2841ZM227.162 87V70.6364H230.219V73.2997H230.422C230.763 72.3977 231.32 71.6946 232.094 71.1903C232.869 70.679 233.795 70.4233 234.875 70.4233C235.969 70.4233 236.885 70.679 237.623 71.1903C238.369 71.7017 238.92 72.4048 239.275 73.2997H239.445C239.836 72.4261 240.457 71.7301 241.31 71.2116C242.162 70.6861 243.177 70.4233 244.356 70.4233C245.841 70.4233 247.052 70.8885 247.989 71.8189C248.934 72.7493 249.406 74.152 249.406 76.027V87H246.221V76.3253C246.221 75.2173 245.919 74.4148 245.315 73.9176C244.712 73.4205 243.991 73.1719 243.153 73.1719C242.116 73.1719 241.31 73.4915 240.734 74.1307C240.159 74.7628 239.871 75.576 239.871 76.5703V87H236.697V76.1229C236.697 75.2351 236.42 74.5213 235.866 73.9815C235.312 73.4418 234.591 73.1719 233.703 73.1719C233.099 73.1719 232.542 73.3317 232.03 73.6513C231.526 73.9638 231.118 74.4006 230.805 74.9616C230.5 75.5227 230.347 76.1726 230.347 76.9112V87H227.162ZM260.728 87.3303C259.116 87.3303 257.727 86.9858 256.563 86.2969C255.405 85.6009 254.51 84.6243 253.878 83.3672C253.253 82.103 252.94 80.6222 252.94 78.9247C252.94 77.2486 253.253 75.7713 253.878 74.4929C254.51 73.2145 255.391 72.2166 256.52 71.4993C257.656 70.782 258.984 70.4233 260.504 70.4233C261.428 70.4233 262.323 70.576 263.189 70.8814C264.055 71.1868 264.833 71.6662 265.522 72.3196C266.211 72.973 266.754 73.8217 267.152 74.8658C267.55 75.9027 267.749 77.1634 267.749 78.6477V79.777H254.741V77.3906H264.627C264.627 76.5526 264.457 75.8104 264.116 75.1641C263.775 74.5107 263.296 73.9957 262.678 73.6193C262.067 73.2429 261.35 73.0547 260.526 73.0547C259.631 73.0547 258.85 73.2749 258.182 73.7152C257.521 74.1484 257.01 74.7166 256.648 75.4197C256.293 76.1158 256.115 76.8722 256.115 77.6889V79.5533C256.115 80.647 256.307 81.5774 256.69 82.3445C257.081 83.1115 257.624 83.6974 258.32 84.1023C259.016 84.5 259.83 84.6989 260.76 84.6989C261.364 84.6989 261.914 84.6136 262.411 84.4432C262.908 84.2656 263.338 84.0028 263.7 83.6548C264.063 83.3068 264.34 82.8771 264.531 82.3658L267.546 82.9091C267.305 83.7969 266.872 84.5746 266.247 85.2422C265.629 85.9027 264.851 86.4176 263.913 86.7869C262.983 87.1491 261.921 87.3303 260.728 87.3303ZM274.468 77.2841V87H271.283V70.6364H274.34V73.2997H274.543C274.919 72.4332 275.509 71.7372 276.311 71.2116C277.121 70.6861 278.14 70.4233 279.369 70.4233C280.484 70.4233 281.46 70.6577 282.299 71.1264C283.137 71.5881 283.786 72.277 284.248 73.1932C284.71 74.1094 284.941 75.2422 284.941 76.5916V87H281.755V76.9751C281.755 75.7891 281.446 74.8622 280.828 74.1946C280.21 73.5199 279.362 73.1825 278.282 73.1825C277.544 73.1825 276.887 73.3423 276.311 73.6619C275.743 73.9815 275.292 74.4503 274.958 75.0682C274.632 75.679 274.468 76.4176 274.468 77.2841ZM296.851 70.6364V73.1932H287.913V70.6364H296.851ZM290.31 66.7159H293.495V82.1953C293.495 82.8132 293.588 83.2784 293.772 83.5909C293.957 83.8963 294.195 84.1058 294.486 84.2195C294.784 84.326 295.108 84.3793 295.456 84.3793C295.711 84.3793 295.935 84.3615 296.127 84.326C296.318 84.2905 296.468 84.2621 296.574 84.2408L297.149 86.8722C296.965 86.9432 296.702 87.0142 296.361 87.0852C296.02 87.1634 295.594 87.206 295.083 87.2131C294.245 87.2273 293.463 87.0781 292.739 86.7656C292.014 86.4531 291.429 85.9702 290.981 85.3168C290.534 84.6634 290.31 83.843 290.31 82.8558V66.7159Z" fill="#5A0400"/>
</svg>
