<svg width="373" height="23" viewBox="0 0 373 23" fill="none" xmlns="http://www.w3.org/2000/svg">
<path d="M372.56 12.1226C373.147 11.5361 373.147 10.5851 372.56 9.9985L363.001 0.43988C362.415 -0.146685 361.464 -0.146685 360.877 0.43988C360.291 1.02644 360.291 1.97745 360.877 2.56402L369.374 11.0606L360.877 19.5571C360.291 20.1437 360.291 21.0947 360.877 21.6812C361.464 22.2678 362.415 22.2678 363.001 21.6812L372.56 12.1226ZM0 11.0606L0 12.5626H2.99595V11.0606V9.55857H0L0 11.0606ZM8.98785 11.0606V12.5626H14.9798V11.0606V9.55857H8.98785V11.0606ZM20.9717 11.0606V12.5626H26.9636V11.0606V9.55857H20.9717V11.0606ZM32.9555 11.0606V12.5626H38.9474V11.0606V9.55857H32.9555V11.0606ZM44.9393 11.0606V12.5626H50.9312V11.0606V9.55857H44.9393V11.0606ZM56.9231 11.0606V12.5626H62.915V11.0606V9.55857H56.9231V11.0606ZM68.9069 11.0606V12.5626H74.8988V11.0606V9.55857H68.9069V11.0606ZM80.8907 11.0606V12.5626H86.8826V11.0606V9.55857H80.8907V11.0606ZM92.8745 11.0606V12.5626H98.8664V11.0606V9.55857H92.8745V11.0606ZM104.858 11.0606V12.5626H110.85V11.0606V9.55857H104.858V11.0606ZM116.842 11.0606V12.5626H122.834V11.0606V9.55857H116.842V11.0606ZM128.826 11.0606V12.5626H134.818V11.0606V9.55857H128.826V11.0606ZM140.81 11.0606V12.5626H146.802V11.0606V9.55857H140.81V11.0606ZM152.794 11.0606V12.5626H158.785V11.0606V9.55857H152.794V11.0606ZM164.777 11.0606V12.5626H170.769V11.0606V9.55857H164.777V11.0606ZM176.761 11.0606V12.5626H182.753V11.0606V9.55857H176.761V11.0606ZM188.745 11.0606V12.5626H194.737V11.0606V9.55857H188.745V11.0606ZM200.729 11.0606V12.5626H206.721V11.0606V9.55857H200.729V11.0606ZM212.713 11.0606V12.5626H218.705V11.0606V9.55857H212.713V11.0606ZM224.696 11.0606V12.5626H230.688V11.0606V9.55857H224.696V11.0606ZM236.68 11.0606V12.5626H242.672V11.0606V9.55857H236.68V11.0606ZM248.664 11.0606V12.5626H254.656V11.0606V9.55857H248.664V11.0606ZM260.648 11.0606V12.5626H266.64V11.0606V9.55857H260.648V11.0606ZM272.632 11.0606V12.5626H278.624V11.0606V9.55857H272.632V11.0606ZM284.615 11.0606V12.5626H290.607V11.0606V9.55857H284.615V11.0606ZM296.599 11.0606V12.5626H302.591V11.0606V9.55857H296.599V11.0606ZM308.583 11.0606V12.5626H314.575V11.0606V9.55857H308.583V11.0606ZM320.567 11.0606V12.5626H326.559V11.0606V9.55857H320.567V11.0606ZM332.551 11.0606V12.5626H338.542V11.0606V9.55857H332.551V11.0606ZM344.534 11.0606V12.5626H350.526V11.0606V9.55857H344.534V11.0606ZM356.518 11.0606V12.5626H362.51V11.0606V9.55857H356.518V11.0606ZM368.502 11.0606V12.5626H371.498V11.0606V9.55857H368.502V11.0606Z" fill="black"/>
</svg>
