<svg width="44" height="44" viewBox="0 0 44 44" fill="none" xmlns="http://www.w3.org/2000/svg">
<path d="M12.445 43.9946C12.445 42.9772 12.3643 42.1247 12.4817 41.3016C12.5312 40.9515 12.94 40.5757 13.2755 40.3649C14.9017 39.3328 16.6672 38.5079 18.1834 37.3236C23.0894 33.4886 25.9971 28.4401 26.1566 21.881C26.2006 20.0203 25.5149 19.5528 23.9529 20.2806C19.4374 22.3741 14.5809 21.1459 11.9903 17.2559C9.16517 13.0102 9.56301 7.35672 12.9492 3.65004C17.2722 -1.08322 24.3892 -1.2262 29.2971 3.29807C32.2359 6.00751 33.6329 9.5052 33.9812 13.485C35.1491 26.814 28.4629 37.8021 16.2914 42.6289C15.0869 43.1055 13.853 43.4978 12.445 43.9946Z" fill="#FBBC04"/>
</svg>
