<svg width="44" height="44" viewBox="0 0 44 44" fill="none" xmlns="http://www.w3.org/2000/svg">
<path d="M31.5549 0.00144788C31.5549 1.01895 31.6356 1.87145 31.5182 2.69463C31.4687 3.04479 31.0599 3.42063 30.7244 3.63146C29.0982 4.66363 27.3327 5.48864 25.8165 6.67298C20.9105 10.5083 18.0028 15.5573 17.8433 22.117C17.7993 23.9779 18.485 24.4454 20.047 23.7176C24.5625 21.6239 29.4191 22.8522 32.0096 26.7426C34.8347 30.9886 34.4369 36.6426 31.0507 40.3496C26.7277 45.0833 19.6107 45.2263 14.7028 40.7016C11.764 37.992 10.367 34.4939 10.0186 30.5138C8.8508 17.1835 15.537 6.19448 27.7086 1.36729C28.9131 0.890619 30.1469 0.498283 31.5549 0.00144788Z" fill="#FBBC04"/>
</svg>
