<svg width="161" height="120" viewBox="0 0 161 120" fill="none" xmlns="http://www.w3.org/2000/svg">
<path d="M1.50461 7.03409C1.50461 7.03409 33.2223 31.9456 37.2025 46.219C41.1824 60.4915 28.6723 58.2774 30.1413 46.0715C31.61 33.8646 41.286 32.3786 48.9842 35.3569C75.0167 45.4282 89.4473 86.2231 84.875 101.21C82.0885 110.343 72.0714 110.47 65.0115 93.1632C48.9089 53.6892 64.0565 0.946711 89.8945 1.50901C114.803 2.05172 123.098 40.4498 137.041 74.6304C150.985 108.811 159.239 117.303 159.239 117.303M159.239 117.303C159.239 117.303 151.695 114.426 146.775 113.657M159.239 117.303C159.239 117.303 158.161 107.383 158.607 102.154" stroke="#333333" stroke-width="3" stroke-miterlimit="16" stroke-linecap="round" stroke-dasharray="10 10"/>
</svg>
