<svg width="137" height="89" viewBox="0 0 137 89" fill="none" xmlns="http://www.w3.org/2000/svg">
<path d="M111.926 0.00322723C111.926 2.0142 112.086 3.69907 111.854 5.32596C111.756 6.01803 110.948 6.76082 110.285 7.17751C107.071 9.21746 103.582 10.848 100.585 13.1887C90.8891 20.7688 85.1424 30.7475 84.8272 43.712C84.7402 47.3897 86.0954 48.3137 89.1825 46.8752C98.1069 42.7373 107.705 45.165 112.825 52.8538C118.409 61.2455 117.622 72.42 110.93 79.7464C102.386 89.102 88.3201 89.3846 78.6204 80.4421C72.8121 75.0868 70.0511 68.1734 69.3626 60.307C67.0546 33.9615 80.269 12.243 104.325 2.70264C106.705 1.76057 109.144 0.985161 111.926 0.00322723Z" fill="#FF6F00"/>
<path d="M62.3649 2.04229C62.3649 4.05326 62.5243 5.73813 62.2924 7.36502C62.1946 8.05709 61.3866 8.79988 60.7235 9.21657C57.5096 11.2565 54.0203 12.887 51.0237 15.2277C41.3276 22.8078 35.5809 32.7866 35.2657 45.751C35.1787 49.4288 36.5339 50.3527 39.621 48.9142C48.5453 44.7764 58.1437 47.204 63.2635 54.8928C68.8471 63.2845 68.0608 74.459 61.3685 81.7855C52.8246 91.141 38.7586 91.4237 29.0588 82.4812C23.2506 77.1258 20.4896 70.2124 19.8011 62.3461C17.493 36.0005 30.7075 14.2821 54.7631 4.74171C57.1436 3.79963 59.5821 3.02422 62.3649 2.04229Z" fill="#FF6F00"/>
</svg>
