<svg width="137" height="89" viewBox="0 0 137 89" fill="none" xmlns="http://www.w3.org/2000/svg">
<path d="M74.1577 88.9968C74.1577 86.9858 73.9983 85.3009 74.2302 83.674C74.328 82.982 75.1361 82.2392 75.7991 81.8225C79.0131 79.7825 82.5024 78.152 85.4989 75.8113C95.1951 68.2312 100.942 58.2525 101.257 45.288C101.344 41.6103 99.9888 40.6863 96.9017 42.1248C87.9773 46.2627 78.379 43.835 73.2592 36.1462C67.6755 27.7545 68.4618 16.58 75.1542 9.25357C83.6981 -0.101977 97.764 -0.3846 107.464 8.55789C113.272 13.9132 116.033 20.8266 116.722 28.693C119.03 55.0385 105.815 76.757 81.7596 86.2974C79.379 87.2394 76.9405 88.0148 74.1577 88.9968Z" fill="#FF6F00"/>
<path d="M24.5962 86.9577C24.5962 84.9467 24.4368 83.2619 24.6687 81.635C24.7665 80.9429 25.5745 80.2001 26.2376 79.7834C29.4515 77.7435 32.9409 76.113 35.9374 73.7723C45.6335 66.1922 51.3802 56.2134 51.6954 43.249C51.7824 39.5712 50.4273 38.6473 47.3401 40.0858C38.4158 44.2236 28.8175 41.796 23.6976 34.1072C18.114 25.7155 18.9003 14.541 25.5927 7.21451C34.1366 -2.14104 48.2025 -2.42366 57.9023 6.51882C63.7105 11.8742 66.4716 18.7876 67.16 26.6539C69.4681 52.9995 56.2536 74.7179 32.1981 84.2583C29.8175 85.2004 27.379 85.9758 24.5962 86.9577Z" fill="#FF6F00"/>
</svg>
