<svg width="57" height="57" viewBox="0 0 57 57" fill="none" xmlns="http://www.w3.org/2000/svg">
<g clip-path="url(#clip0_18_2)">
<path d="M51.7815 0H5.05186C2.26179 0 0 2.26179 0 5.05186V51.7815C0 54.5716 2.26179 56.8334 5.05186 56.8334H51.7815C54.5716 56.8334 56.8334 54.5716 56.8334 51.7815V5.05186C56.8334 2.26179 54.5716 0 51.7815 0Z" fill="#8E8E8E" fill-opacity="0.86"/>
<path d="M18.608 30.9877C18.905 31.4588 19.3122 31.8426 19.7908 32.1029C20.2694 32.3632 20.8037 32.4912 21.3428 32.4749M21.3428 32.4749C22.0793 32.5431 22.8117 32.3046 23.381 31.8111C23.9503 31.3177 24.3106 30.6091 24.3835 29.8394C24.315 29.0662 23.9567 28.3529 23.3868 27.8555C22.817 27.3581 22.0821 27.117 21.3428 27.185C20.6065 27.2478 19.8762 27.0044 19.3104 26.5075C18.7445 26.0106 18.3887 25.3003 18.3201 24.5307C18.3931 23.7645 18.7508 23.059 19.3162 22.566C19.8816 22.0731 20.6094 21.8322 21.3428 21.8952M21.3428 32.4749V34.2444M21.3428 21.8952C21.8828 21.8734 22.419 21.999 22.8985 22.2598C23.3781 22.5206 23.7844 22.9075 24.0777 23.3824M21.3428 21.8952V20.1257M31.7604 34.2444V28.5969M38.0577 34.2444V22.9494M9.26996 6.94824H47.0539C47.0539 6.94824 48.4033 6.94824 48.4033 8.36011V13.0663C48.4033 13.0663 48.4033 14.4782 47.0539 14.4782H9.26996C9.26996 14.4782 7.92053 14.4782 7.92053 13.0663V8.36011C7.92053 8.36011 7.92053 6.94824 9.26996 6.94824Z" stroke="white" stroke-width="1.32009" stroke-linecap="round" stroke-linejoin="round"/>
<path d="M28.1619 47.4212V39.4206M28.1619 47.4212C29.6553 47.4212 30.8608 48.2683 30.8608 49.3037M28.1619 47.4212C26.6686 47.4212 25.4631 48.2683 25.4631 49.3037M7.92053 39.4206H48.4033M10.6194 14.4775H45.7045V39.4206H10.6194V14.4775Z" stroke="white" stroke-width="1.32009" stroke-linecap="round" stroke-linejoin="round"/>
</g>
<defs>
<clipPath id="clip0_18_2">
<rect width="57" height="57" fill="white"/>
</clipPath>
</defs>
</svg>
