<svg width="204" height="46" viewBox="0 0 204 46" fill="none" xmlns="http://www.w3.org/2000/svg">
<g clip-path="url(#clip0_22_2)">
<path d="M22.3499 0L27.6259 17.2746H44.6997L30.8867 27.9508L36.1628 45.2254L22.3499 34.5491L8.53687 45.2254L13.813 27.9508L0 17.2746H17.0738L22.3499 0Z" fill="#FBBC04"/>
<path d="M75.3499 0L80.6259 17.2746H97.6997L83.8867 27.9508L89.1628 45.2254L75.3499 34.5491L61.5369 45.2254L66.813 27.9508L53 17.2746H70.0738L75.3499 0Z" fill="#FBBC04"/>
<path d="M128.35 0L133.626 17.2746H150.7L136.887 27.9508L142.163 45.2254L128.35 34.5491L114.537 45.2254L119.813 27.9508L106 17.2746H123.074L128.35 0Z" fill="#FBBC04"/>
<path d="M181.35 0L186.626 17.2746H203.7L189.887 27.9508L195.163 45.2254L181.35 34.5491L167.537 45.2254L172.813 27.9508L159 17.2746H176.074L181.35 0Z" fill="#FBBC04"/>
</g>
<defs>
<clipPath id="clip0_22_2">
<rect width="204" height="46" fill="white"/>
</clipPath>
</defs>
</svg>
